M48
;DRILL file {KiCad (5.0.0)} date 02/24/20 01:00:36
;FORMAT={2:4/ absolute / inch / suppress leading zeros}
FMAT,2
INCH,TZ
T1C0.0200
T2C0.0280
T3C0.0433
T4C0.0472
T5C0.1250
%
G90
G05
M72
T1
X22160Y-31130
X22230Y-41980
X23790Y-43010
X24240Y-28970
X26215Y-31515
X27170Y-34390
X27240Y-35370
X28140Y-32730
X28180Y-32140
X28890Y-40890
X30100Y-37860
X30110Y-36160
X31030Y-34680
X31250Y-39700
X32000Y-29310
X32000Y-30330
X32070Y-38150
X32970Y-43680
X33520Y-29230
X34830Y-37520
X37490Y-43520
X37620Y-37520
X39400Y-42025
X39600Y-28980
X39750Y-44820
X44550Y-44740
X44920Y-42790
X46250Y-33820
X46330Y-38860
X47210Y-43870
X49490Y-28860
X49750Y-44365
X51725Y-41910
X51730Y-34055
X52610Y-32170
X52610Y-32740
X53320Y-44560
X54925Y-42435
X55450Y-34690
X56230Y-29330
X56530Y-30380
X56710Y-38150
X57930Y-44520
X58430Y-30230
X59800Y-42350
X59820Y-35100
X60140Y-31120
T2
X26915Y-39180
X32115Y-42950
X51100Y-31500
T3
X24765Y-38488
X24765Y-39669
X24765Y-40850
X57640Y-39078
X57640Y-40259
T4
X26865Y-43065
X27865Y-42829
X28865Y-43065
X29865Y-42829
X30865Y-43065
X49715Y-37457
X50715Y-37693
X51715Y-37457
X52715Y-37693
X53715Y-37457
X36830Y-29395
X36830Y-32395
X36830Y-34395
X44830Y-29395
X44830Y-37395
T5
X22500Y-44300
X59900Y-44300
X59900Y-29400
X22500Y-29400
T0
M30
