G04 #@! TF.GenerationSoftware,KiCad,Pcbnew,(5.0.0)*
G04 #@! TF.CreationDate,2020-02-24T01:00:23-08:00*
G04 #@! TF.ProjectId,PowerShuffler,506F77657253687566666C65722E6B69,rev?*
G04 #@! TF.SameCoordinates,Original*
G04 #@! TF.FileFunction,Soldermask,Top*
G04 #@! TF.FilePolarity,Negative*
%FSLAX46Y46*%
G04 Gerber Fmt 4.6, Leading zero omitted, Abs format (unit mm)*
G04 Created by KiCad (PCBNEW (5.0.0)) date 02/24/20 01:00:23*
%MOMM*%
%LPD*%
G01*
G04 APERTURE LIST*
%ADD10R,2.400000X3.000000*%
%ADD11O,2.400000X3.000000*%
%ADD12R,1.400000X2.000000*%
%ADD13R,1.800000X0.680000*%
%ADD14R,1.900000X2.000000*%
%ADD15R,1.900000X1.900000*%
%ADD16R,2.787600X2.457400*%
%ADD17R,2.000000X1.400000*%
%ADD18C,1.900000*%
%ADD19C,3.500000*%
%ADD20R,1.050000X1.960000*%
%ADD21R,1.960000X1.050000*%
%ADD22C,6.316000*%
%ADD23C,2.400000*%
%ADD24R,2.400000X2.400000*%
%ADD25R,2.000000X1.900000*%
%ADD26R,2.700000X5.500000*%
%ADD27R,2.600000X5.500000*%
%ADD28R,3.050000X2.430000*%
%ADD29R,2.100000X1.300000*%
%ADD30R,1.300000X2.100000*%
%ADD31C,1.466800*%
%ADD32C,1.619200*%
G04 APERTURE END LIST*
D10*
G04 #@! TO.C,J2*
X68237100Y-109385100D03*
D11*
X70777100Y-108785100D03*
X73317100Y-109385100D03*
X75857100Y-108785100D03*
X78397100Y-109385100D03*
G04 #@! TD*
D10*
G04 #@! TO.C,J4*
X136436100Y-95140500D03*
D11*
X133896100Y-95740500D03*
X131356100Y-95140500D03*
X128816100Y-95740500D03*
X126276100Y-95140500D03*
G04 #@! TD*
D12*
G04 #@! TO.C,C28*
X69838700Y-74904600D03*
X66838700Y-74904600D03*
G04 #@! TD*
D13*
G04 #@! TO.C,U6*
X135756700Y-81452400D03*
X135756700Y-81952400D03*
X135756700Y-82452400D03*
X135756700Y-82952400D03*
X135756700Y-83452400D03*
X131476700Y-83452400D03*
X131476700Y-82952400D03*
X131476700Y-82452400D03*
X131476700Y-81952400D03*
X131476700Y-81452400D03*
G04 #@! TD*
G04 #@! TO.C,U2*
X73679100Y-81363500D03*
X73679100Y-81863500D03*
X73679100Y-82363500D03*
X73679100Y-82863500D03*
X73679100Y-83363500D03*
X69399100Y-83363500D03*
X69399100Y-82863500D03*
X69399100Y-82363500D03*
X69399100Y-81863500D03*
X69399100Y-81363500D03*
G04 #@! TD*
D14*
G04 #@! TO.C,S1*
X92679632Y-106604059D03*
X95219632Y-106604059D03*
X95219632Y-112700059D03*
X92679632Y-112700059D03*
G04 #@! TD*
D15*
G04 #@! TO.C,D3*
X146278600Y-78408800D03*
X146278600Y-75108800D03*
G04 #@! TD*
G04 #@! TO.C,D2*
X124548900Y-103709200D03*
X124548900Y-107009200D03*
G04 #@! TD*
G04 #@! TO.C,D1*
X73671700Y-112928400D03*
X70371700Y-112928400D03*
G04 #@! TD*
D16*
G04 #@! TO.C,C26*
X88577532Y-99898459D03*
X88577532Y-106350059D03*
G04 #@! TD*
G04 #@! TO.C,C27*
X83776932Y-106350060D03*
X83776932Y-99898460D03*
G04 #@! TD*
D17*
G04 #@! TO.C,C25*
X81419700Y-81852900D03*
X81419700Y-78852900D03*
G04 #@! TD*
D15*
G04 #@! TO.C,J3*
X146405600Y-99259000D03*
D18*
X146405600Y-102259000D03*
D19*
X150725600Y-100759000D03*
G04 #@! TD*
D15*
G04 #@! TO.C,J1*
X62903100Y-103759000D03*
D18*
X62903100Y-100759000D03*
X62903100Y-97759000D03*
D19*
X58583100Y-100759000D03*
G04 #@! TD*
D20*
G04 #@! TO.C,U1*
X72946300Y-96160600D03*
X71996300Y-96160600D03*
X71046300Y-96160600D03*
X71046300Y-98860600D03*
X72946300Y-98860600D03*
G04 #@! TD*
D21*
G04 #@! TO.C,U8*
X139670800Y-100594200D03*
X139670800Y-98694200D03*
X142370800Y-98694200D03*
X142370800Y-99644200D03*
X142370800Y-100594200D03*
G04 #@! TD*
D22*
G04 #@! TO.C,MNT1*
X57150000Y-74676000D03*
G04 #@! TD*
G04 #@! TO.C,MNT2*
X152146000Y-74676000D03*
G04 #@! TD*
G04 #@! TO.C,MNT3*
X57150000Y-112522000D03*
G04 #@! TD*
G04 #@! TO.C,MNT4*
X152146000Y-112522000D03*
G04 #@! TD*
D23*
G04 #@! TO.C,U4*
X113868200Y-74663300D03*
X113868200Y-94983300D03*
X93548200Y-74663300D03*
X93548200Y-82283300D03*
D24*
X93548200Y-87363300D03*
G04 #@! TD*
D25*
G04 #@! TO.C,S2*
X101035500Y-111455200D03*
X101035500Y-108915200D03*
X111435500Y-108915200D03*
X111435500Y-111455200D03*
G04 #@! TD*
D26*
G04 #@! TO.C,L1*
X73675900Y-77000100D03*
D27*
X78275900Y-77000100D03*
G04 #@! TD*
D26*
G04 #@! TO.C,L2*
X135753500Y-77114400D03*
D27*
X140353500Y-77114400D03*
G04 #@! TD*
D12*
G04 #@! TO.C,C11*
X73902700Y-90919300D03*
X70902700Y-90919300D03*
G04 #@! TD*
D17*
G04 #@! TO.C,C24*
X134239000Y-105129200D03*
X134239000Y-108129200D03*
G04 #@! TD*
D12*
G04 #@! TO.C,C23*
X146264500Y-89852500D03*
X149264500Y-89852500D03*
G04 #@! TD*
G04 #@! TO.C,C22*
X136069200Y-88519000D03*
X133069200Y-88519000D03*
G04 #@! TD*
D17*
G04 #@! TO.C,C21*
X139623800Y-94933900D03*
X139623800Y-91933900D03*
G04 #@! TD*
D12*
G04 #@! TO.C,C18*
X128789300Y-108975650D03*
X131789300Y-108975650D03*
G04 #@! TD*
D17*
G04 #@! TO.C,C20*
X143560800Y-78941800D03*
X143560800Y-81941800D03*
G04 #@! TD*
D12*
G04 #@! TO.C,C19*
X128776600Y-111810800D03*
X131776600Y-111810800D03*
G04 #@! TD*
D17*
G04 #@! TO.C,C17*
X151968200Y-87479000D03*
X151968200Y-84479000D03*
G04 #@! TD*
D12*
G04 #@! TO.C,C16*
X139516681Y-103073200D03*
X142516681Y-103073200D03*
G04 #@! TD*
G04 #@! TO.C,C14*
X129259200Y-74853800D03*
X132259200Y-74853800D03*
G04 #@! TD*
G04 #@! TO.C,C13*
X129259200Y-77685900D03*
X132259200Y-77685900D03*
G04 #@! TD*
G04 #@! TO.C,C10*
X73902700Y-88201500D03*
X70902700Y-88201500D03*
G04 #@! TD*
G04 #@! TO.C,C9*
X78956950Y-93216393D03*
X81956950Y-93216393D03*
G04 #@! TD*
G04 #@! TO.C,C8*
X78956950Y-90701793D03*
X81956950Y-90701793D03*
G04 #@! TD*
D17*
G04 #@! TO.C,C7*
X79514700Y-105525700D03*
X79514700Y-102525700D03*
G04 #@! TD*
G04 #@! TO.C,C6*
X98044000Y-103811200D03*
X98044000Y-100811200D03*
G04 #@! TD*
G04 #@! TO.C,C5*
X95224600Y-103811200D03*
X95224600Y-100811200D03*
G04 #@! TD*
D12*
G04 #@! TO.C,C4*
X68362700Y-101993700D03*
X71362700Y-101993700D03*
G04 #@! TD*
G04 #@! TO.C,C1*
X66826000Y-77698600D03*
X69826000Y-77698600D03*
G04 #@! TD*
D17*
G04 #@! TO.C,C3*
X68440300Y-96140400D03*
X68440300Y-93140400D03*
G04 #@! TD*
D12*
G04 #@! TO.C,C15*
X139520800Y-105485581D03*
X142520800Y-105485581D03*
G04 #@! TD*
D17*
G04 #@! TO.C,C2*
X92666932Y-103811459D03*
X92666932Y-100811459D03*
G04 #@! TD*
D12*
G04 #@! TO.C,C12*
X73902700Y-93433900D03*
X70902700Y-93433900D03*
G04 #@! TD*
D28*
G04 #@! TO.C,F1*
X70479500Y-104952800D03*
X66299500Y-104952800D03*
G04 #@! TD*
G04 #@! TO.C,F2*
X151035600Y-92964000D03*
X146855600Y-92964000D03*
G04 #@! TD*
D29*
G04 #@! TO.C,R3*
X65902500Y-100967200D03*
X65902500Y-98067200D03*
G04 #@! TD*
D30*
G04 #@! TO.C,R20*
X133106500Y-85826600D03*
X136006500Y-85826600D03*
G04 #@! TD*
D29*
G04 #@! TO.C,R21*
X139852400Y-83449500D03*
X139852400Y-86349500D03*
G04 #@! TD*
G04 #@! TO.C,R22*
X134239000Y-99819800D03*
X134239000Y-102719800D03*
G04 #@! TD*
G04 #@! TO.C,R13*
X125742700Y-82285500D03*
X125742700Y-79385500D03*
G04 #@! TD*
G04 #@! TO.C,R23*
X136804400Y-105128400D03*
X136804400Y-108028400D03*
G04 #@! TD*
G04 #@! TO.C,R19*
X142595600Y-94934700D03*
X142595600Y-92034700D03*
G04 #@! TD*
G04 #@! TO.C,R18*
X146278600Y-83428500D03*
X146278600Y-80528500D03*
G04 #@! TD*
D30*
G04 #@! TO.C,R17*
X127446700Y-101053900D03*
X124546700Y-101053900D03*
G04 #@! TD*
D29*
G04 #@! TO.C,R16*
X129527300Y-88000500D03*
X129527300Y-85100500D03*
G04 #@! TD*
G04 #@! TO.C,R15*
X126441200Y-88000500D03*
X126441200Y-85100500D03*
G04 #@! TD*
D30*
G04 #@! TO.C,R14*
X117604200Y-111455200D03*
X114704200Y-111455200D03*
G04 #@! TD*
D29*
G04 #@! TO.C,R4*
X65900300Y-96141200D03*
X65900300Y-93241200D03*
G04 #@! TD*
G04 #@! TO.C,R5*
X66573400Y-88559300D03*
X66573400Y-85659300D03*
G04 #@! TD*
G04 #@! TO.C,R6*
X75476100Y-105526500D03*
X75476100Y-102626500D03*
G04 #@! TD*
D30*
G04 #@! TO.C,R7*
X89608432Y-112700059D03*
X86708432Y-112700059D03*
G04 #@! TD*
D29*
G04 #@! TO.C,R12*
X148971000Y-80515800D03*
X148971000Y-83415800D03*
G04 #@! TD*
D30*
G04 #@! TO.C,R9*
X71003500Y-85509100D03*
X73903500Y-85509100D03*
G04 #@! TD*
D29*
G04 #@! TO.C,R10*
X77736700Y-83386000D03*
X77736700Y-86286000D03*
G04 #@! TD*
G04 #@! TO.C,R11*
X98298000Y-111813000D03*
X98298000Y-108913000D03*
G04 #@! TD*
G04 #@! TO.C,R1*
X61633100Y-82056900D03*
X61633100Y-79156900D03*
G04 #@! TD*
G04 #@! TO.C,R2*
X63601600Y-88559300D03*
X63601600Y-85659300D03*
G04 #@! TD*
D30*
G04 #@! TO.C,R8*
X76096200Y-112928400D03*
X78996200Y-112928400D03*
G04 #@! TD*
D21*
G04 #@! TO.C,U5*
X146274800Y-85575100D03*
X146274800Y-86525100D03*
X146274800Y-87475100D03*
X148974800Y-87475100D03*
X148974800Y-85575100D03*
G04 #@! TD*
D20*
G04 #@! TO.C,U3*
X78008350Y-98858993D03*
X78958350Y-98858993D03*
X79908350Y-98858993D03*
X79908350Y-96158993D03*
X78008350Y-96158993D03*
X78958350Y-96158993D03*
G04 #@! TD*
G04 #@! TO.C,U7*
X129572543Y-103752150D03*
X128622543Y-103752150D03*
X127672543Y-103752150D03*
X127672543Y-106452150D03*
X129572543Y-106452150D03*
X128622543Y-106452150D03*
G04 #@! TD*
D31*
X69011800Y-87350600D03*
X81280000Y-77038200D03*
X76479400Y-91846400D03*
X81280000Y-74447400D03*
X71577200Y-81635600D03*
X71475600Y-83134200D03*
X69189600Y-89839800D03*
X100965000Y-113842800D03*
X88468200Y-95300800D03*
X95554800Y-95300800D03*
X100584000Y-73609200D03*
X56286400Y-79070200D03*
X61569600Y-73583800D03*
X56464200Y-106629200D03*
X60426600Y-109245400D03*
X85140800Y-74244200D03*
X73380600Y-103860600D03*
X79375000Y-100838000D03*
X83743800Y-110947200D03*
X139509500Y-107784900D03*
X148412200Y-76784200D03*
X151942800Y-89154000D03*
D32*
X129794000Y-80010000D03*
D31*
X140843000Y-88112600D03*
X113157000Y-113639600D03*
X114096800Y-108686600D03*
X117678200Y-98704400D03*
X117475000Y-85902800D03*
X152755600Y-79044800D03*
X135432800Y-113182400D03*
X147142200Y-113080800D03*
X151892000Y-107569000D03*
X125704600Y-73304400D03*
X133629400Y-81711800D03*
X133629400Y-83159600D03*
X144043400Y-96901000D03*
X126365000Y-112687100D03*
X131394200Y-86499700D03*
X119913400Y-111429800D03*
X143586200Y-77165200D03*
X142824200Y-74498200D03*
X131381500Y-106452150D03*
X81457800Y-96901000D03*
X100076000Y-106743500D03*
X76454000Y-96164400D03*
X95224600Y-110540800D03*
X66586100Y-80048100D03*
D32*
X68364100Y-99517200D03*
D31*
X78816200Y-88087200D03*
D32*
X81572100Y-109093000D03*
M02*
