G04 #@! TF.GenerationSoftware,KiCad,Pcbnew,(5.0.0)*
G04 #@! TF.CreationDate,2020-02-24T01:00:23-08:00*
G04 #@! TF.ProjectId,PowerShuffler,506F77657253687566666C65722E6B69,rev?*
G04 #@! TF.SameCoordinates,Original*
G04 #@! TF.FileFunction,Legend,Top*
G04 #@! TF.FilePolarity,Positive*
%FSLAX46Y46*%
G04 Gerber Fmt 4.6, Leading zero omitted, Abs format (unit mm)*
G04 Created by KiCad (PCBNEW (5.0.0)) date 02/24/20 01:00:23*
%MOMM*%
%LPD*%
G01*
G04 APERTURE LIST*
%ADD10C,0.254000*%
%ADD11C,0.300000*%
%ADD12C,0.279400*%
%ADD13C,0.120000*%
%ADD14C,0.150000*%
%ADD15C,0.400000*%
%ADD16C,0.600000*%
%ADD17C,0.203200*%
G04 APERTURE END LIST*
D10*
X135868228Y-92247357D02*
X137029371Y-92247357D01*
X136448800Y-92827928D02*
X136448800Y-91666785D01*
X130775528Y-92729957D02*
X131936671Y-92729957D01*
X64989528Y-108325557D02*
X66150671Y-108325557D01*
X65570100Y-108906128D02*
X65570100Y-107744985D01*
X72736528Y-106445957D02*
X73897671Y-106445957D01*
D11*
X61208114Y-113637142D02*
X61422400Y-113708571D01*
X61779542Y-113708571D01*
X61922400Y-113637142D01*
X61993828Y-113565714D01*
X62065257Y-113422857D01*
X62065257Y-113280000D01*
X61993828Y-113137142D01*
X61922400Y-113065714D01*
X61779542Y-112994285D01*
X61493828Y-112922857D01*
X61350971Y-112851428D01*
X61279542Y-112780000D01*
X61208114Y-112637142D01*
X61208114Y-112494285D01*
X61279542Y-112351428D01*
X61350971Y-112280000D01*
X61493828Y-112208571D01*
X61850971Y-112208571D01*
X62065257Y-112280000D01*
X62493828Y-112208571D02*
X63350971Y-112208571D01*
X62922400Y-113708571D02*
X62922400Y-112208571D01*
X63779542Y-113280000D02*
X64493828Y-113280000D01*
X63636685Y-113708571D02*
X64136685Y-112208571D01*
X64636685Y-113708571D01*
X64922400Y-112208571D02*
X65779542Y-112208571D01*
X65350971Y-113708571D02*
X65350971Y-112208571D01*
X66279542Y-112208571D02*
X66279542Y-113422857D01*
X66350971Y-113565714D01*
X66422400Y-113637142D01*
X66565257Y-113708571D01*
X66850971Y-113708571D01*
X66993828Y-113637142D01*
X67065257Y-113565714D01*
X67136685Y-113422857D01*
X67136685Y-112208571D01*
X67779542Y-113637142D02*
X67993828Y-113708571D01*
X68350971Y-113708571D01*
X68493828Y-113637142D01*
X68565257Y-113565714D01*
X68636685Y-113422857D01*
X68636685Y-113280000D01*
X68565257Y-113137142D01*
X68493828Y-113065714D01*
X68350971Y-112994285D01*
X68065257Y-112922857D01*
X67922400Y-112851428D01*
X67850971Y-112780000D01*
X67779542Y-112637142D01*
X67779542Y-112494285D01*
X67850971Y-112351428D01*
X67922400Y-112280000D01*
X68065257Y-112208571D01*
X68422400Y-112208571D01*
X68636685Y-112280000D01*
X114063200Y-106549000D02*
X114777485Y-106549000D01*
X113920342Y-106977571D02*
X114420342Y-105477571D01*
X114920342Y-106977571D01*
X116277485Y-106834714D02*
X116206057Y-106906142D01*
X115991771Y-106977571D01*
X115848914Y-106977571D01*
X115634628Y-106906142D01*
X115491771Y-106763285D01*
X115420342Y-106620428D01*
X115348914Y-106334714D01*
X115348914Y-106120428D01*
X115420342Y-105834714D01*
X115491771Y-105691857D01*
X115634628Y-105549000D01*
X115848914Y-105477571D01*
X115991771Y-105477571D01*
X116206057Y-105549000D01*
X116277485Y-105620428D01*
X116706057Y-105477571D02*
X117563200Y-105477571D01*
X117134628Y-106977571D02*
X117134628Y-105477571D01*
X118063200Y-106977571D02*
X118063200Y-105477571D01*
X118563200Y-105477571D02*
X119063200Y-106977571D01*
X119563200Y-105477571D01*
X120063200Y-106977571D02*
X120063200Y-105477571D01*
X120563200Y-105477571D02*
X121420342Y-105477571D01*
X120991771Y-106977571D02*
X120991771Y-105477571D01*
X122206057Y-106263285D02*
X122206057Y-106977571D01*
X121706057Y-105477571D02*
X122206057Y-106263285D01*
X122706057Y-105477571D01*
D10*
X138576352Y-73326171D02*
X138515876Y-73386647D01*
X138334447Y-73447123D01*
X138213495Y-73447123D01*
X138032066Y-73386647D01*
X137911114Y-73265695D01*
X137850638Y-73144742D01*
X137790161Y-72902838D01*
X137790161Y-72721409D01*
X137850638Y-72479504D01*
X137911114Y-72358552D01*
X138032066Y-72237600D01*
X138213495Y-72177123D01*
X138334447Y-72177123D01*
X138515876Y-72237600D01*
X138576352Y-72298076D01*
X139120638Y-73447123D02*
X139120638Y-72177123D01*
X139120638Y-72781885D02*
X139846352Y-72781885D01*
X139846352Y-73447123D02*
X139846352Y-72177123D01*
X140390638Y-73084266D02*
X140995400Y-73084266D01*
X140269685Y-73447123D02*
X140693019Y-72177123D01*
X141116352Y-73447123D01*
X142265400Y-73447123D02*
X141842066Y-72842361D01*
X141539685Y-73447123D02*
X141539685Y-72177123D01*
X142023495Y-72177123D01*
X142144447Y-72237600D01*
X142204923Y-72298076D01*
X142265400Y-72419028D01*
X142265400Y-72600457D01*
X142204923Y-72721409D01*
X142144447Y-72781885D01*
X142023495Y-72842361D01*
X141539685Y-72842361D01*
X143474923Y-72237600D02*
X143353971Y-72177123D01*
X143172542Y-72177123D01*
X142991114Y-72237600D01*
X142870161Y-72358552D01*
X142809685Y-72479504D01*
X142749209Y-72721409D01*
X142749209Y-72902838D01*
X142809685Y-73144742D01*
X142870161Y-73265695D01*
X142991114Y-73386647D01*
X143172542Y-73447123D01*
X143293495Y-73447123D01*
X143474923Y-73386647D01*
X143535400Y-73326171D01*
X143535400Y-72902838D01*
X143293495Y-72902838D01*
X144079685Y-73447123D02*
X144079685Y-72177123D01*
X144684447Y-73447123D02*
X144684447Y-72177123D01*
X145410161Y-73447123D01*
X145410161Y-72177123D01*
X146680161Y-72237600D02*
X146559209Y-72177123D01*
X146377780Y-72177123D01*
X146196352Y-72237600D01*
X146075400Y-72358552D01*
X146014923Y-72479504D01*
X145954447Y-72721409D01*
X145954447Y-72902838D01*
X146014923Y-73144742D01*
X146075400Y-73265695D01*
X146196352Y-73386647D01*
X146377780Y-73447123D01*
X146498733Y-73447123D01*
X146680161Y-73386647D01*
X146740638Y-73326171D01*
X146740638Y-72902838D01*
X146498733Y-72902838D01*
D12*
X102020914Y-102485371D02*
X102093485Y-102412800D01*
X102238628Y-102340228D01*
X102601485Y-102340228D01*
X102746628Y-102412800D01*
X102819200Y-102485371D01*
X102891771Y-102630514D01*
X102891771Y-102775657D01*
X102819200Y-102993371D01*
X101948342Y-103864228D01*
X102891771Y-103864228D01*
X103835200Y-102340228D02*
X103980342Y-102340228D01*
X104125485Y-102412800D01*
X104198057Y-102485371D01*
X104270628Y-102630514D01*
X104343200Y-102920800D01*
X104343200Y-103283657D01*
X104270628Y-103573942D01*
X104198057Y-103719085D01*
X104125485Y-103791657D01*
X103980342Y-103864228D01*
X103835200Y-103864228D01*
X103690057Y-103791657D01*
X103617485Y-103719085D01*
X103544914Y-103573942D01*
X103472342Y-103283657D01*
X103472342Y-102920800D01*
X103544914Y-102630514D01*
X103617485Y-102485371D01*
X103690057Y-102412800D01*
X103835200Y-102340228D01*
X104923771Y-102485371D02*
X104996342Y-102412800D01*
X105141485Y-102340228D01*
X105504342Y-102340228D01*
X105649485Y-102412800D01*
X105722057Y-102485371D01*
X105794628Y-102630514D01*
X105794628Y-102775657D01*
X105722057Y-102993371D01*
X104851200Y-103864228D01*
X105794628Y-103864228D01*
X106738057Y-102340228D02*
X106883200Y-102340228D01*
X107028342Y-102412800D01*
X107100914Y-102485371D01*
X107173485Y-102630514D01*
X107246057Y-102920800D01*
X107246057Y-103283657D01*
X107173485Y-103573942D01*
X107100914Y-103719085D01*
X107028342Y-103791657D01*
X106883200Y-103864228D01*
X106738057Y-103864228D01*
X106592914Y-103791657D01*
X106520342Y-103719085D01*
X106447771Y-103573942D01*
X106375200Y-103283657D01*
X106375200Y-102920800D01*
X106447771Y-102630514D01*
X106520342Y-102485371D01*
X106592914Y-102412800D01*
X106738057Y-102340228D01*
X108189485Y-102340228D02*
X108334628Y-102340228D01*
X108479771Y-102412800D01*
X108552342Y-102485371D01*
X108624914Y-102630514D01*
X108697485Y-102920800D01*
X108697485Y-103283657D01*
X108624914Y-103573942D01*
X108552342Y-103719085D01*
X108479771Y-103791657D01*
X108334628Y-103864228D01*
X108189485Y-103864228D01*
X108044342Y-103791657D01*
X107971771Y-103719085D01*
X107899200Y-103573942D01*
X107826628Y-103283657D01*
X107826628Y-102920800D01*
X107899200Y-102630514D01*
X107971771Y-102485371D01*
X108044342Y-102412800D01*
X108189485Y-102340228D01*
X109278057Y-102485371D02*
X109350628Y-102412800D01*
X109495771Y-102340228D01*
X109858628Y-102340228D01*
X110003771Y-102412800D01*
X110076342Y-102485371D01*
X110148914Y-102630514D01*
X110148914Y-102775657D01*
X110076342Y-102993371D01*
X109205485Y-103864228D01*
X110148914Y-103864228D01*
X111600342Y-103864228D02*
X110729485Y-103864228D01*
X111164914Y-103864228D02*
X111164914Y-102340228D01*
X111019771Y-102557942D01*
X110874628Y-102703085D01*
X110729485Y-102775657D01*
X112543771Y-102340228D02*
X112688914Y-102340228D01*
X112834057Y-102412800D01*
X112906628Y-102485371D01*
X112979200Y-102630514D01*
X113051771Y-102920800D01*
X113051771Y-103283657D01*
X112979200Y-103573942D01*
X112906628Y-103719085D01*
X112834057Y-103791657D01*
X112688914Y-103864228D01*
X112543771Y-103864228D01*
X112398628Y-103791657D01*
X112326057Y-103719085D01*
X112253485Y-103573942D01*
X112180914Y-103283657D01*
X112180914Y-102920800D01*
X112253485Y-102630514D01*
X112326057Y-102485371D01*
X112398628Y-102412800D01*
X112543771Y-102340228D01*
X115736914Y-103864228D02*
X115228914Y-103138514D01*
X114866057Y-103864228D02*
X114866057Y-102340228D01*
X115446628Y-102340228D01*
X115591771Y-102412800D01*
X115664342Y-102485371D01*
X115736914Y-102630514D01*
X115736914Y-102848228D01*
X115664342Y-102993371D01*
X115591771Y-103065942D01*
X115446628Y-103138514D01*
X114866057Y-103138514D01*
X116390057Y-103065942D02*
X116898057Y-103065942D01*
X117115771Y-103864228D02*
X116390057Y-103864228D01*
X116390057Y-102340228D01*
X117115771Y-102340228D01*
X117551199Y-102340228D02*
X118059199Y-103864228D01*
X118567200Y-102340228D01*
X120163771Y-103428800D02*
X120889485Y-103428800D01*
X120018628Y-103864228D02*
X120526628Y-102340228D01*
X121034628Y-103864228D01*
X101955600Y-101057528D02*
X101955600Y-99533528D01*
X102536171Y-99533528D01*
X102681314Y-99606100D01*
X102753885Y-99678671D01*
X102826457Y-99823814D01*
X102826457Y-100041528D01*
X102753885Y-100186671D01*
X102681314Y-100259242D01*
X102536171Y-100331814D01*
X101955600Y-100331814D01*
X103697314Y-101057528D02*
X103552171Y-100984957D01*
X103479600Y-100912385D01*
X103407028Y-100767242D01*
X103407028Y-100331814D01*
X103479600Y-100186671D01*
X103552171Y-100114100D01*
X103697314Y-100041528D01*
X103915028Y-100041528D01*
X104060171Y-100114100D01*
X104132742Y-100186671D01*
X104205314Y-100331814D01*
X104205314Y-100767242D01*
X104132742Y-100912385D01*
X104060171Y-100984957D01*
X103915028Y-101057528D01*
X103697314Y-101057528D01*
X104713314Y-100041528D02*
X105003600Y-101057528D01*
X105293885Y-100331814D01*
X105584171Y-101057528D01*
X105874457Y-100041528D01*
X107035600Y-100984957D02*
X106890457Y-101057528D01*
X106600171Y-101057528D01*
X106455028Y-100984957D01*
X106382457Y-100839814D01*
X106382457Y-100259242D01*
X106455028Y-100114100D01*
X106600171Y-100041528D01*
X106890457Y-100041528D01*
X107035600Y-100114100D01*
X107108171Y-100259242D01*
X107108171Y-100404385D01*
X106382457Y-100549528D01*
X107761314Y-101057528D02*
X107761314Y-100041528D01*
X107761314Y-100331814D02*
X107833885Y-100186671D01*
X107906457Y-100114100D01*
X108051600Y-100041528D01*
X108196742Y-100041528D01*
X108632171Y-100984957D02*
X108849885Y-101057528D01*
X109212742Y-101057528D01*
X109357885Y-100984957D01*
X109430457Y-100912385D01*
X109503028Y-100767242D01*
X109503028Y-100622100D01*
X109430457Y-100476957D01*
X109357885Y-100404385D01*
X109212742Y-100331814D01*
X108922457Y-100259242D01*
X108777314Y-100186671D01*
X108704742Y-100114100D01*
X108632171Y-99968957D01*
X108632171Y-99823814D01*
X108704742Y-99678671D01*
X108777314Y-99606100D01*
X108922457Y-99533528D01*
X109285314Y-99533528D01*
X109503028Y-99606100D01*
X110156171Y-101057528D02*
X110156171Y-99533528D01*
X110809314Y-101057528D02*
X110809314Y-100259242D01*
X110736742Y-100114100D01*
X110591600Y-100041528D01*
X110373885Y-100041528D01*
X110228742Y-100114100D01*
X110156171Y-100186671D01*
X112188171Y-100041528D02*
X112188171Y-101057528D01*
X111535028Y-100041528D02*
X111535028Y-100839814D01*
X111607600Y-100984957D01*
X111752742Y-101057528D01*
X111970457Y-101057528D01*
X112115600Y-100984957D01*
X112188171Y-100912385D01*
X112696171Y-100041528D02*
X113276742Y-100041528D01*
X112913885Y-101057528D02*
X112913885Y-99751242D01*
X112986457Y-99606100D01*
X113131600Y-99533528D01*
X113276742Y-99533528D01*
X113567028Y-100041528D02*
X114147600Y-100041528D01*
X113784742Y-101057528D02*
X113784742Y-99751242D01*
X113857314Y-99606100D01*
X114002457Y-99533528D01*
X114147600Y-99533528D01*
X114873314Y-101057528D02*
X114728171Y-100984957D01*
X114655600Y-100839814D01*
X114655600Y-99533528D01*
X116034457Y-100984957D02*
X115889314Y-101057528D01*
X115599028Y-101057528D01*
X115453885Y-100984957D01*
X115381314Y-100839814D01*
X115381314Y-100259242D01*
X115453885Y-100114100D01*
X115599028Y-100041528D01*
X115889314Y-100041528D01*
X116034457Y-100114100D01*
X116107028Y-100259242D01*
X116107028Y-100404385D01*
X115381314Y-100549528D01*
X116760171Y-101057528D02*
X116760171Y-100041528D01*
X116760171Y-100331814D02*
X116832742Y-100186671D01*
X116905314Y-100114100D01*
X117050457Y-100041528D01*
X117195600Y-100041528D01*
X119663028Y-101057528D02*
X118792171Y-101057528D01*
X119227600Y-101057528D02*
X119227600Y-99533528D01*
X119082457Y-99751242D01*
X118937314Y-99896385D01*
X118792171Y-99968957D01*
X120316171Y-100912385D02*
X120388742Y-100984957D01*
X120316171Y-101057528D01*
X120243600Y-100984957D01*
X120316171Y-100912385D01*
X120316171Y-101057528D01*
X121332171Y-99533528D02*
X121477314Y-99533528D01*
X121622457Y-99606100D01*
X121695028Y-99678671D01*
X121767600Y-99823814D01*
X121840171Y-100114100D01*
X121840171Y-100476957D01*
X121767600Y-100767242D01*
X121695028Y-100912385D01*
X121622457Y-100984957D01*
X121477314Y-101057528D01*
X121332171Y-101057528D01*
X121187028Y-100984957D01*
X121114457Y-100912385D01*
X121041885Y-100767242D01*
X120969314Y-100476957D01*
X120969314Y-100114100D01*
X121041885Y-99823814D01*
X121114457Y-99678671D01*
X121187028Y-99606100D01*
X121332171Y-99533528D01*
D13*
G04 #@! TO.C,J2*
X66767100Y-106965100D02*
X66767100Y-111165100D01*
X66767100Y-111165100D02*
X79867100Y-111165100D01*
X79867100Y-111165100D02*
X79867100Y-106965100D01*
X79867100Y-106965100D02*
X66767100Y-106965100D01*
G04 #@! TO.C,J4*
X137906100Y-97560500D02*
X137906100Y-93360500D01*
X137906100Y-93360500D02*
X124806100Y-93360500D01*
X124806100Y-93360500D02*
X124806100Y-97560500D01*
X124806100Y-97560500D02*
X137906100Y-97560500D01*
G04 #@! TO.C,C28*
X67338700Y-75924600D02*
X69338700Y-75924600D01*
X69338700Y-73884600D02*
X67338700Y-73884600D01*
D14*
G04 #@! TO.C,U6*
X134716700Y-80952400D02*
X132516700Y-80952400D01*
X132516700Y-80952400D02*
X132516700Y-83952400D01*
X132516700Y-83952400D02*
X134716700Y-83952400D01*
X134716700Y-83952400D02*
X134716700Y-80952400D01*
D15*
X131586700Y-80612400D02*
G75*
G03X131586700Y-80612400I-50000J0D01*
G01*
D14*
G04 #@! TO.C,U2*
X72639100Y-80863500D02*
X70439100Y-80863500D01*
X70439100Y-80863500D02*
X70439100Y-83863500D01*
X70439100Y-83863500D02*
X72639100Y-83863500D01*
X72639100Y-83863500D02*
X72639100Y-80863500D01*
D15*
X69509100Y-80523500D02*
G75*
G03X69509100Y-80523500I-50000J0D01*
G01*
D14*
G04 #@! TO.C,S1*
X91449632Y-111402059D02*
X96449632Y-111402059D01*
X96449632Y-111402059D02*
X96449632Y-107902059D01*
X96449632Y-107902059D02*
X91449632Y-107902059D01*
X91449632Y-107902059D02*
X91449632Y-111402059D01*
X91449632Y-110652059D02*
X96449632Y-110652059D01*
D16*
X91219632Y-112592059D02*
G75*
G03X91219632Y-112592059I-50000J0D01*
G01*
D13*
G04 #@! TO.C,D3*
X145428600Y-79208800D02*
X145428600Y-75158800D01*
X147128600Y-79208800D02*
X147128600Y-75158800D01*
X145428600Y-79258800D02*
X147128600Y-79258800D01*
G04 #@! TO.C,D2*
X123698900Y-107859200D02*
X125398900Y-107859200D01*
X125398900Y-107809200D02*
X125398900Y-103759200D01*
X123698900Y-107809200D02*
X123698900Y-103759200D01*
G04 #@! TO.C,D1*
X69521700Y-112078400D02*
X69521700Y-113778400D01*
X69571700Y-113778400D02*
X73621700Y-113778400D01*
X69571700Y-112078400D02*
X73621700Y-112078400D01*
D17*
G04 #@! TO.C,C26*
X86443932Y-99492059D02*
X87002732Y-99492059D01*
X90152332Y-106756459D02*
X90711132Y-106756459D01*
X90711132Y-99492059D02*
X90711132Y-106756459D01*
X86443932Y-104470459D02*
X90711132Y-104470459D01*
X86443932Y-104267259D02*
X90711132Y-104267259D01*
X86443932Y-106756459D02*
X87002732Y-106756459D01*
X86443932Y-99492059D02*
X86443932Y-106756459D01*
X90152332Y-99492059D02*
X90711132Y-99492059D01*
G04 #@! TO.C,C27*
X85351732Y-99492060D02*
X85910532Y-99492060D01*
X81643332Y-99492060D02*
X81643332Y-106756460D01*
X81643332Y-106756460D02*
X82202132Y-106756460D01*
X81643332Y-104267260D02*
X85910532Y-104267260D01*
X81643332Y-104470460D02*
X85910532Y-104470460D01*
X85910532Y-99492060D02*
X85910532Y-106756460D01*
X85351732Y-106756460D02*
X85910532Y-106756460D01*
X81643332Y-99492060D02*
X82202132Y-99492060D01*
D13*
G04 #@! TO.C,C25*
X80399700Y-79352900D02*
X80399700Y-81352900D01*
X82439700Y-81352900D02*
X82439700Y-79352900D01*
D10*
G04 #@! TO.C,J3*
X155405600Y-106259000D02*
X145555600Y-106259000D01*
X145555600Y-95259000D02*
X155405600Y-95259000D01*
X155405600Y-95259000D02*
X155405600Y-106259000D01*
G04 #@! TO.C,J1*
X53903100Y-93759000D02*
X63753100Y-93759000D01*
X63753100Y-107759000D02*
X53903100Y-107759000D01*
X53903100Y-107759000D02*
X53903100Y-93759000D01*
D13*
G04 #@! TO.C,U1*
X70386300Y-96610600D02*
X70386300Y-98410600D01*
X73606300Y-98410600D02*
X73606300Y-95960600D01*
G04 #@! TO.C,U8*
X140120800Y-101254200D02*
X142570800Y-101254200D01*
X141920800Y-98034200D02*
X140120800Y-98034200D01*
D14*
G04 #@! TO.C,U4*
X83388200Y-97523300D02*
X83388200Y-72123300D01*
X83388200Y-72123300D02*
X124028200Y-72123300D01*
X124028200Y-72123300D02*
X124028200Y-97523300D01*
X124028200Y-97523300D02*
X83388200Y-97523300D01*
G04 #@! TO.C,S2*
X109735500Y-112685200D02*
X109735500Y-107685200D01*
X109735500Y-107685200D02*
X102735500Y-107685200D01*
X102735500Y-107685200D02*
X102735500Y-112685200D01*
X102735500Y-112685200D02*
X109735500Y-112685200D01*
X108735500Y-112685200D02*
X108735500Y-107685200D01*
D16*
X113270500Y-111505200D02*
G75*
G03X113270500Y-111505200I-50000J0D01*
G01*
D14*
X109735500Y-110935200D02*
X110485500Y-110935200D01*
X110485500Y-111685200D02*
X109735500Y-111685200D01*
X110485500Y-109435200D02*
X109735500Y-109435200D01*
X110485500Y-108685200D02*
X109735500Y-108685200D01*
X102735500Y-109435200D02*
X101985500Y-109435200D01*
X101985500Y-108685200D02*
X102735500Y-108685200D01*
X102735500Y-110935200D02*
X101985500Y-110935200D01*
X101985500Y-111685200D02*
X102735500Y-111685200D01*
D10*
G04 #@! TO.C,L1*
X72975900Y-80000100D02*
X78975900Y-80000100D01*
X72975900Y-74000100D02*
X78975900Y-74000100D01*
G04 #@! TO.C,L2*
X135053500Y-80114400D02*
X141053500Y-80114400D01*
X135053500Y-74114400D02*
X141053500Y-74114400D01*
D13*
G04 #@! TO.C,C11*
X71402700Y-91939300D02*
X73402700Y-91939300D01*
X73402700Y-89899300D02*
X71402700Y-89899300D01*
G04 #@! TO.C,C24*
X135259000Y-107629200D02*
X135259000Y-105629200D01*
X133219000Y-105629200D02*
X133219000Y-107629200D01*
G04 #@! TO.C,C23*
X148764500Y-88832500D02*
X146764500Y-88832500D01*
X146764500Y-90872500D02*
X148764500Y-90872500D01*
G04 #@! TO.C,C22*
X133569200Y-89539000D02*
X135569200Y-89539000D01*
X135569200Y-87499000D02*
X133569200Y-87499000D01*
G04 #@! TO.C,C21*
X138603800Y-92433900D02*
X138603800Y-94433900D01*
X140643800Y-94433900D02*
X140643800Y-92433900D01*
G04 #@! TO.C,C18*
X131289300Y-107955650D02*
X129289300Y-107955650D01*
X129289300Y-109995650D02*
X131289300Y-109995650D01*
G04 #@! TO.C,C20*
X144580800Y-81441800D02*
X144580800Y-79441800D01*
X142540800Y-79441800D02*
X142540800Y-81441800D01*
G04 #@! TO.C,C19*
X131276600Y-110790800D02*
X129276600Y-110790800D01*
X129276600Y-112830800D02*
X131276600Y-112830800D01*
G04 #@! TO.C,C17*
X150948200Y-84979000D02*
X150948200Y-86979000D01*
X152988200Y-86979000D02*
X152988200Y-84979000D01*
G04 #@! TO.C,C16*
X142016681Y-102053200D02*
X140016681Y-102053200D01*
X140016681Y-104093200D02*
X142016681Y-104093200D01*
G04 #@! TO.C,C14*
X131759200Y-73833800D02*
X129759200Y-73833800D01*
X129759200Y-75873800D02*
X131759200Y-75873800D01*
G04 #@! TO.C,C13*
X131759200Y-76665900D02*
X129759200Y-76665900D01*
X129759200Y-78705900D02*
X131759200Y-78705900D01*
G04 #@! TO.C,C10*
X71402700Y-89221500D02*
X73402700Y-89221500D01*
X73402700Y-87181500D02*
X71402700Y-87181500D01*
G04 #@! TO.C,C9*
X81456950Y-92196393D02*
X79456950Y-92196393D01*
X79456950Y-94236393D02*
X81456950Y-94236393D01*
G04 #@! TO.C,C8*
X81456950Y-89681793D02*
X79456950Y-89681793D01*
X79456950Y-91721793D02*
X81456950Y-91721793D01*
G04 #@! TO.C,C7*
X78494700Y-103025700D02*
X78494700Y-105025700D01*
X80534700Y-105025700D02*
X80534700Y-103025700D01*
G04 #@! TO.C,C6*
X97024000Y-101311200D02*
X97024000Y-103311200D01*
X99064000Y-103311200D02*
X99064000Y-101311200D01*
G04 #@! TO.C,C5*
X94204600Y-101311200D02*
X94204600Y-103311200D01*
X96244600Y-103311200D02*
X96244600Y-101311200D01*
G04 #@! TO.C,C4*
X70862700Y-100973700D02*
X68862700Y-100973700D01*
X68862700Y-103013700D02*
X70862700Y-103013700D01*
G04 #@! TO.C,C1*
X69326000Y-76678600D02*
X67326000Y-76678600D01*
X67326000Y-78718600D02*
X69326000Y-78718600D01*
G04 #@! TO.C,C3*
X67420300Y-93640400D02*
X67420300Y-95640400D01*
X69460300Y-95640400D02*
X69460300Y-93640400D01*
G04 #@! TO.C,C15*
X142020800Y-104465581D02*
X140020800Y-104465581D01*
X140020800Y-106505581D02*
X142020800Y-106505581D01*
G04 #@! TO.C,C2*
X91646932Y-101311459D02*
X91646932Y-103311459D01*
X93686932Y-103311459D02*
X93686932Y-101311459D01*
G04 #@! TO.C,C12*
X71402700Y-94453900D02*
X73402700Y-94453900D01*
X73402700Y-92413900D02*
X71402700Y-92413900D01*
G04 #@! TO.C,F1*
X67389500Y-103882800D02*
X69389500Y-103882800D01*
X69389500Y-106022800D02*
X67389500Y-106022800D01*
G04 #@! TO.C,F2*
X147945600Y-91894000D02*
X149945600Y-91894000D01*
X149945600Y-94034000D02*
X147945600Y-94034000D01*
G04 #@! TO.C,R3*
X66972500Y-98517200D02*
X66972500Y-100517200D01*
X64832500Y-100517200D02*
X64832500Y-98517200D01*
G04 #@! TO.C,R20*
X135556500Y-86896600D02*
X133556500Y-86896600D01*
X133556500Y-84756600D02*
X135556500Y-84756600D01*
G04 #@! TO.C,R21*
X138782400Y-85899500D02*
X138782400Y-83899500D01*
X140922400Y-83899500D02*
X140922400Y-85899500D01*
G04 #@! TO.C,R22*
X133169000Y-102269800D02*
X133169000Y-100269800D01*
X135309000Y-100269800D02*
X135309000Y-102269800D01*
G04 #@! TO.C,R13*
X126812700Y-79835500D02*
X126812700Y-81835500D01*
X124672700Y-81835500D02*
X124672700Y-79835500D01*
G04 #@! TO.C,R23*
X135734400Y-107578400D02*
X135734400Y-105578400D01*
X137874400Y-105578400D02*
X137874400Y-107578400D01*
G04 #@! TO.C,R19*
X143665600Y-92484700D02*
X143665600Y-94484700D01*
X141525600Y-94484700D02*
X141525600Y-92484700D01*
G04 #@! TO.C,R18*
X147348600Y-80978500D02*
X147348600Y-82978500D01*
X145208600Y-82978500D02*
X145208600Y-80978500D01*
G04 #@! TO.C,R17*
X124996700Y-99983900D02*
X126996700Y-99983900D01*
X126996700Y-102123900D02*
X124996700Y-102123900D01*
G04 #@! TO.C,R16*
X130597300Y-85550500D02*
X130597300Y-87550500D01*
X128457300Y-87550500D02*
X128457300Y-85550500D01*
G04 #@! TO.C,R15*
X127511200Y-85550500D02*
X127511200Y-87550500D01*
X125371200Y-87550500D02*
X125371200Y-85550500D01*
G04 #@! TO.C,R14*
X115154200Y-110385200D02*
X117154200Y-110385200D01*
X117154200Y-112525200D02*
X115154200Y-112525200D01*
G04 #@! TO.C,R4*
X66970300Y-93691200D02*
X66970300Y-95691200D01*
X64830300Y-95691200D02*
X64830300Y-93691200D01*
G04 #@! TO.C,R5*
X67643400Y-86109300D02*
X67643400Y-88109300D01*
X65503400Y-88109300D02*
X65503400Y-86109300D01*
G04 #@! TO.C,R6*
X76546100Y-103076500D02*
X76546100Y-105076500D01*
X74406100Y-105076500D02*
X74406100Y-103076500D01*
G04 #@! TO.C,R7*
X87158432Y-111630059D02*
X89158432Y-111630059D01*
X89158432Y-113770059D02*
X87158432Y-113770059D01*
G04 #@! TO.C,R12*
X147901000Y-82965800D02*
X147901000Y-80965800D01*
X150041000Y-80965800D02*
X150041000Y-82965800D01*
G04 #@! TO.C,R9*
X73453500Y-86579100D02*
X71453500Y-86579100D01*
X71453500Y-84439100D02*
X73453500Y-84439100D01*
G04 #@! TO.C,R10*
X76666700Y-85836000D02*
X76666700Y-83836000D01*
X78806700Y-83836000D02*
X78806700Y-85836000D01*
G04 #@! TO.C,R11*
X99368000Y-109363000D02*
X99368000Y-111363000D01*
X97228000Y-111363000D02*
X97228000Y-109363000D01*
G04 #@! TO.C,R1*
X62703100Y-79606900D02*
X62703100Y-81606900D01*
X60563100Y-81606900D02*
X60563100Y-79606900D01*
G04 #@! TO.C,R2*
X64671600Y-86109300D02*
X64671600Y-88109300D01*
X62531600Y-88109300D02*
X62531600Y-86109300D01*
G04 #@! TO.C,R8*
X78546200Y-113998400D02*
X76546200Y-113998400D01*
X76546200Y-111858400D02*
X78546200Y-111858400D01*
G04 #@! TO.C,U5*
X146724800Y-88135100D02*
X148524800Y-88135100D01*
X148524800Y-84915100D02*
X146074800Y-84915100D01*
G04 #@! TO.C,U3*
X80568350Y-98408993D02*
X80568350Y-96608993D01*
X77348350Y-96608993D02*
X77348350Y-99558993D01*
G04 #@! TO.C,U7*
X127012543Y-104202150D02*
X127012543Y-106002150D01*
X130232543Y-106002150D02*
X130232543Y-103052150D01*
G04 #@! TO.C,J2*
D17*
X64487466Y-109840780D02*
X64487466Y-110555066D01*
X64439847Y-110697923D01*
X64344609Y-110793161D01*
X64201752Y-110840780D01*
X64106514Y-110840780D01*
X64916038Y-109936019D02*
X64963657Y-109888400D01*
X65058895Y-109840780D01*
X65296990Y-109840780D01*
X65392228Y-109888400D01*
X65439847Y-109936019D01*
X65487466Y-110031257D01*
X65487466Y-110126495D01*
X65439847Y-110269352D01*
X64868419Y-110840780D01*
X65487466Y-110840780D01*
G04 #@! TO.C,J4*
D10*
X136571566Y-98212123D02*
X136571566Y-99119266D01*
X136511090Y-99300695D01*
X136390138Y-99421647D01*
X136208709Y-99482123D01*
X136087757Y-99482123D01*
X137720614Y-98635457D02*
X137720614Y-99482123D01*
X137418233Y-98151647D02*
X137115852Y-99058790D01*
X137902042Y-99058790D01*
G04 #@! TO.C,C28*
D17*
X63479442Y-75274442D02*
X63431823Y-75322061D01*
X63288966Y-75369680D01*
X63193728Y-75369680D01*
X63050871Y-75322061D01*
X62955633Y-75226823D01*
X62908014Y-75131585D01*
X62860395Y-74941109D01*
X62860395Y-74798252D01*
X62908014Y-74607776D01*
X62955633Y-74512538D01*
X63050871Y-74417300D01*
X63193728Y-74369680D01*
X63288966Y-74369680D01*
X63431823Y-74417300D01*
X63479442Y-74464919D01*
X63860395Y-74464919D02*
X63908014Y-74417300D01*
X64003252Y-74369680D01*
X64241347Y-74369680D01*
X64336585Y-74417300D01*
X64384204Y-74464919D01*
X64431823Y-74560157D01*
X64431823Y-74655395D01*
X64384204Y-74798252D01*
X63812776Y-75369680D01*
X64431823Y-75369680D01*
X65003252Y-74798252D02*
X64908014Y-74750633D01*
X64860395Y-74703014D01*
X64812776Y-74607776D01*
X64812776Y-74560157D01*
X64860395Y-74464919D01*
X64908014Y-74417300D01*
X65003252Y-74369680D01*
X65193728Y-74369680D01*
X65288966Y-74417300D01*
X65336585Y-74464919D01*
X65384204Y-74560157D01*
X65384204Y-74607776D01*
X65336585Y-74703014D01*
X65288966Y-74750633D01*
X65193728Y-74798252D01*
X65003252Y-74798252D01*
X64908014Y-74845871D01*
X64860395Y-74893490D01*
X64812776Y-74988728D01*
X64812776Y-75179204D01*
X64860395Y-75274442D01*
X64908014Y-75322061D01*
X65003252Y-75369680D01*
X65193728Y-75369680D01*
X65288966Y-75322061D01*
X65336585Y-75274442D01*
X65384204Y-75179204D01*
X65384204Y-74988728D01*
X65336585Y-74893490D01*
X65288966Y-74845871D01*
X65193728Y-74798252D01*
G04 #@! TO.C,U6*
X132106004Y-79301219D02*
X132106004Y-80123695D01*
X132154385Y-80220457D01*
X132202766Y-80268838D01*
X132299528Y-80317219D01*
X132493052Y-80317219D01*
X132589814Y-80268838D01*
X132638195Y-80220457D01*
X132686576Y-80123695D01*
X132686576Y-79301219D01*
X133605814Y-79301219D02*
X133412290Y-79301219D01*
X133315528Y-79349600D01*
X133267147Y-79397980D01*
X133170385Y-79543123D01*
X133122004Y-79736647D01*
X133122004Y-80123695D01*
X133170385Y-80220457D01*
X133218766Y-80268838D01*
X133315528Y-80317219D01*
X133509052Y-80317219D01*
X133605814Y-80268838D01*
X133654195Y-80220457D01*
X133702576Y-80123695D01*
X133702576Y-79881790D01*
X133654195Y-79785028D01*
X133605814Y-79736647D01*
X133509052Y-79688266D01*
X133315528Y-79688266D01*
X133218766Y-79736647D01*
X133170385Y-79785028D01*
X133122004Y-79881790D01*
G04 #@! TO.C,U2*
X70066504Y-79326619D02*
X70066504Y-80149095D01*
X70114885Y-80245857D01*
X70163266Y-80294238D01*
X70260028Y-80342619D01*
X70453552Y-80342619D01*
X70550314Y-80294238D01*
X70598695Y-80245857D01*
X70647076Y-80149095D01*
X70647076Y-79326619D01*
X71082504Y-79423380D02*
X71130885Y-79375000D01*
X71227647Y-79326619D01*
X71469552Y-79326619D01*
X71566314Y-79375000D01*
X71614695Y-79423380D01*
X71663076Y-79520142D01*
X71663076Y-79616904D01*
X71614695Y-79762047D01*
X71034123Y-80342619D01*
X71663076Y-80342619D01*
G04 #@! TO.C,S1*
X89334951Y-111005057D02*
X89480094Y-111053438D01*
X89721999Y-111053438D01*
X89818761Y-111005057D01*
X89867142Y-110956676D01*
X89915523Y-110859914D01*
X89915523Y-110763152D01*
X89867142Y-110666390D01*
X89818761Y-110618009D01*
X89721999Y-110569628D01*
X89528475Y-110521247D01*
X89431713Y-110472866D01*
X89383332Y-110424485D01*
X89334951Y-110327723D01*
X89334951Y-110230961D01*
X89383332Y-110134199D01*
X89431713Y-110085819D01*
X89528475Y-110037438D01*
X89770380Y-110037438D01*
X89915523Y-110085819D01*
X90883142Y-111053438D02*
X90302570Y-111053438D01*
X90592856Y-111053438D02*
X90592856Y-110037438D01*
X90496094Y-110182580D01*
X90399332Y-110279342D01*
X90302570Y-110327723D01*
G04 #@! TO.C,D3*
X144876780Y-76049095D02*
X143876780Y-76049095D01*
X143876780Y-75811000D01*
X143924400Y-75668142D01*
X144019638Y-75572904D01*
X144114876Y-75525285D01*
X144305352Y-75477666D01*
X144448209Y-75477666D01*
X144638685Y-75525285D01*
X144733923Y-75572904D01*
X144829161Y-75668142D01*
X144876780Y-75811000D01*
X144876780Y-76049095D01*
X143876780Y-75144333D02*
X143876780Y-74525285D01*
X144257733Y-74858619D01*
X144257733Y-74715761D01*
X144305352Y-74620523D01*
X144352971Y-74572904D01*
X144448209Y-74525285D01*
X144686304Y-74525285D01*
X144781542Y-74572904D01*
X144829161Y-74620523D01*
X144876780Y-74715761D01*
X144876780Y-75001476D01*
X144829161Y-75096714D01*
X144781542Y-75144333D01*
G04 #@! TO.C,D2*
X123896380Y-110237495D02*
X122896380Y-110237495D01*
X122896380Y-109999400D01*
X122944000Y-109856542D01*
X123039238Y-109761304D01*
X123134476Y-109713685D01*
X123324952Y-109666066D01*
X123467809Y-109666066D01*
X123658285Y-109713685D01*
X123753523Y-109761304D01*
X123848761Y-109856542D01*
X123896380Y-109999400D01*
X123896380Y-110237495D01*
X122991619Y-109285114D02*
X122944000Y-109237495D01*
X122896380Y-109142257D01*
X122896380Y-108904161D01*
X122944000Y-108808923D01*
X122991619Y-108761304D01*
X123086857Y-108713685D01*
X123182095Y-108713685D01*
X123324952Y-108761304D01*
X123896380Y-109332733D01*
X123896380Y-108713685D01*
G04 #@! TO.C,D1*
X69721504Y-115361980D02*
X69721504Y-114361980D01*
X69959600Y-114361980D01*
X70102457Y-114409600D01*
X70197695Y-114504838D01*
X70245314Y-114600076D01*
X70292933Y-114790552D01*
X70292933Y-114933409D01*
X70245314Y-115123885D01*
X70197695Y-115219123D01*
X70102457Y-115314361D01*
X69959600Y-115361980D01*
X69721504Y-115361980D01*
X71245314Y-115361980D02*
X70673885Y-115361980D01*
X70959600Y-115361980D02*
X70959600Y-114361980D01*
X70864361Y-114504838D01*
X70769123Y-114600076D01*
X70673885Y-114647695D01*
G04 #@! TO.C,C26*
X87916657Y-109112957D02*
X87868276Y-109161338D01*
X87723133Y-109209719D01*
X87626371Y-109209719D01*
X87481228Y-109161338D01*
X87384466Y-109064576D01*
X87336085Y-108967814D01*
X87287704Y-108774290D01*
X87287704Y-108629147D01*
X87336085Y-108435623D01*
X87384466Y-108338861D01*
X87481228Y-108242100D01*
X87626371Y-108193719D01*
X87723133Y-108193719D01*
X87868276Y-108242100D01*
X87916657Y-108290480D01*
X88303704Y-108290480D02*
X88352085Y-108242100D01*
X88448847Y-108193719D01*
X88690752Y-108193719D01*
X88787514Y-108242100D01*
X88835895Y-108290480D01*
X88884276Y-108387242D01*
X88884276Y-108484004D01*
X88835895Y-108629147D01*
X88255323Y-109209719D01*
X88884276Y-109209719D01*
X89755133Y-108193719D02*
X89561609Y-108193719D01*
X89464847Y-108242100D01*
X89416466Y-108290480D01*
X89319704Y-108435623D01*
X89271323Y-108629147D01*
X89271323Y-109016195D01*
X89319704Y-109112957D01*
X89368085Y-109161338D01*
X89464847Y-109209719D01*
X89658371Y-109209719D01*
X89755133Y-109161338D01*
X89803514Y-109112957D01*
X89851895Y-109016195D01*
X89851895Y-108774290D01*
X89803514Y-108677528D01*
X89755133Y-108629147D01*
X89658371Y-108580766D01*
X89464847Y-108580766D01*
X89368085Y-108629147D01*
X89319704Y-108677528D01*
X89271323Y-108774290D01*
G04 #@! TO.C,C27*
X83776457Y-109151057D02*
X83728076Y-109199438D01*
X83582933Y-109247819D01*
X83486171Y-109247819D01*
X83341028Y-109199438D01*
X83244266Y-109102676D01*
X83195885Y-109005914D01*
X83147504Y-108812390D01*
X83147504Y-108667247D01*
X83195885Y-108473723D01*
X83244266Y-108376961D01*
X83341028Y-108280200D01*
X83486171Y-108231819D01*
X83582933Y-108231819D01*
X83728076Y-108280200D01*
X83776457Y-108328580D01*
X84163504Y-108328580D02*
X84211885Y-108280200D01*
X84308647Y-108231819D01*
X84550552Y-108231819D01*
X84647314Y-108280200D01*
X84695695Y-108328580D01*
X84744076Y-108425342D01*
X84744076Y-108522104D01*
X84695695Y-108667247D01*
X84115123Y-109247819D01*
X84744076Y-109247819D01*
X85082742Y-108231819D02*
X85760076Y-108231819D01*
X85324647Y-109247819D01*
G04 #@! TO.C,C25*
X80611742Y-84100942D02*
X80564123Y-84148561D01*
X80421266Y-84196180D01*
X80326028Y-84196180D01*
X80183171Y-84148561D01*
X80087933Y-84053323D01*
X80040314Y-83958085D01*
X79992695Y-83767609D01*
X79992695Y-83624752D01*
X80040314Y-83434276D01*
X80087933Y-83339038D01*
X80183171Y-83243800D01*
X80326028Y-83196180D01*
X80421266Y-83196180D01*
X80564123Y-83243800D01*
X80611742Y-83291419D01*
X80992695Y-83291419D02*
X81040314Y-83243800D01*
X81135552Y-83196180D01*
X81373647Y-83196180D01*
X81468885Y-83243800D01*
X81516504Y-83291419D01*
X81564123Y-83386657D01*
X81564123Y-83481895D01*
X81516504Y-83624752D01*
X80945076Y-84196180D01*
X81564123Y-84196180D01*
X82468885Y-83196180D02*
X81992695Y-83196180D01*
X81945076Y-83672371D01*
X81992695Y-83624752D01*
X82087933Y-83577133D01*
X82326028Y-83577133D01*
X82421266Y-83624752D01*
X82468885Y-83672371D01*
X82516504Y-83767609D01*
X82516504Y-84005704D01*
X82468885Y-84100942D01*
X82421266Y-84148561D01*
X82326028Y-84196180D01*
X82087933Y-84196180D01*
X81992695Y-84148561D01*
X81945076Y-84100942D01*
G04 #@! TO.C,J3*
D10*
X145321866Y-107457723D02*
X145321866Y-108364866D01*
X145261390Y-108546295D01*
X145140438Y-108667247D01*
X144959009Y-108727723D01*
X144838057Y-108727723D01*
X145805676Y-107457723D02*
X146591866Y-107457723D01*
X146168533Y-107941533D01*
X146349961Y-107941533D01*
X146470914Y-108002009D01*
X146531390Y-108062485D01*
X146591866Y-108183438D01*
X146591866Y-108485819D01*
X146531390Y-108606771D01*
X146470914Y-108667247D01*
X146349961Y-108727723D01*
X145987104Y-108727723D01*
X145866152Y-108667247D01*
X145805676Y-108606771D01*
G04 #@! TO.C,J1*
X62035266Y-108753123D02*
X62035266Y-109660266D01*
X61974790Y-109841695D01*
X61853838Y-109962647D01*
X61672409Y-110023123D01*
X61551457Y-110023123D01*
X63305266Y-110023123D02*
X62579552Y-110023123D01*
X62942409Y-110023123D02*
X62942409Y-108753123D01*
X62821457Y-108934552D01*
X62700504Y-109055504D01*
X62579552Y-109115980D01*
G04 #@! TO.C,U1*
D17*
X74191880Y-96900904D02*
X75001404Y-96900904D01*
X75096642Y-96853285D01*
X75144261Y-96805666D01*
X75191880Y-96710428D01*
X75191880Y-96519952D01*
X75144261Y-96424714D01*
X75096642Y-96377095D01*
X75001404Y-96329476D01*
X74191880Y-96329476D01*
X75191880Y-95329476D02*
X75191880Y-95900904D01*
X75191880Y-95615190D02*
X74191880Y-95615190D01*
X74334738Y-95710428D01*
X74429976Y-95805666D01*
X74477595Y-95900904D01*
G04 #@! TO.C,U8*
X140272104Y-96420819D02*
X140272104Y-97243295D01*
X140320485Y-97340057D01*
X140368866Y-97388438D01*
X140465628Y-97436819D01*
X140659152Y-97436819D01*
X140755914Y-97388438D01*
X140804295Y-97340057D01*
X140852676Y-97243295D01*
X140852676Y-96420819D01*
X141481628Y-96856247D02*
X141384866Y-96807866D01*
X141336485Y-96759485D01*
X141288104Y-96662723D01*
X141288104Y-96614342D01*
X141336485Y-96517580D01*
X141384866Y-96469200D01*
X141481628Y-96420819D01*
X141675152Y-96420819D01*
X141771914Y-96469200D01*
X141820295Y-96517580D01*
X141868676Y-96614342D01*
X141868676Y-96662723D01*
X141820295Y-96759485D01*
X141771914Y-96807866D01*
X141675152Y-96856247D01*
X141481628Y-96856247D01*
X141384866Y-96904628D01*
X141336485Y-96953009D01*
X141288104Y-97049771D01*
X141288104Y-97243295D01*
X141336485Y-97340057D01*
X141384866Y-97388438D01*
X141481628Y-97436819D01*
X141675152Y-97436819D01*
X141771914Y-97388438D01*
X141820295Y-97340057D01*
X141868676Y-97243295D01*
X141868676Y-97049771D01*
X141820295Y-96953009D01*
X141771914Y-96904628D01*
X141675152Y-96856247D01*
G04 #@! TO.C,U4*
D10*
X80667980Y-85537523D02*
X80667980Y-86565619D01*
X80728457Y-86686571D01*
X80788933Y-86747047D01*
X80909885Y-86807523D01*
X81151790Y-86807523D01*
X81272742Y-86747047D01*
X81333219Y-86686571D01*
X81393695Y-86565619D01*
X81393695Y-85537523D01*
X82542742Y-85960857D02*
X82542742Y-86807523D01*
X82240361Y-85477047D02*
X81937980Y-86384190D01*
X82724171Y-86384190D01*
G04 #@! TO.C,S2*
D17*
X108852304Y-114203238D02*
X108997447Y-114251619D01*
X109239352Y-114251619D01*
X109336114Y-114203238D01*
X109384495Y-114154857D01*
X109432876Y-114058095D01*
X109432876Y-113961333D01*
X109384495Y-113864571D01*
X109336114Y-113816190D01*
X109239352Y-113767809D01*
X109045828Y-113719428D01*
X108949066Y-113671047D01*
X108900685Y-113622666D01*
X108852304Y-113525904D01*
X108852304Y-113429142D01*
X108900685Y-113332380D01*
X108949066Y-113284000D01*
X109045828Y-113235619D01*
X109287733Y-113235619D01*
X109432876Y-113284000D01*
X109819923Y-113332380D02*
X109868304Y-113284000D01*
X109965066Y-113235619D01*
X110206971Y-113235619D01*
X110303733Y-113284000D01*
X110352114Y-113332380D01*
X110400495Y-113429142D01*
X110400495Y-113525904D01*
X110352114Y-113671047D01*
X109771542Y-114251619D01*
X110400495Y-114251619D01*
G04 #@! TO.C,L1*
D10*
X75044233Y-73484623D02*
X74439471Y-73484623D01*
X74439471Y-72214623D01*
X76132804Y-73484623D02*
X75407090Y-73484623D01*
X75769947Y-73484623D02*
X75769947Y-72214623D01*
X75648995Y-72396052D01*
X75528042Y-72517004D01*
X75407090Y-72577480D01*
G04 #@! TO.C,L2*
X134459133Y-73447123D02*
X133854371Y-73447123D01*
X133854371Y-72177123D01*
X134821990Y-72298076D02*
X134882466Y-72237600D01*
X135003419Y-72177123D01*
X135305800Y-72177123D01*
X135426752Y-72237600D01*
X135487228Y-72298076D01*
X135547704Y-72419028D01*
X135547704Y-72539980D01*
X135487228Y-72721409D01*
X134761514Y-73447123D01*
X135547704Y-73447123D01*
G04 #@! TO.C,C11*
D17*
X75798442Y-90806542D02*
X75750823Y-90854161D01*
X75607966Y-90901780D01*
X75512728Y-90901780D01*
X75369871Y-90854161D01*
X75274633Y-90758923D01*
X75227014Y-90663685D01*
X75179395Y-90473209D01*
X75179395Y-90330352D01*
X75227014Y-90139876D01*
X75274633Y-90044638D01*
X75369871Y-89949400D01*
X75512728Y-89901780D01*
X75607966Y-89901780D01*
X75750823Y-89949400D01*
X75798442Y-89997019D01*
X76750823Y-90901780D02*
X76179395Y-90901780D01*
X76465109Y-90901780D02*
X76465109Y-89901780D01*
X76369871Y-90044638D01*
X76274633Y-90139876D01*
X76179395Y-90187495D01*
X77703204Y-90901780D02*
X77131776Y-90901780D01*
X77417490Y-90901780D02*
X77417490Y-89901780D01*
X77322252Y-90044638D01*
X77227014Y-90139876D01*
X77131776Y-90187495D01*
G04 #@! TO.C,C24*
X134646942Y-111285257D02*
X134694561Y-111332876D01*
X134742180Y-111475733D01*
X134742180Y-111570971D01*
X134694561Y-111713828D01*
X134599323Y-111809066D01*
X134504085Y-111856685D01*
X134313609Y-111904304D01*
X134170752Y-111904304D01*
X133980276Y-111856685D01*
X133885038Y-111809066D01*
X133789800Y-111713828D01*
X133742180Y-111570971D01*
X133742180Y-111475733D01*
X133789800Y-111332876D01*
X133837419Y-111285257D01*
X133837419Y-110904304D02*
X133789800Y-110856685D01*
X133742180Y-110761447D01*
X133742180Y-110523352D01*
X133789800Y-110428114D01*
X133837419Y-110380495D01*
X133932657Y-110332876D01*
X134027895Y-110332876D01*
X134170752Y-110380495D01*
X134742180Y-110951923D01*
X134742180Y-110332876D01*
X134075514Y-109475733D02*
X134742180Y-109475733D01*
X133694561Y-109713828D02*
X134408847Y-109951923D01*
X134408847Y-109332876D01*
G04 #@! TO.C,C23*
X151172942Y-91060542D02*
X151125323Y-91108161D01*
X150982466Y-91155780D01*
X150887228Y-91155780D01*
X150744371Y-91108161D01*
X150649133Y-91012923D01*
X150601514Y-90917685D01*
X150553895Y-90727209D01*
X150553895Y-90584352D01*
X150601514Y-90393876D01*
X150649133Y-90298638D01*
X150744371Y-90203400D01*
X150887228Y-90155780D01*
X150982466Y-90155780D01*
X151125323Y-90203400D01*
X151172942Y-90251019D01*
X151553895Y-90251019D02*
X151601514Y-90203400D01*
X151696752Y-90155780D01*
X151934847Y-90155780D01*
X152030085Y-90203400D01*
X152077704Y-90251019D01*
X152125323Y-90346257D01*
X152125323Y-90441495D01*
X152077704Y-90584352D01*
X151506276Y-91155780D01*
X152125323Y-91155780D01*
X152458657Y-90155780D02*
X153077704Y-90155780D01*
X152744371Y-90536733D01*
X152887228Y-90536733D01*
X152982466Y-90584352D01*
X153030085Y-90631971D01*
X153077704Y-90727209D01*
X153077704Y-90965304D01*
X153030085Y-91060542D01*
X152982466Y-91108161D01*
X152887228Y-91155780D01*
X152601514Y-91155780D01*
X152506276Y-91108161D01*
X152458657Y-91060542D01*
G04 #@! TO.C,C22*
X132986542Y-90984342D02*
X132938923Y-91031961D01*
X132796066Y-91079580D01*
X132700828Y-91079580D01*
X132557971Y-91031961D01*
X132462733Y-90936723D01*
X132415114Y-90841485D01*
X132367495Y-90651009D01*
X132367495Y-90508152D01*
X132415114Y-90317676D01*
X132462733Y-90222438D01*
X132557971Y-90127200D01*
X132700828Y-90079580D01*
X132796066Y-90079580D01*
X132938923Y-90127200D01*
X132986542Y-90174819D01*
X133367495Y-90174819D02*
X133415114Y-90127200D01*
X133510352Y-90079580D01*
X133748447Y-90079580D01*
X133843685Y-90127200D01*
X133891304Y-90174819D01*
X133938923Y-90270057D01*
X133938923Y-90365295D01*
X133891304Y-90508152D01*
X133319876Y-91079580D01*
X133938923Y-91079580D01*
X134319876Y-90174819D02*
X134367495Y-90127200D01*
X134462733Y-90079580D01*
X134700828Y-90079580D01*
X134796066Y-90127200D01*
X134843685Y-90174819D01*
X134891304Y-90270057D01*
X134891304Y-90365295D01*
X134843685Y-90508152D01*
X134272257Y-91079580D01*
X134891304Y-91079580D01*
G04 #@! TO.C,C21*
X139422142Y-89974657D02*
X139469761Y-90022276D01*
X139517380Y-90165133D01*
X139517380Y-90260371D01*
X139469761Y-90403228D01*
X139374523Y-90498466D01*
X139279285Y-90546085D01*
X139088809Y-90593704D01*
X138945952Y-90593704D01*
X138755476Y-90546085D01*
X138660238Y-90498466D01*
X138565000Y-90403228D01*
X138517380Y-90260371D01*
X138517380Y-90165133D01*
X138565000Y-90022276D01*
X138612619Y-89974657D01*
X138612619Y-89593704D02*
X138565000Y-89546085D01*
X138517380Y-89450847D01*
X138517380Y-89212752D01*
X138565000Y-89117514D01*
X138612619Y-89069895D01*
X138707857Y-89022276D01*
X138803095Y-89022276D01*
X138945952Y-89069895D01*
X139517380Y-89641323D01*
X139517380Y-89022276D01*
X139517380Y-88069895D02*
X139517380Y-88641323D01*
X139517380Y-88355609D02*
X138517380Y-88355609D01*
X138660238Y-88450847D01*
X138755476Y-88546085D01*
X138803095Y-88641323D01*
G04 #@! TO.C,C18*
X125597142Y-109517142D02*
X125549523Y-109564761D01*
X125406666Y-109612380D01*
X125311428Y-109612380D01*
X125168571Y-109564761D01*
X125073333Y-109469523D01*
X125025714Y-109374285D01*
X124978095Y-109183809D01*
X124978095Y-109040952D01*
X125025714Y-108850476D01*
X125073333Y-108755238D01*
X125168571Y-108660000D01*
X125311428Y-108612380D01*
X125406666Y-108612380D01*
X125549523Y-108660000D01*
X125597142Y-108707619D01*
X126549523Y-109612380D02*
X125978095Y-109612380D01*
X126263809Y-109612380D02*
X126263809Y-108612380D01*
X126168571Y-108755238D01*
X126073333Y-108850476D01*
X125978095Y-108898095D01*
X127120952Y-109040952D02*
X127025714Y-108993333D01*
X126978095Y-108945714D01*
X126930476Y-108850476D01*
X126930476Y-108802857D01*
X126978095Y-108707619D01*
X127025714Y-108660000D01*
X127120952Y-108612380D01*
X127311428Y-108612380D01*
X127406666Y-108660000D01*
X127454285Y-108707619D01*
X127501904Y-108802857D01*
X127501904Y-108850476D01*
X127454285Y-108945714D01*
X127406666Y-108993333D01*
X127311428Y-109040952D01*
X127120952Y-109040952D01*
X127025714Y-109088571D01*
X126978095Y-109136190D01*
X126930476Y-109231428D01*
X126930476Y-109421904D01*
X126978095Y-109517142D01*
X127025714Y-109564761D01*
X127120952Y-109612380D01*
X127311428Y-109612380D01*
X127406666Y-109564761D01*
X127454285Y-109517142D01*
X127501904Y-109421904D01*
X127501904Y-109231428D01*
X127454285Y-109136190D01*
X127406666Y-109088571D01*
X127311428Y-109040952D01*
G04 #@! TO.C,C20*
X142889242Y-85072457D02*
X142936861Y-85120076D01*
X142984480Y-85262933D01*
X142984480Y-85358171D01*
X142936861Y-85501028D01*
X142841623Y-85596266D01*
X142746385Y-85643885D01*
X142555909Y-85691504D01*
X142413052Y-85691504D01*
X142222576Y-85643885D01*
X142127338Y-85596266D01*
X142032100Y-85501028D01*
X141984480Y-85358171D01*
X141984480Y-85262933D01*
X142032100Y-85120076D01*
X142079719Y-85072457D01*
X142079719Y-84691504D02*
X142032100Y-84643885D01*
X141984480Y-84548647D01*
X141984480Y-84310552D01*
X142032100Y-84215314D01*
X142079719Y-84167695D01*
X142174957Y-84120076D01*
X142270195Y-84120076D01*
X142413052Y-84167695D01*
X142984480Y-84739123D01*
X142984480Y-84120076D01*
X141984480Y-83501028D02*
X141984480Y-83405790D01*
X142032100Y-83310552D01*
X142079719Y-83262933D01*
X142174957Y-83215314D01*
X142365433Y-83167695D01*
X142603528Y-83167695D01*
X142794004Y-83215314D01*
X142889242Y-83262933D01*
X142936861Y-83310552D01*
X142984480Y-83405790D01*
X142984480Y-83501028D01*
X142936861Y-83596266D01*
X142889242Y-83643885D01*
X142794004Y-83691504D01*
X142603528Y-83739123D01*
X142365433Y-83739123D01*
X142174957Y-83691504D01*
X142079719Y-83643885D01*
X142032100Y-83596266D01*
X141984480Y-83501028D01*
G04 #@! TO.C,C19*
X125585499Y-111815392D02*
X125537880Y-111863011D01*
X125395023Y-111910630D01*
X125299785Y-111910630D01*
X125156928Y-111863011D01*
X125061690Y-111767773D01*
X125014071Y-111672535D01*
X124966452Y-111482059D01*
X124966452Y-111339202D01*
X125014071Y-111148726D01*
X125061690Y-111053488D01*
X125156928Y-110958250D01*
X125299785Y-110910630D01*
X125395023Y-110910630D01*
X125537880Y-110958250D01*
X125585499Y-111005869D01*
X126537880Y-111910630D02*
X125966452Y-111910630D01*
X126252166Y-111910630D02*
X126252166Y-110910630D01*
X126156928Y-111053488D01*
X126061690Y-111148726D01*
X125966452Y-111196345D01*
X127014071Y-111910630D02*
X127204547Y-111910630D01*
X127299785Y-111863011D01*
X127347404Y-111815392D01*
X127442642Y-111672535D01*
X127490261Y-111482059D01*
X127490261Y-111101107D01*
X127442642Y-111005869D01*
X127395023Y-110958250D01*
X127299785Y-110910630D01*
X127109309Y-110910630D01*
X127014071Y-110958250D01*
X126966452Y-111005869D01*
X126918833Y-111101107D01*
X126918833Y-111339202D01*
X126966452Y-111434440D01*
X127014071Y-111482059D01*
X127109309Y-111529678D01*
X127299785Y-111529678D01*
X127395023Y-111482059D01*
X127442642Y-111434440D01*
X127490261Y-111339202D01*
G04 #@! TO.C,C17*
X152452342Y-82456257D02*
X152499961Y-82503876D01*
X152547580Y-82646733D01*
X152547580Y-82741971D01*
X152499961Y-82884828D01*
X152404723Y-82980066D01*
X152309485Y-83027685D01*
X152119009Y-83075304D01*
X151976152Y-83075304D01*
X151785676Y-83027685D01*
X151690438Y-82980066D01*
X151595200Y-82884828D01*
X151547580Y-82741971D01*
X151547580Y-82646733D01*
X151595200Y-82503876D01*
X151642819Y-82456257D01*
X152547580Y-81503876D02*
X152547580Y-82075304D01*
X152547580Y-81789590D02*
X151547580Y-81789590D01*
X151690438Y-81884828D01*
X151785676Y-81980066D01*
X151833295Y-82075304D01*
X151547580Y-81170542D02*
X151547580Y-80503876D01*
X152547580Y-80932447D01*
G04 #@! TO.C,C16*
X136580642Y-103621461D02*
X136533023Y-103669080D01*
X136390166Y-103716699D01*
X136294928Y-103716699D01*
X136152071Y-103669080D01*
X136056833Y-103573842D01*
X136009214Y-103478604D01*
X135961595Y-103288128D01*
X135961595Y-103145271D01*
X136009214Y-102954795D01*
X136056833Y-102859557D01*
X136152071Y-102764319D01*
X136294928Y-102716699D01*
X136390166Y-102716699D01*
X136533023Y-102764319D01*
X136580642Y-102811938D01*
X137533023Y-103716699D02*
X136961595Y-103716699D01*
X137247309Y-103716699D02*
X137247309Y-102716699D01*
X137152071Y-102859557D01*
X137056833Y-102954795D01*
X136961595Y-103002414D01*
X138390166Y-102716699D02*
X138199690Y-102716699D01*
X138104452Y-102764319D01*
X138056833Y-102811938D01*
X137961595Y-102954795D01*
X137913976Y-103145271D01*
X137913976Y-103526223D01*
X137961595Y-103621461D01*
X138009214Y-103669080D01*
X138104452Y-103716699D01*
X138294928Y-103716699D01*
X138390166Y-103669080D01*
X138437785Y-103621461D01*
X138485404Y-103526223D01*
X138485404Y-103288128D01*
X138437785Y-103192890D01*
X138390166Y-103145271D01*
X138294928Y-103097652D01*
X138104452Y-103097652D01*
X138009214Y-103145271D01*
X137961595Y-103192890D01*
X137913976Y-103288128D01*
G04 #@! TO.C,C14*
X126001542Y-75515742D02*
X125953923Y-75563361D01*
X125811066Y-75610980D01*
X125715828Y-75610980D01*
X125572971Y-75563361D01*
X125477733Y-75468123D01*
X125430114Y-75372885D01*
X125382495Y-75182409D01*
X125382495Y-75039552D01*
X125430114Y-74849076D01*
X125477733Y-74753838D01*
X125572971Y-74658600D01*
X125715828Y-74610980D01*
X125811066Y-74610980D01*
X125953923Y-74658600D01*
X126001542Y-74706219D01*
X126953923Y-75610980D02*
X126382495Y-75610980D01*
X126668209Y-75610980D02*
X126668209Y-74610980D01*
X126572971Y-74753838D01*
X126477733Y-74849076D01*
X126382495Y-74896695D01*
X127811066Y-74944314D02*
X127811066Y-75610980D01*
X127572971Y-74563361D02*
X127334876Y-75277647D01*
X127953923Y-75277647D01*
G04 #@! TO.C,C13*
X126026942Y-77954142D02*
X125979323Y-78001761D01*
X125836466Y-78049380D01*
X125741228Y-78049380D01*
X125598371Y-78001761D01*
X125503133Y-77906523D01*
X125455514Y-77811285D01*
X125407895Y-77620809D01*
X125407895Y-77477952D01*
X125455514Y-77287476D01*
X125503133Y-77192238D01*
X125598371Y-77097000D01*
X125741228Y-77049380D01*
X125836466Y-77049380D01*
X125979323Y-77097000D01*
X126026942Y-77144619D01*
X126979323Y-78049380D02*
X126407895Y-78049380D01*
X126693609Y-78049380D02*
X126693609Y-77049380D01*
X126598371Y-77192238D01*
X126503133Y-77287476D01*
X126407895Y-77335095D01*
X127312657Y-77049380D02*
X127931704Y-77049380D01*
X127598371Y-77430333D01*
X127741228Y-77430333D01*
X127836466Y-77477952D01*
X127884085Y-77525571D01*
X127931704Y-77620809D01*
X127931704Y-77858904D01*
X127884085Y-77954142D01*
X127836466Y-78001761D01*
X127741228Y-78049380D01*
X127455514Y-78049380D01*
X127360276Y-78001761D01*
X127312657Y-77954142D01*
G04 #@! TO.C,C10*
X75671442Y-88558642D02*
X75623823Y-88606261D01*
X75480966Y-88653880D01*
X75385728Y-88653880D01*
X75242871Y-88606261D01*
X75147633Y-88511023D01*
X75100014Y-88415785D01*
X75052395Y-88225309D01*
X75052395Y-88082452D01*
X75100014Y-87891976D01*
X75147633Y-87796738D01*
X75242871Y-87701500D01*
X75385728Y-87653880D01*
X75480966Y-87653880D01*
X75623823Y-87701500D01*
X75671442Y-87749119D01*
X76623823Y-88653880D02*
X76052395Y-88653880D01*
X76338109Y-88653880D02*
X76338109Y-87653880D01*
X76242871Y-87796738D01*
X76147633Y-87891976D01*
X76052395Y-87939595D01*
X77242871Y-87653880D02*
X77338109Y-87653880D01*
X77433347Y-87701500D01*
X77480966Y-87749119D01*
X77528585Y-87844357D01*
X77576204Y-88034833D01*
X77576204Y-88272928D01*
X77528585Y-88463404D01*
X77480966Y-88558642D01*
X77433347Y-88606261D01*
X77338109Y-88653880D01*
X77242871Y-88653880D01*
X77147633Y-88606261D01*
X77100014Y-88558642D01*
X77052395Y-88463404D01*
X77004776Y-88272928D01*
X77004776Y-88034833D01*
X77052395Y-87844357D01*
X77100014Y-87749119D01*
X77147633Y-87701500D01*
X77242871Y-87653880D01*
G04 #@! TO.C,C9*
X81646733Y-95657942D02*
X81599114Y-95705561D01*
X81456257Y-95753180D01*
X81361019Y-95753180D01*
X81218161Y-95705561D01*
X81122923Y-95610323D01*
X81075304Y-95515085D01*
X81027685Y-95324609D01*
X81027685Y-95181752D01*
X81075304Y-94991276D01*
X81122923Y-94896038D01*
X81218161Y-94800800D01*
X81361019Y-94753180D01*
X81456257Y-94753180D01*
X81599114Y-94800800D01*
X81646733Y-94848419D01*
X82122923Y-95753180D02*
X82313400Y-95753180D01*
X82408638Y-95705561D01*
X82456257Y-95657942D01*
X82551495Y-95515085D01*
X82599114Y-95324609D01*
X82599114Y-94943657D01*
X82551495Y-94848419D01*
X82503876Y-94800800D01*
X82408638Y-94753180D01*
X82218161Y-94753180D01*
X82122923Y-94800800D01*
X82075304Y-94848419D01*
X82027685Y-94943657D01*
X82027685Y-95181752D01*
X82075304Y-95276990D01*
X82122923Y-95324609D01*
X82218161Y-95372228D01*
X82408638Y-95372228D01*
X82503876Y-95324609D01*
X82551495Y-95276990D01*
X82599114Y-95181752D01*
G04 #@! TO.C,C8*
X80493483Y-88876142D02*
X80445864Y-88923761D01*
X80303007Y-88971380D01*
X80207769Y-88971380D01*
X80064911Y-88923761D01*
X79969673Y-88828523D01*
X79922054Y-88733285D01*
X79874435Y-88542809D01*
X79874435Y-88399952D01*
X79922054Y-88209476D01*
X79969673Y-88114238D01*
X80064911Y-88019000D01*
X80207769Y-87971380D01*
X80303007Y-87971380D01*
X80445864Y-88019000D01*
X80493483Y-88066619D01*
X81064911Y-88399952D02*
X80969673Y-88352333D01*
X80922054Y-88304714D01*
X80874435Y-88209476D01*
X80874435Y-88161857D01*
X80922054Y-88066619D01*
X80969673Y-88019000D01*
X81064911Y-87971380D01*
X81255388Y-87971380D01*
X81350626Y-88019000D01*
X81398245Y-88066619D01*
X81445864Y-88161857D01*
X81445864Y-88209476D01*
X81398245Y-88304714D01*
X81350626Y-88352333D01*
X81255388Y-88399952D01*
X81064911Y-88399952D01*
X80969673Y-88447571D01*
X80922054Y-88495190D01*
X80874435Y-88590428D01*
X80874435Y-88780904D01*
X80922054Y-88876142D01*
X80969673Y-88923761D01*
X81064911Y-88971380D01*
X81255388Y-88971380D01*
X81350626Y-88923761D01*
X81398245Y-88876142D01*
X81445864Y-88780904D01*
X81445864Y-88590428D01*
X81398245Y-88495190D01*
X81350626Y-88447571D01*
X81255388Y-88399952D01*
G04 #@! TO.C,C7*
X77941442Y-104116166D02*
X77989061Y-104163785D01*
X78036680Y-104306642D01*
X78036680Y-104401880D01*
X77989061Y-104544738D01*
X77893823Y-104639976D01*
X77798585Y-104687595D01*
X77608109Y-104735214D01*
X77465252Y-104735214D01*
X77274776Y-104687595D01*
X77179538Y-104639976D01*
X77084300Y-104544738D01*
X77036680Y-104401880D01*
X77036680Y-104306642D01*
X77084300Y-104163785D01*
X77131919Y-104116166D01*
X77036680Y-103782833D02*
X77036680Y-103116166D01*
X78036680Y-103544738D01*
G04 #@! TO.C,C6*
X98406857Y-98975333D02*
X98455238Y-99023714D01*
X98503619Y-99168857D01*
X98503619Y-99265619D01*
X98455238Y-99410761D01*
X98358476Y-99507523D01*
X98261714Y-99555904D01*
X98068190Y-99604285D01*
X97923047Y-99604285D01*
X97729523Y-99555904D01*
X97632761Y-99507523D01*
X97536000Y-99410761D01*
X97487619Y-99265619D01*
X97487619Y-99168857D01*
X97536000Y-99023714D01*
X97584380Y-98975333D01*
X97487619Y-98104476D02*
X97487619Y-98298000D01*
X97536000Y-98394761D01*
X97584380Y-98443142D01*
X97729523Y-98539904D01*
X97923047Y-98588285D01*
X98310095Y-98588285D01*
X98406857Y-98539904D01*
X98455238Y-98491523D01*
X98503619Y-98394761D01*
X98503619Y-98201238D01*
X98455238Y-98104476D01*
X98406857Y-98056095D01*
X98310095Y-98007714D01*
X98068190Y-98007714D01*
X97971428Y-98056095D01*
X97923047Y-98104476D01*
X97874666Y-98201238D01*
X97874666Y-98394761D01*
X97923047Y-98491523D01*
X97971428Y-98539904D01*
X98068190Y-98588285D01*
G04 #@! TO.C,C5*
X95587457Y-98975333D02*
X95635838Y-99023714D01*
X95684219Y-99168857D01*
X95684219Y-99265619D01*
X95635838Y-99410761D01*
X95539076Y-99507523D01*
X95442314Y-99555904D01*
X95248790Y-99604285D01*
X95103647Y-99604285D01*
X94910123Y-99555904D01*
X94813361Y-99507523D01*
X94716600Y-99410761D01*
X94668219Y-99265619D01*
X94668219Y-99168857D01*
X94716600Y-99023714D01*
X94764980Y-98975333D01*
X94668219Y-98056095D02*
X94668219Y-98539904D01*
X95152028Y-98588285D01*
X95103647Y-98539904D01*
X95055266Y-98443142D01*
X95055266Y-98201238D01*
X95103647Y-98104476D01*
X95152028Y-98056095D01*
X95248790Y-98007714D01*
X95490695Y-98007714D01*
X95587457Y-98056095D01*
X95635838Y-98104476D01*
X95684219Y-98201238D01*
X95684219Y-98443142D01*
X95635838Y-98539904D01*
X95587457Y-98588285D01*
G04 #@! TO.C,C4*
X73636142Y-102096866D02*
X73683761Y-102144485D01*
X73731380Y-102287342D01*
X73731380Y-102382580D01*
X73683761Y-102525438D01*
X73588523Y-102620676D01*
X73493285Y-102668295D01*
X73302809Y-102715914D01*
X73159952Y-102715914D01*
X72969476Y-102668295D01*
X72874238Y-102620676D01*
X72779000Y-102525438D01*
X72731380Y-102382580D01*
X72731380Y-102287342D01*
X72779000Y-102144485D01*
X72826619Y-102096866D01*
X73064714Y-101239723D02*
X73731380Y-101239723D01*
X72683761Y-101477819D02*
X73398047Y-101715914D01*
X73398047Y-101096866D01*
G04 #@! TO.C,C1*
X64450933Y-77979542D02*
X64403314Y-78027161D01*
X64260457Y-78074780D01*
X64165219Y-78074780D01*
X64022361Y-78027161D01*
X63927123Y-77931923D01*
X63879504Y-77836685D01*
X63831885Y-77646209D01*
X63831885Y-77503352D01*
X63879504Y-77312876D01*
X63927123Y-77217638D01*
X64022361Y-77122400D01*
X64165219Y-77074780D01*
X64260457Y-77074780D01*
X64403314Y-77122400D01*
X64450933Y-77170019D01*
X65403314Y-78074780D02*
X64831885Y-78074780D01*
X65117600Y-78074780D02*
X65117600Y-77074780D01*
X65022361Y-77217638D01*
X64927123Y-77312876D01*
X64831885Y-77360495D01*
G04 #@! TO.C,C3*
X68073542Y-91327266D02*
X68121161Y-91374885D01*
X68168780Y-91517742D01*
X68168780Y-91612980D01*
X68121161Y-91755838D01*
X68025923Y-91851076D01*
X67930685Y-91898695D01*
X67740209Y-91946314D01*
X67597352Y-91946314D01*
X67406876Y-91898695D01*
X67311638Y-91851076D01*
X67216400Y-91755838D01*
X67168780Y-91612980D01*
X67168780Y-91517742D01*
X67216400Y-91374885D01*
X67264019Y-91327266D01*
X67168780Y-90993933D02*
X67168780Y-90374885D01*
X67549733Y-90708219D01*
X67549733Y-90565361D01*
X67597352Y-90470123D01*
X67644971Y-90422504D01*
X67740209Y-90374885D01*
X67978304Y-90374885D01*
X68073542Y-90422504D01*
X68121161Y-90470123D01*
X68168780Y-90565361D01*
X68168780Y-90851076D01*
X68121161Y-90946314D01*
X68073542Y-90993933D01*
G04 #@! TO.C,C15*
X141393942Y-108154742D02*
X141346323Y-108202361D01*
X141203466Y-108249980D01*
X141108228Y-108249980D01*
X140965371Y-108202361D01*
X140870133Y-108107123D01*
X140822514Y-108011885D01*
X140774895Y-107821409D01*
X140774895Y-107678552D01*
X140822514Y-107488076D01*
X140870133Y-107392838D01*
X140965371Y-107297600D01*
X141108228Y-107249980D01*
X141203466Y-107249980D01*
X141346323Y-107297600D01*
X141393942Y-107345219D01*
X142346323Y-108249980D02*
X141774895Y-108249980D01*
X142060609Y-108249980D02*
X142060609Y-107249980D01*
X141965371Y-107392838D01*
X141870133Y-107488076D01*
X141774895Y-107535695D01*
X143251085Y-107249980D02*
X142774895Y-107249980D01*
X142727276Y-107726171D01*
X142774895Y-107678552D01*
X142870133Y-107630933D01*
X143108228Y-107630933D01*
X143203466Y-107678552D01*
X143251085Y-107726171D01*
X143298704Y-107821409D01*
X143298704Y-108059504D01*
X143251085Y-108154742D01*
X143203466Y-108202361D01*
X143108228Y-108249980D01*
X142870133Y-108249980D01*
X142774895Y-108202361D01*
X142727276Y-108154742D01*
G04 #@! TO.C,C2*
X93029789Y-98988292D02*
X93078170Y-99036673D01*
X93126551Y-99181816D01*
X93126551Y-99278578D01*
X93078170Y-99423720D01*
X92981408Y-99520482D01*
X92884646Y-99568863D01*
X92691122Y-99617244D01*
X92545979Y-99617244D01*
X92352455Y-99568863D01*
X92255693Y-99520482D01*
X92158932Y-99423720D01*
X92110551Y-99278578D01*
X92110551Y-99181816D01*
X92158932Y-99036673D01*
X92207312Y-98988292D01*
X92207312Y-98601244D02*
X92158932Y-98552863D01*
X92110551Y-98456101D01*
X92110551Y-98214197D01*
X92158932Y-98117435D01*
X92207312Y-98069054D01*
X92304074Y-98020673D01*
X92400836Y-98020673D01*
X92545979Y-98069054D01*
X93126551Y-98649625D01*
X93126551Y-98020673D01*
G04 #@! TO.C,C12*
X75747642Y-94210142D02*
X75700023Y-94257761D01*
X75557166Y-94305380D01*
X75461928Y-94305380D01*
X75319071Y-94257761D01*
X75223833Y-94162523D01*
X75176214Y-94067285D01*
X75128595Y-93876809D01*
X75128595Y-93733952D01*
X75176214Y-93543476D01*
X75223833Y-93448238D01*
X75319071Y-93353000D01*
X75461928Y-93305380D01*
X75557166Y-93305380D01*
X75700023Y-93353000D01*
X75747642Y-93400619D01*
X76700023Y-94305380D02*
X76128595Y-94305380D01*
X76414309Y-94305380D02*
X76414309Y-93305380D01*
X76319071Y-93448238D01*
X76223833Y-93543476D01*
X76128595Y-93591095D01*
X77080976Y-93400619D02*
X77128595Y-93353000D01*
X77223833Y-93305380D01*
X77461928Y-93305380D01*
X77557166Y-93353000D01*
X77604785Y-93400619D01*
X77652404Y-93495857D01*
X77652404Y-93591095D01*
X77604785Y-93733952D01*
X77033357Y-94305380D01*
X77652404Y-94305380D01*
G04 #@! TO.C,F1*
X65668566Y-102696971D02*
X65335233Y-102696971D01*
X65335233Y-103220780D02*
X65335233Y-102220780D01*
X65811423Y-102220780D01*
X66716185Y-103220780D02*
X66144757Y-103220780D01*
X66430471Y-103220780D02*
X66430471Y-102220780D01*
X66335233Y-102363638D01*
X66239995Y-102458876D01*
X66144757Y-102506495D01*
G04 #@! TO.C,F2*
X153387466Y-92994171D02*
X153054133Y-92994171D01*
X153054133Y-93517980D02*
X153054133Y-92517980D01*
X153530323Y-92517980D01*
X153863657Y-92613219D02*
X153911276Y-92565600D01*
X154006514Y-92517980D01*
X154244609Y-92517980D01*
X154339847Y-92565600D01*
X154387466Y-92613219D01*
X154435085Y-92708457D01*
X154435085Y-92803695D01*
X154387466Y-92946552D01*
X153816038Y-93517980D01*
X154435085Y-93517980D01*
G04 #@! TO.C,R3*
X68121233Y-98394780D02*
X67787900Y-97918590D01*
X67549804Y-98394780D02*
X67549804Y-97394780D01*
X67930757Y-97394780D01*
X68025995Y-97442400D01*
X68073614Y-97490019D01*
X68121233Y-97585257D01*
X68121233Y-97728114D01*
X68073614Y-97823352D01*
X68025995Y-97870971D01*
X67930757Y-97918590D01*
X67549804Y-97918590D01*
X68454566Y-97394780D02*
X69073614Y-97394780D01*
X68740280Y-97775733D01*
X68883138Y-97775733D01*
X68978376Y-97823352D01*
X69025995Y-97870971D01*
X69073614Y-97966209D01*
X69073614Y-98204304D01*
X69025995Y-98299542D01*
X68978376Y-98347161D01*
X68883138Y-98394780D01*
X68597423Y-98394780D01*
X68502185Y-98347161D01*
X68454566Y-98299542D01*
G04 #@! TO.C,R20*
X138221980Y-86494857D02*
X137745790Y-86828190D01*
X138221980Y-87066285D02*
X137221980Y-87066285D01*
X137221980Y-86685333D01*
X137269600Y-86590095D01*
X137317219Y-86542476D01*
X137412457Y-86494857D01*
X137555314Y-86494857D01*
X137650552Y-86542476D01*
X137698171Y-86590095D01*
X137745790Y-86685333D01*
X137745790Y-87066285D01*
X137317219Y-86113904D02*
X137269600Y-86066285D01*
X137221980Y-85971047D01*
X137221980Y-85732952D01*
X137269600Y-85637714D01*
X137317219Y-85590095D01*
X137412457Y-85542476D01*
X137507695Y-85542476D01*
X137650552Y-85590095D01*
X138221980Y-86161523D01*
X138221980Y-85542476D01*
X137221980Y-84923428D02*
X137221980Y-84828190D01*
X137269600Y-84732952D01*
X137317219Y-84685333D01*
X137412457Y-84637714D01*
X137602933Y-84590095D01*
X137841028Y-84590095D01*
X138031504Y-84637714D01*
X138126742Y-84685333D01*
X138174361Y-84732952D01*
X138221980Y-84828190D01*
X138221980Y-84923428D01*
X138174361Y-85018666D01*
X138126742Y-85066285D01*
X138031504Y-85113904D01*
X137841028Y-85161523D01*
X137602933Y-85161523D01*
X137412457Y-85113904D01*
X137317219Y-85066285D01*
X137269600Y-85018666D01*
X137221980Y-84923428D01*
G04 #@! TO.C,R21*
X139158742Y-82214980D02*
X138825409Y-81738790D01*
X138587314Y-82214980D02*
X138587314Y-81214980D01*
X138968266Y-81214980D01*
X139063504Y-81262600D01*
X139111123Y-81310219D01*
X139158742Y-81405457D01*
X139158742Y-81548314D01*
X139111123Y-81643552D01*
X139063504Y-81691171D01*
X138968266Y-81738790D01*
X138587314Y-81738790D01*
X139539695Y-81310219D02*
X139587314Y-81262600D01*
X139682552Y-81214980D01*
X139920647Y-81214980D01*
X140015885Y-81262600D01*
X140063504Y-81310219D01*
X140111123Y-81405457D01*
X140111123Y-81500695D01*
X140063504Y-81643552D01*
X139492076Y-82214980D01*
X140111123Y-82214980D01*
X141063504Y-82214980D02*
X140492076Y-82214980D01*
X140777790Y-82214980D02*
X140777790Y-81214980D01*
X140682552Y-81357838D01*
X140587314Y-81453076D01*
X140492076Y-81500695D01*
G04 #@! TO.C,R22*
X132527226Y-101288971D02*
X132051036Y-101622304D01*
X132527226Y-101860399D02*
X131527226Y-101860399D01*
X131527226Y-101479447D01*
X131574846Y-101384209D01*
X131622465Y-101336590D01*
X131717703Y-101288971D01*
X131860560Y-101288971D01*
X131955798Y-101336590D01*
X132003417Y-101384209D01*
X132051036Y-101479447D01*
X132051036Y-101860399D01*
X131622465Y-100908018D02*
X131574846Y-100860399D01*
X131527226Y-100765161D01*
X131527226Y-100527066D01*
X131574846Y-100431828D01*
X131622465Y-100384209D01*
X131717703Y-100336590D01*
X131812941Y-100336590D01*
X131955798Y-100384209D01*
X132527226Y-100955637D01*
X132527226Y-100336590D01*
X131622465Y-99955637D02*
X131574846Y-99908018D01*
X131527226Y-99812780D01*
X131527226Y-99574685D01*
X131574846Y-99479447D01*
X131622465Y-99431828D01*
X131717703Y-99384209D01*
X131812941Y-99384209D01*
X131955798Y-99431828D01*
X132527226Y-100003256D01*
X132527226Y-99384209D01*
G04 #@! TO.C,R13*
X128481080Y-82011757D02*
X128004890Y-82345090D01*
X128481080Y-82583185D02*
X127481080Y-82583185D01*
X127481080Y-82202233D01*
X127528700Y-82106995D01*
X127576319Y-82059376D01*
X127671557Y-82011757D01*
X127814414Y-82011757D01*
X127909652Y-82059376D01*
X127957271Y-82106995D01*
X128004890Y-82202233D01*
X128004890Y-82583185D01*
X128481080Y-81059376D02*
X128481080Y-81630804D01*
X128481080Y-81345090D02*
X127481080Y-81345090D01*
X127623938Y-81440328D01*
X127719176Y-81535566D01*
X127766795Y-81630804D01*
X127481080Y-80726042D02*
X127481080Y-80106995D01*
X127862033Y-80440328D01*
X127862033Y-80297471D01*
X127909652Y-80202233D01*
X127957271Y-80154614D01*
X128052509Y-80106995D01*
X128290604Y-80106995D01*
X128385842Y-80154614D01*
X128433461Y-80202233D01*
X128481080Y-80297471D01*
X128481080Y-80583185D01*
X128433461Y-80678423D01*
X128385842Y-80726042D01*
G04 #@! TO.C,R23*
X137327826Y-111283871D02*
X136851636Y-111617204D01*
X137327826Y-111855299D02*
X136327826Y-111855299D01*
X136327826Y-111474347D01*
X136375446Y-111379109D01*
X136423065Y-111331490D01*
X136518303Y-111283871D01*
X136661160Y-111283871D01*
X136756398Y-111331490D01*
X136804017Y-111379109D01*
X136851636Y-111474347D01*
X136851636Y-111855299D01*
X136423065Y-110902918D02*
X136375446Y-110855299D01*
X136327826Y-110760061D01*
X136327826Y-110521966D01*
X136375446Y-110426728D01*
X136423065Y-110379109D01*
X136518303Y-110331490D01*
X136613541Y-110331490D01*
X136756398Y-110379109D01*
X137327826Y-110950537D01*
X137327826Y-110331490D01*
X136327826Y-109998156D02*
X136327826Y-109379109D01*
X136708779Y-109712442D01*
X136708779Y-109569585D01*
X136756398Y-109474347D01*
X136804017Y-109426728D01*
X136899255Y-109379109D01*
X137137350Y-109379109D01*
X137232588Y-109426728D01*
X137280207Y-109474347D01*
X137327826Y-109569585D01*
X137327826Y-109855299D01*
X137280207Y-109950537D01*
X137232588Y-109998156D01*
G04 #@! TO.C,R19*
X143149580Y-90190557D02*
X142673390Y-90523890D01*
X143149580Y-90761985D02*
X142149580Y-90761985D01*
X142149580Y-90381033D01*
X142197200Y-90285795D01*
X142244819Y-90238176D01*
X142340057Y-90190557D01*
X142482914Y-90190557D01*
X142578152Y-90238176D01*
X142625771Y-90285795D01*
X142673390Y-90381033D01*
X142673390Y-90761985D01*
X143149580Y-89238176D02*
X143149580Y-89809604D01*
X143149580Y-89523890D02*
X142149580Y-89523890D01*
X142292438Y-89619128D01*
X142387676Y-89714366D01*
X142435295Y-89809604D01*
X143149580Y-88761985D02*
X143149580Y-88571509D01*
X143101961Y-88476271D01*
X143054342Y-88428652D01*
X142911485Y-88333414D01*
X142721009Y-88285795D01*
X142340057Y-88285795D01*
X142244819Y-88333414D01*
X142197200Y-88381033D01*
X142149580Y-88476271D01*
X142149580Y-88666747D01*
X142197200Y-88761985D01*
X142244819Y-88809604D01*
X142340057Y-88857223D01*
X142578152Y-88857223D01*
X142673390Y-88809604D01*
X142721009Y-88761985D01*
X142768628Y-88666747D01*
X142768628Y-88476271D01*
X142721009Y-88381033D01*
X142673390Y-88333414D01*
X142578152Y-88285795D01*
G04 #@! TO.C,R18*
X144622780Y-85123257D02*
X144146590Y-85456590D01*
X144622780Y-85694685D02*
X143622780Y-85694685D01*
X143622780Y-85313733D01*
X143670400Y-85218495D01*
X143718019Y-85170876D01*
X143813257Y-85123257D01*
X143956114Y-85123257D01*
X144051352Y-85170876D01*
X144098971Y-85218495D01*
X144146590Y-85313733D01*
X144146590Y-85694685D01*
X144622780Y-84170876D02*
X144622780Y-84742304D01*
X144622780Y-84456590D02*
X143622780Y-84456590D01*
X143765638Y-84551828D01*
X143860876Y-84647066D01*
X143908495Y-84742304D01*
X144051352Y-83599447D02*
X144003733Y-83694685D01*
X143956114Y-83742304D01*
X143860876Y-83789923D01*
X143813257Y-83789923D01*
X143718019Y-83742304D01*
X143670400Y-83694685D01*
X143622780Y-83599447D01*
X143622780Y-83408971D01*
X143670400Y-83313733D01*
X143718019Y-83266114D01*
X143813257Y-83218495D01*
X143860876Y-83218495D01*
X143956114Y-83266114D01*
X144003733Y-83313733D01*
X144051352Y-83408971D01*
X144051352Y-83599447D01*
X144098971Y-83694685D01*
X144146590Y-83742304D01*
X144241828Y-83789923D01*
X144432304Y-83789923D01*
X144527542Y-83742304D01*
X144575161Y-83694685D01*
X144622780Y-83599447D01*
X144622780Y-83408971D01*
X144575161Y-83313733D01*
X144527542Y-83266114D01*
X144432304Y-83218495D01*
X144241828Y-83218495D01*
X144146590Y-83266114D01*
X144098971Y-83313733D01*
X144051352Y-83408971D01*
G04 #@! TO.C,R17*
X124744242Y-99436180D02*
X124410909Y-98959990D01*
X124172814Y-99436180D02*
X124172814Y-98436180D01*
X124553766Y-98436180D01*
X124649004Y-98483800D01*
X124696623Y-98531419D01*
X124744242Y-98626657D01*
X124744242Y-98769514D01*
X124696623Y-98864752D01*
X124649004Y-98912371D01*
X124553766Y-98959990D01*
X124172814Y-98959990D01*
X125696623Y-99436180D02*
X125125195Y-99436180D01*
X125410909Y-99436180D02*
X125410909Y-98436180D01*
X125315671Y-98579038D01*
X125220433Y-98674276D01*
X125125195Y-98721895D01*
X126029957Y-98436180D02*
X126696623Y-98436180D01*
X126268052Y-99436180D01*
G04 #@! TO.C,R16*
X129903480Y-91117657D02*
X129427290Y-91450990D01*
X129903480Y-91689085D02*
X128903480Y-91689085D01*
X128903480Y-91308133D01*
X128951100Y-91212895D01*
X128998719Y-91165276D01*
X129093957Y-91117657D01*
X129236814Y-91117657D01*
X129332052Y-91165276D01*
X129379671Y-91212895D01*
X129427290Y-91308133D01*
X129427290Y-91689085D01*
X129903480Y-90165276D02*
X129903480Y-90736704D01*
X129903480Y-90450990D02*
X128903480Y-90450990D01*
X129046338Y-90546228D01*
X129141576Y-90641466D01*
X129189195Y-90736704D01*
X128903480Y-89308133D02*
X128903480Y-89498609D01*
X128951100Y-89593847D01*
X128998719Y-89641466D01*
X129141576Y-89736704D01*
X129332052Y-89784323D01*
X129713004Y-89784323D01*
X129808242Y-89736704D01*
X129855861Y-89689085D01*
X129903480Y-89593847D01*
X129903480Y-89403371D01*
X129855861Y-89308133D01*
X129808242Y-89260514D01*
X129713004Y-89212895D01*
X129474909Y-89212895D01*
X129379671Y-89260514D01*
X129332052Y-89308133D01*
X129284433Y-89403371D01*
X129284433Y-89593847D01*
X129332052Y-89689085D01*
X129379671Y-89736704D01*
X129474909Y-89784323D01*
G04 #@! TO.C,R15*
X126982480Y-91117657D02*
X126506290Y-91450990D01*
X126982480Y-91689085D02*
X125982480Y-91689085D01*
X125982480Y-91308133D01*
X126030100Y-91212895D01*
X126077719Y-91165276D01*
X126172957Y-91117657D01*
X126315814Y-91117657D01*
X126411052Y-91165276D01*
X126458671Y-91212895D01*
X126506290Y-91308133D01*
X126506290Y-91689085D01*
X126982480Y-90165276D02*
X126982480Y-90736704D01*
X126982480Y-90450990D02*
X125982480Y-90450990D01*
X126125338Y-90546228D01*
X126220576Y-90641466D01*
X126268195Y-90736704D01*
X125982480Y-89260514D02*
X125982480Y-89736704D01*
X126458671Y-89784323D01*
X126411052Y-89736704D01*
X126363433Y-89641466D01*
X126363433Y-89403371D01*
X126411052Y-89308133D01*
X126458671Y-89260514D01*
X126553909Y-89212895D01*
X126792004Y-89212895D01*
X126887242Y-89260514D01*
X126934861Y-89308133D01*
X126982480Y-89403371D01*
X126982480Y-89641466D01*
X126934861Y-89736704D01*
X126887242Y-89784323D01*
G04 #@! TO.C,R14*
X116374942Y-109545380D02*
X116041609Y-109069190D01*
X115803514Y-109545380D02*
X115803514Y-108545380D01*
X116184466Y-108545380D01*
X116279704Y-108593000D01*
X116327323Y-108640619D01*
X116374942Y-108735857D01*
X116374942Y-108878714D01*
X116327323Y-108973952D01*
X116279704Y-109021571D01*
X116184466Y-109069190D01*
X115803514Y-109069190D01*
X117327323Y-109545380D02*
X116755895Y-109545380D01*
X117041609Y-109545380D02*
X117041609Y-108545380D01*
X116946371Y-108688238D01*
X116851133Y-108783476D01*
X116755895Y-108831095D01*
X118184466Y-108878714D02*
X118184466Y-109545380D01*
X117946371Y-108497761D02*
X117708276Y-109212047D01*
X118327323Y-109212047D01*
G04 #@! TO.C,R4*
X65908180Y-91454266D02*
X65431990Y-91787600D01*
X65908180Y-92025695D02*
X64908180Y-92025695D01*
X64908180Y-91644742D01*
X64955800Y-91549504D01*
X65003419Y-91501885D01*
X65098657Y-91454266D01*
X65241514Y-91454266D01*
X65336752Y-91501885D01*
X65384371Y-91549504D01*
X65431990Y-91644742D01*
X65431990Y-92025695D01*
X65241514Y-90597123D02*
X65908180Y-90597123D01*
X64860561Y-90835219D02*
X65574847Y-91073314D01*
X65574847Y-90454266D01*
G04 #@! TO.C,R5*
X67089280Y-83935866D02*
X66613090Y-84269200D01*
X67089280Y-84507295D02*
X66089280Y-84507295D01*
X66089280Y-84126342D01*
X66136900Y-84031104D01*
X66184519Y-83983485D01*
X66279757Y-83935866D01*
X66422614Y-83935866D01*
X66517852Y-83983485D01*
X66565471Y-84031104D01*
X66613090Y-84126342D01*
X66613090Y-84507295D01*
X66089280Y-83031104D02*
X66089280Y-83507295D01*
X66565471Y-83554914D01*
X66517852Y-83507295D01*
X66470233Y-83412057D01*
X66470233Y-83173961D01*
X66517852Y-83078723D01*
X66565471Y-83031104D01*
X66660709Y-82983485D01*
X66898804Y-82983485D01*
X66994042Y-83031104D01*
X67041661Y-83078723D01*
X67089280Y-83173961D01*
X67089280Y-83412057D01*
X67041661Y-83507295D01*
X66994042Y-83554914D01*
G04 #@! TO.C,R6*
X75499933Y-101391980D02*
X75166600Y-100915790D01*
X74928504Y-101391980D02*
X74928504Y-100391980D01*
X75309457Y-100391980D01*
X75404695Y-100439600D01*
X75452314Y-100487219D01*
X75499933Y-100582457D01*
X75499933Y-100725314D01*
X75452314Y-100820552D01*
X75404695Y-100868171D01*
X75309457Y-100915790D01*
X74928504Y-100915790D01*
X76357076Y-100391980D02*
X76166600Y-100391980D01*
X76071361Y-100439600D01*
X76023742Y-100487219D01*
X75928504Y-100630076D01*
X75880885Y-100820552D01*
X75880885Y-101201504D01*
X75928504Y-101296742D01*
X75976123Y-101344361D01*
X76071361Y-101391980D01*
X76261838Y-101391980D01*
X76357076Y-101344361D01*
X76404695Y-101296742D01*
X76452314Y-101201504D01*
X76452314Y-100963409D01*
X76404695Y-100868171D01*
X76357076Y-100820552D01*
X76261838Y-100772933D01*
X76071361Y-100772933D01*
X75976123Y-100820552D01*
X75928504Y-100868171D01*
X75880885Y-100963409D01*
G04 #@! TO.C,R7*
X84057066Y-113515019D02*
X83718400Y-113031209D01*
X83476495Y-113515019D02*
X83476495Y-112499019D01*
X83863542Y-112499019D01*
X83960304Y-112547400D01*
X84008685Y-112595780D01*
X84057066Y-112692542D01*
X84057066Y-112837685D01*
X84008685Y-112934447D01*
X83960304Y-112982828D01*
X83863542Y-113031209D01*
X83476495Y-113031209D01*
X84395733Y-112499019D02*
X85073066Y-112499019D01*
X84637638Y-113515019D01*
G04 #@! TO.C,R12*
X148632942Y-79217780D02*
X148299609Y-78741590D01*
X148061514Y-79217780D02*
X148061514Y-78217780D01*
X148442466Y-78217780D01*
X148537704Y-78265400D01*
X148585323Y-78313019D01*
X148632942Y-78408257D01*
X148632942Y-78551114D01*
X148585323Y-78646352D01*
X148537704Y-78693971D01*
X148442466Y-78741590D01*
X148061514Y-78741590D01*
X149585323Y-79217780D02*
X149013895Y-79217780D01*
X149299609Y-79217780D02*
X149299609Y-78217780D01*
X149204371Y-78360638D01*
X149109133Y-78455876D01*
X149013895Y-78503495D01*
X149966276Y-78313019D02*
X150013895Y-78265400D01*
X150109133Y-78217780D01*
X150347228Y-78217780D01*
X150442466Y-78265400D01*
X150490085Y-78313019D01*
X150537704Y-78408257D01*
X150537704Y-78503495D01*
X150490085Y-78646352D01*
X149918657Y-79217780D01*
X150537704Y-79217780D01*
G04 #@! TO.C,R9*
X76030080Y-85624966D02*
X75553890Y-85958300D01*
X76030080Y-86196395D02*
X75030080Y-86196395D01*
X75030080Y-85815442D01*
X75077700Y-85720204D01*
X75125319Y-85672585D01*
X75220557Y-85624966D01*
X75363414Y-85624966D01*
X75458652Y-85672585D01*
X75506271Y-85720204D01*
X75553890Y-85815442D01*
X75553890Y-86196395D01*
X76030080Y-85148776D02*
X76030080Y-84958300D01*
X75982461Y-84863061D01*
X75934842Y-84815442D01*
X75791985Y-84720204D01*
X75601509Y-84672585D01*
X75220557Y-84672585D01*
X75125319Y-84720204D01*
X75077700Y-84767823D01*
X75030080Y-84863061D01*
X75030080Y-85053538D01*
X75077700Y-85148776D01*
X75125319Y-85196395D01*
X75220557Y-85244014D01*
X75458652Y-85244014D01*
X75553890Y-85196395D01*
X75601509Y-85148776D01*
X75649128Y-85053538D01*
X75649128Y-84863061D01*
X75601509Y-84767823D01*
X75553890Y-84720204D01*
X75458652Y-84672585D01*
G04 #@! TO.C,R10*
X76763642Y-82265780D02*
X76430309Y-81789590D01*
X76192214Y-82265780D02*
X76192214Y-81265780D01*
X76573166Y-81265780D01*
X76668404Y-81313400D01*
X76716023Y-81361019D01*
X76763642Y-81456257D01*
X76763642Y-81599114D01*
X76716023Y-81694352D01*
X76668404Y-81741971D01*
X76573166Y-81789590D01*
X76192214Y-81789590D01*
X77716023Y-82265780D02*
X77144595Y-82265780D01*
X77430309Y-82265780D02*
X77430309Y-81265780D01*
X77335071Y-81408638D01*
X77239833Y-81503876D01*
X77144595Y-81551495D01*
X78335071Y-81265780D02*
X78430309Y-81265780D01*
X78525547Y-81313400D01*
X78573166Y-81361019D01*
X78620785Y-81456257D01*
X78668404Y-81646733D01*
X78668404Y-81884828D01*
X78620785Y-82075304D01*
X78573166Y-82170542D01*
X78525547Y-82218161D01*
X78430309Y-82265780D01*
X78335071Y-82265780D01*
X78239833Y-82218161D01*
X78192214Y-82170542D01*
X78144595Y-82075304D01*
X78096976Y-81884828D01*
X78096976Y-81646733D01*
X78144595Y-81456257D01*
X78192214Y-81361019D01*
X78239833Y-81313400D01*
X78335071Y-81265780D01*
G04 #@! TO.C,R11*
X98757619Y-107028342D02*
X98273809Y-107367009D01*
X98757619Y-107608914D02*
X97741619Y-107608914D01*
X97741619Y-107221866D01*
X97790000Y-107125104D01*
X97838380Y-107076723D01*
X97935142Y-107028342D01*
X98080285Y-107028342D01*
X98177047Y-107076723D01*
X98225428Y-107125104D01*
X98273809Y-107221866D01*
X98273809Y-107608914D01*
X98757619Y-106060723D02*
X98757619Y-106641295D01*
X98757619Y-106351009D02*
X97741619Y-106351009D01*
X97886761Y-106447771D01*
X97983523Y-106544533D01*
X98031904Y-106641295D01*
X98757619Y-105093104D02*
X98757619Y-105673676D01*
X98757619Y-105383390D02*
X97741619Y-105383390D01*
X97886761Y-105480152D01*
X97983523Y-105576914D01*
X98031904Y-105673676D01*
G04 #@! TO.C,R1*
X61437780Y-84189866D02*
X60961590Y-84523200D01*
X61437780Y-84761295D02*
X60437780Y-84761295D01*
X60437780Y-84380342D01*
X60485400Y-84285104D01*
X60533019Y-84237485D01*
X60628257Y-84189866D01*
X60771114Y-84189866D01*
X60866352Y-84237485D01*
X60913971Y-84285104D01*
X60961590Y-84380342D01*
X60961590Y-84761295D01*
X61437780Y-83237485D02*
X61437780Y-83808914D01*
X61437780Y-83523200D02*
X60437780Y-83523200D01*
X60580638Y-83618438D01*
X60675876Y-83713676D01*
X60723495Y-83808914D01*
G04 #@! TO.C,R2*
X64066680Y-83948566D02*
X63590490Y-84281900D01*
X64066680Y-84519995D02*
X63066680Y-84519995D01*
X63066680Y-84139042D01*
X63114300Y-84043804D01*
X63161919Y-83996185D01*
X63257157Y-83948566D01*
X63400014Y-83948566D01*
X63495252Y-83996185D01*
X63542871Y-84043804D01*
X63590490Y-84139042D01*
X63590490Y-84519995D01*
X63161919Y-83567614D02*
X63114300Y-83519995D01*
X63066680Y-83424757D01*
X63066680Y-83186661D01*
X63114300Y-83091423D01*
X63161919Y-83043804D01*
X63257157Y-82996185D01*
X63352395Y-82996185D01*
X63495252Y-83043804D01*
X64066680Y-83615233D01*
X64066680Y-82996185D01*
G04 #@! TO.C,R8*
X80795833Y-113380780D02*
X80462500Y-112904590D01*
X80224404Y-113380780D02*
X80224404Y-112380780D01*
X80605357Y-112380780D01*
X80700595Y-112428400D01*
X80748214Y-112476019D01*
X80795833Y-112571257D01*
X80795833Y-112714114D01*
X80748214Y-112809352D01*
X80700595Y-112856971D01*
X80605357Y-112904590D01*
X80224404Y-112904590D01*
X81367261Y-112809352D02*
X81272023Y-112761733D01*
X81224404Y-112714114D01*
X81176785Y-112618876D01*
X81176785Y-112571257D01*
X81224404Y-112476019D01*
X81272023Y-112428400D01*
X81367261Y-112380780D01*
X81557738Y-112380780D01*
X81652976Y-112428400D01*
X81700595Y-112476019D01*
X81748214Y-112571257D01*
X81748214Y-112618876D01*
X81700595Y-112714114D01*
X81652976Y-112761733D01*
X81557738Y-112809352D01*
X81367261Y-112809352D01*
X81272023Y-112856971D01*
X81224404Y-112904590D01*
X81176785Y-112999828D01*
X81176785Y-113190304D01*
X81224404Y-113285542D01*
X81272023Y-113333161D01*
X81367261Y-113380780D01*
X81557738Y-113380780D01*
X81652976Y-113333161D01*
X81700595Y-113285542D01*
X81748214Y-113190304D01*
X81748214Y-112999828D01*
X81700595Y-112904590D01*
X81652976Y-112856971D01*
X81557738Y-112809352D01*
G04 #@! TO.C,U5*
X142976695Y-86599780D02*
X142976695Y-87409304D01*
X143024314Y-87504542D01*
X143071933Y-87552161D01*
X143167171Y-87599780D01*
X143357647Y-87599780D01*
X143452885Y-87552161D01*
X143500504Y-87504542D01*
X143548123Y-87409304D01*
X143548123Y-86599780D01*
X144500504Y-86599780D02*
X144024314Y-86599780D01*
X143976695Y-87075971D01*
X144024314Y-87028352D01*
X144119552Y-86980733D01*
X144357647Y-86980733D01*
X144452885Y-87028352D01*
X144500504Y-87075971D01*
X144548123Y-87171209D01*
X144548123Y-87409304D01*
X144500504Y-87504542D01*
X144452885Y-87552161D01*
X144357647Y-87599780D01*
X144119552Y-87599780D01*
X144024314Y-87552161D01*
X143976695Y-87504542D01*
G04 #@! TO.C,U3*
X75845330Y-99540897D02*
X76654854Y-99540897D01*
X76750092Y-99493278D01*
X76797711Y-99445659D01*
X76845330Y-99350421D01*
X76845330Y-99159945D01*
X76797711Y-99064707D01*
X76750092Y-99017088D01*
X76654854Y-98969469D01*
X75845330Y-98969469D01*
X75845330Y-98588516D02*
X75845330Y-97969469D01*
X76226283Y-98302802D01*
X76226283Y-98159945D01*
X76273902Y-98064707D01*
X76321521Y-98017088D01*
X76416759Y-97969469D01*
X76654854Y-97969469D01*
X76750092Y-98017088D01*
X76797711Y-98064707D01*
X76845330Y-98159945D01*
X76845330Y-98445659D01*
X76797711Y-98540897D01*
X76750092Y-98588516D01*
G04 #@! TO.C,U7*
X130973580Y-104978104D02*
X131783104Y-104978104D01*
X131878342Y-104930485D01*
X131925961Y-104882866D01*
X131973580Y-104787628D01*
X131973580Y-104597152D01*
X131925961Y-104501914D01*
X131878342Y-104454295D01*
X131783104Y-104406676D01*
X130973580Y-104406676D01*
X130973580Y-104025723D02*
X130973580Y-103359057D01*
X131973580Y-103787628D01*
G04 #@! TD*
M02*
