G04 #@! TF.GenerationSoftware,KiCad,Pcbnew,(5.0.0)*
G04 #@! TF.CreationDate,2020-02-24T01:00:23-08:00*
G04 #@! TF.ProjectId,PowerShuffler,506F77657253687566666C65722E6B69,rev?*
G04 #@! TF.SameCoordinates,Original*
G04 #@! TF.FileFunction,Soldermask,Bot*
G04 #@! TF.FilePolarity,Negative*
%FSLAX46Y46*%
G04 Gerber Fmt 4.6, Leading zero omitted, Abs format (unit mm)*
G04 Created by KiCad (PCBNEW (5.0.0)) date 02/24/20 01:00:23*
%MOMM*%
%LPD*%
G01*
G04 APERTURE LIST*
%ADD10R,2.400000X3.000000*%
%ADD11O,2.400000X3.000000*%
%ADD12R,1.900000X1.900000*%
%ADD13C,1.900000*%
%ADD14C,3.500000*%
%ADD15C,6.316000*%
%ADD16C,2.400000*%
%ADD17R,2.400000X2.400000*%
%ADD18C,1.466800*%
%ADD19C,1.619200*%
G04 APERTURE END LIST*
D10*
G04 #@! TO.C,J2*
X68237100Y-109385100D03*
D11*
X70777100Y-108785100D03*
X73317100Y-109385100D03*
X75857100Y-108785100D03*
X78397100Y-109385100D03*
G04 #@! TD*
D10*
G04 #@! TO.C,J4*
X136436100Y-95140500D03*
D11*
X133896100Y-95740500D03*
X131356100Y-95140500D03*
X128816100Y-95740500D03*
X126276100Y-95140500D03*
G04 #@! TD*
D12*
G04 #@! TO.C,J3*
X146405600Y-99259000D03*
D13*
X146405600Y-102259000D03*
D14*
X150725600Y-100759000D03*
G04 #@! TD*
D12*
G04 #@! TO.C,J1*
X62903100Y-103759000D03*
D13*
X62903100Y-100759000D03*
X62903100Y-97759000D03*
D14*
X58583100Y-100759000D03*
G04 #@! TD*
D15*
G04 #@! TO.C,MNT1*
X57150000Y-74676000D03*
G04 #@! TD*
G04 #@! TO.C,MNT2*
X152146000Y-74676000D03*
G04 #@! TD*
G04 #@! TO.C,MNT3*
X57150000Y-112522000D03*
G04 #@! TD*
G04 #@! TO.C,MNT4*
X152146000Y-112522000D03*
G04 #@! TD*
D16*
G04 #@! TO.C,U4*
X113868200Y-74663300D03*
X113868200Y-94983300D03*
X93548200Y-74663300D03*
X93548200Y-82283300D03*
D17*
X93548200Y-87363300D03*
G04 #@! TD*
D18*
X69011800Y-87350600D03*
X81280000Y-77038200D03*
X76479400Y-91846400D03*
X81280000Y-74447400D03*
X71577200Y-81635600D03*
X71475600Y-83134200D03*
X69189600Y-89839800D03*
X100965000Y-113842800D03*
X88468200Y-95300800D03*
X95554800Y-95300800D03*
X100584000Y-73609200D03*
X56286400Y-79070200D03*
X61569600Y-73583800D03*
X56464200Y-106629200D03*
X60426600Y-109245400D03*
X85140800Y-74244200D03*
X73380600Y-103860600D03*
X79375000Y-100838000D03*
X83743800Y-110947200D03*
X139509500Y-107784900D03*
X148412200Y-76784200D03*
X151942800Y-89154000D03*
D19*
X129794000Y-80010000D03*
D18*
X140843000Y-88112600D03*
X113157000Y-113639600D03*
X114096800Y-108686600D03*
X117678200Y-98704400D03*
X117475000Y-85902800D03*
X152755600Y-79044800D03*
X135432800Y-113182400D03*
X147142200Y-113080800D03*
X151892000Y-107569000D03*
X125704600Y-73304400D03*
X133629400Y-81711800D03*
X133629400Y-83159600D03*
X144043400Y-96901000D03*
X126365000Y-112687100D03*
X131394200Y-86499700D03*
X119913400Y-111429800D03*
X143586200Y-77165200D03*
X142824200Y-74498200D03*
X131381500Y-106452150D03*
X81457800Y-96901000D03*
X100076000Y-106743500D03*
X76454000Y-96164400D03*
X95224600Y-110540800D03*
X66586100Y-80048100D03*
D19*
X68364100Y-99517200D03*
D18*
X78816200Y-88087200D03*
D19*
X81572100Y-109093000D03*
M02*
