G04 #@! TF.GenerationSoftware,KiCad,Pcbnew,(5.0.0)*
G04 #@! TF.CreationDate,2020-02-24T01:00:23-08:00*
G04 #@! TF.ProjectId,PowerShuffler,506F77657253687566666C65722E6B69,rev?*
G04 #@! TF.SameCoordinates,Original*
G04 #@! TF.FileFunction,Copper,L4,Bot,Signal*
G04 #@! TF.FilePolarity,Positive*
%FSLAX46Y46*%
G04 Gerber Fmt 4.6, Leading zero omitted, Abs format (unit mm)*
G04 Created by KiCad (PCBNEW (5.0.0)) date 02/24/20 01:00:23*
%MOMM*%
%LPD*%
G01*
G04 APERTURE LIST*
G04 #@! TA.AperFunction,ComponentPad*
%ADD10R,2.000000X2.600000*%
G04 #@! TD*
G04 #@! TA.AperFunction,ComponentPad*
%ADD11O,2.000000X2.600000*%
G04 #@! TD*
G04 #@! TA.AperFunction,ComponentPad*
%ADD12R,1.500000X1.500000*%
G04 #@! TD*
G04 #@! TA.AperFunction,ComponentPad*
%ADD13C,1.500000*%
G04 #@! TD*
G04 #@! TA.AperFunction,ComponentPad*
%ADD14C,5.300000*%
G04 #@! TD*
G04 #@! TA.AperFunction,ComponentPad*
%ADD15C,2.000000*%
G04 #@! TD*
G04 #@! TA.AperFunction,ComponentPad*
%ADD16R,2.000000X2.000000*%
G04 #@! TD*
G04 #@! TA.AperFunction,ViaPad*
%ADD17C,1.066800*%
G04 #@! TD*
G04 #@! TA.AperFunction,ViaPad*
%ADD18C,1.219200*%
G04 #@! TD*
G04 #@! TA.AperFunction,Conductor*
%ADD19C,0.381000*%
G04 #@! TD*
G04 #@! TA.AperFunction,Conductor*
%ADD20C,0.762000*%
G04 #@! TD*
G04 #@! TA.AperFunction,Conductor*
%ADD21C,0.203200*%
G04 #@! TD*
G04 APERTURE END LIST*
D10*
G04 #@! TO.P,J2,1*
G04 #@! TO.N,+3V3*
X68237100Y-109385100D03*
D11*
G04 #@! TO.P,J2,2*
G04 #@! TO.N,/PB3_1*
X70777100Y-108785100D03*
G04 #@! TO.P,J2,3*
G04 #@! TO.N,GND*
X73317100Y-109385100D03*
G04 #@! TO.P,J2,4*
G04 #@! TO.N,/PB0_1*
X75857100Y-108785100D03*
G04 #@! TO.P,J2,5*
G04 #@! TO.N,/PB1_1*
X78397100Y-109385100D03*
G04 #@! TD*
D10*
G04 #@! TO.P,J4,1*
G04 #@! TO.N,+3.3VA*
X136436100Y-95140500D03*
D11*
G04 #@! TO.P,J4,2*
G04 #@! TO.N,/PB3_2*
X133896100Y-95740500D03*
G04 #@! TO.P,J4,3*
G04 #@! TO.N,GNDA*
X131356100Y-95140500D03*
G04 #@! TO.P,J4,4*
G04 #@! TO.N,/PB0_2*
X128816100Y-95740500D03*
G04 #@! TO.P,J4,5*
G04 #@! TO.N,/PB1_2*
X126276100Y-95140500D03*
G04 #@! TD*
D12*
G04 #@! TO.P,J3,1*
G04 #@! TO.N,/VBATT*
X146405600Y-99259000D03*
D13*
G04 #@! TO.P,J3,2*
G04 #@! TO.N,GNDA*
X146405600Y-102259000D03*
G04 #@! TD*
D12*
G04 #@! TO.P,J1,1*
G04 #@! TO.N,Net-(F1-Pad2)*
X62903100Y-103759000D03*
D13*
G04 #@! TO.P,J1,2*
G04 #@! TO.N,Net-(J1-Pad2)*
X62903100Y-100759000D03*
G04 #@! TO.P,J1,3*
G04 #@! TO.N,GND*
X62903100Y-97759000D03*
G04 #@! TD*
D14*
G04 #@! TO.P,MNT1,*
G04 #@! TO.N,*
X57150000Y-74676000D03*
G04 #@! TD*
G04 #@! TO.P,MNT2,*
G04 #@! TO.N,*
X152146000Y-74676000D03*
G04 #@! TD*
G04 #@! TO.P,MNT3,*
G04 #@! TO.N,*
X57150000Y-112522000D03*
G04 #@! TD*
G04 #@! TO.P,MNT4,*
G04 #@! TO.N,*
X152146000Y-112522000D03*
G04 #@! TD*
D15*
G04 #@! TO.P,U4,4*
G04 #@! TO.N,GNDA*
X113868200Y-74663300D03*
G04 #@! TO.P,U4,3*
G04 #@! TO.N,+5VA*
X113868200Y-94983300D03*
G04 #@! TO.P,U4,5*
G04 #@! TO.N,Net-(U4-Pad5)*
X93548200Y-74663300D03*
G04 #@! TO.P,U4,2*
G04 #@! TO.N,GND*
X93548200Y-82283300D03*
D16*
G04 #@! TO.P,U4,1*
G04 #@! TO.N,/36VSWITCH*
X93548200Y-87363300D03*
G04 #@! TD*
D17*
G04 #@! TO.N,+3V3*
X69011800Y-87350600D03*
X81280000Y-77038200D03*
X76479400Y-91846400D03*
X81280000Y-74447400D03*
G04 #@! TO.N,GND*
X71577200Y-81635600D03*
X71475600Y-83134200D03*
X69189600Y-89839800D03*
X100965000Y-113842800D03*
X88468200Y-95300800D03*
X95554800Y-95300800D03*
X100584000Y-73609200D03*
X56286400Y-79070200D03*
X61569600Y-73583800D03*
X56464200Y-106629200D03*
X60426600Y-109245400D03*
X85140800Y-74244200D03*
X73380600Y-103860600D03*
X79375000Y-100838000D03*
X83743800Y-110947200D03*
G04 #@! TO.N,+5VA*
X139509500Y-107784900D03*
X148412200Y-76784200D03*
X151942800Y-89154000D03*
D18*
X129794000Y-80010000D03*
D17*
X140843000Y-88112600D03*
G04 #@! TO.N,GNDA*
X113157000Y-113639600D03*
X114096800Y-108686600D03*
X117678200Y-98704400D03*
X117475000Y-85902800D03*
X152755600Y-79044800D03*
X135432800Y-113182400D03*
X147142200Y-113080800D03*
X151892000Y-107569000D03*
X125704600Y-73304400D03*
X133629400Y-81711800D03*
X133629400Y-83159600D03*
X144043400Y-96901000D03*
G04 #@! TO.N,+3.3VA*
X126365000Y-112687100D03*
X131394200Y-86499700D03*
X119913400Y-111429800D03*
X143586200Y-77165200D03*
X142824200Y-74498200D03*
G04 #@! TO.N,/PB3_2*
X131381500Y-106452150D03*
G04 #@! TO.N,/PB2_1*
X81457800Y-96901000D03*
X100076000Y-106743500D03*
G04 #@! TO.N,/PB3_1*
X76454000Y-96164400D03*
X95224600Y-110540800D03*
G04 #@! TO.N,+36V*
X66586100Y-80048100D03*
D18*
X68364100Y-99517200D03*
D17*
X78816200Y-88087200D03*
D18*
X81572100Y-109093000D03*
G04 #@! TD*
D19*
G04 #@! TO.N,+3V3*
X76479400Y-91846400D02*
X79006700Y-91846400D01*
X81280000Y-89573100D02*
X81280000Y-77038200D01*
X79006700Y-91846400D02*
X81280000Y-89573100D01*
X68237100Y-104521000D02*
X68237100Y-109385100D01*
X74968100Y-97790000D02*
X68237100Y-104521000D01*
X74968100Y-95999300D02*
X74968100Y-97790000D01*
X76479400Y-91846400D02*
X76479400Y-94488000D01*
X76479400Y-94488000D02*
X74968100Y-95999300D01*
X69011800Y-81178400D02*
X69011800Y-87350600D01*
X81280000Y-74447400D02*
X75742800Y-74447400D01*
X75742800Y-74447400D02*
X69011800Y-81178400D01*
D20*
G04 #@! TO.N,+5VA*
X151942800Y-81610200D02*
X151942800Y-89154000D01*
X148412200Y-76784200D02*
X148412200Y-78079600D01*
X148412200Y-78079600D02*
X151942800Y-81610200D01*
D19*
X140843000Y-88112600D02*
X140868400Y-88112600D01*
D20*
X129794000Y-77495400D02*
X129794000Y-80010000D01*
X134518400Y-72771000D02*
X129794000Y-77495400D01*
X144449800Y-72771000D02*
X134518400Y-72771000D01*
X148412200Y-76784200D02*
X148412200Y-76733400D01*
D19*
X140843000Y-88112600D02*
X146608800Y-82346800D01*
D20*
X148412200Y-76733400D02*
X146608800Y-74930000D01*
X146608800Y-74930000D02*
X144449800Y-72771000D01*
D19*
X139509500Y-91198700D02*
X139509500Y-107784900D01*
X146608800Y-82346800D02*
X146608800Y-84099400D01*
X146608800Y-84099400D02*
X139509500Y-91198700D01*
D20*
X146608800Y-78587600D02*
X146608800Y-82346800D01*
X148412200Y-76784200D02*
X146608800Y-78587600D01*
G04 #@! TO.N,+3.3VA*
X136436100Y-95140500D02*
X136436100Y-99910900D01*
X136436100Y-99910900D02*
X134010400Y-102336600D01*
X134010400Y-102336600D02*
X134010400Y-107264200D01*
X128587500Y-112687100D02*
X126365000Y-112687100D01*
X134010400Y-107264200D02*
X128587500Y-112687100D01*
X123913900Y-112687100D02*
X126365000Y-112687100D01*
X119913400Y-111429800D02*
X122656600Y-111429800D01*
X122656600Y-111429800D02*
X123913900Y-112687100D01*
X136436100Y-84340700D02*
X136436100Y-95140500D01*
X143586200Y-77165200D02*
X143586200Y-77190600D01*
X143586200Y-77190600D02*
X136436100Y-84340700D01*
X131394200Y-77851000D02*
X131394200Y-86499700D01*
X135280400Y-73964800D02*
X131394200Y-77851000D01*
X142824200Y-74498200D02*
X142290800Y-73964800D01*
X142290800Y-73964800D02*
X135280400Y-73964800D01*
D19*
G04 #@! TO.N,/PB3_2*
X133896100Y-98031300D02*
X133896100Y-95740500D01*
X131381500Y-106452150D02*
X131381500Y-100545900D01*
X131381500Y-100545900D02*
X133896100Y-98031300D01*
G04 #@! TO.N,/PB2_1*
X91300300Y-106743500D02*
X81457800Y-96901000D01*
X100076000Y-106743500D02*
X91300300Y-106743500D01*
G04 #@! TO.N,/PB3_1*
X76454000Y-96164400D02*
X76454000Y-98577400D01*
X70777100Y-104254300D02*
X70777100Y-108785100D01*
X76454000Y-98577400D02*
X70777100Y-104254300D01*
X89636600Y-110540800D02*
X95224600Y-110540800D01*
X84569300Y-105473500D02*
X89636600Y-110540800D01*
X74079100Y-105473500D02*
X84569300Y-105473500D01*
X70777100Y-108785100D02*
X70777100Y-108775500D01*
X70777100Y-108775500D02*
X74079100Y-105473500D01*
D20*
G04 #@! TO.N,+36V*
X68364100Y-99517200D02*
X68364100Y-97980500D01*
X68364100Y-97980500D02*
X64554100Y-94170500D01*
X64554100Y-82080100D02*
X66586100Y-80048100D01*
X64554100Y-94170500D02*
X64554100Y-82080100D01*
D19*
X73799700Y-88087200D02*
X78816200Y-88087200D01*
X68364100Y-99517200D02*
X68364100Y-93522800D01*
X68364100Y-93522800D02*
X73799700Y-88087200D01*
D20*
X68364100Y-99517200D02*
X68364100Y-100761800D01*
X68364100Y-100761800D02*
X65379600Y-103746300D01*
X65379600Y-103746300D02*
X65379600Y-111582200D01*
X65379600Y-111582200D02*
X66535300Y-112737900D01*
X66535300Y-112737900D02*
X80149700Y-112737900D01*
X81572100Y-111315500D02*
X81572100Y-109093000D01*
X80149700Y-112737900D02*
X81572100Y-111315500D01*
G04 #@! TD*
D21*
G04 #@! TO.N,GND*
G36*
X101904800Y-114706400D02*
X59503528Y-114706400D01*
X59870289Y-114339639D01*
X60358800Y-113160270D01*
X60358800Y-111883730D01*
X59870289Y-110704361D01*
X58967639Y-109801711D01*
X57788270Y-109313200D01*
X56511730Y-109313200D01*
X55332361Y-109801711D01*
X54965600Y-110168472D01*
X54965600Y-103009000D01*
X61583353Y-103009000D01*
X61583353Y-104509000D01*
X61626722Y-104727033D01*
X61750228Y-104911872D01*
X61935067Y-105035378D01*
X62153100Y-105078747D01*
X63653100Y-105078747D01*
X63871133Y-105035378D01*
X64055972Y-104911872D01*
X64179478Y-104727033D01*
X64222847Y-104509000D01*
X64222847Y-103009000D01*
X64179478Y-102790967D01*
X64055972Y-102606128D01*
X63871133Y-102482622D01*
X63653100Y-102439253D01*
X62153100Y-102439253D01*
X61935067Y-102482622D01*
X61750228Y-102606128D01*
X61626722Y-102790967D01*
X61583353Y-103009000D01*
X54965600Y-103009000D01*
X54965600Y-100339534D01*
X56474300Y-100339534D01*
X56474300Y-101178466D01*
X56795346Y-101953539D01*
X57388561Y-102546754D01*
X58163634Y-102867800D01*
X59002566Y-102867800D01*
X59777639Y-102546754D01*
X60370854Y-101953539D01*
X60691900Y-101178466D01*
X60691900Y-100498663D01*
X61594300Y-100498663D01*
X61594300Y-101019337D01*
X61793553Y-101500376D01*
X62161724Y-101868547D01*
X62642763Y-102067800D01*
X63163437Y-102067800D01*
X63644476Y-101868547D01*
X64012647Y-101500376D01*
X64211900Y-101019337D01*
X64211900Y-100498663D01*
X64012647Y-100017624D01*
X63644476Y-99649453D01*
X63163437Y-99450200D01*
X62642763Y-99450200D01*
X62161724Y-99649453D01*
X61793553Y-100017624D01*
X61594300Y-100498663D01*
X60691900Y-100498663D01*
X60691900Y-100339534D01*
X60370854Y-99564461D01*
X59777639Y-98971246D01*
X59134071Y-98704671D01*
X62172955Y-98704671D01*
X62247161Y-98921100D01*
X62741808Y-99083658D01*
X63261011Y-99044548D01*
X63559039Y-98921100D01*
X63633245Y-98704671D01*
X62903100Y-97974526D01*
X62172955Y-98704671D01*
X59134071Y-98704671D01*
X59002566Y-98650200D01*
X58163634Y-98650200D01*
X57388561Y-98971246D01*
X56795346Y-99564461D01*
X56474300Y-100339534D01*
X54965600Y-100339534D01*
X54965600Y-97597708D01*
X61578442Y-97597708D01*
X61617552Y-98116911D01*
X61741000Y-98414939D01*
X61957429Y-98489145D01*
X62687574Y-97759000D01*
X63118626Y-97759000D01*
X63848771Y-98489145D01*
X64065200Y-98414939D01*
X64227758Y-97920292D01*
X64188648Y-97401089D01*
X64065200Y-97103061D01*
X63848771Y-97028855D01*
X63118626Y-97759000D01*
X62687574Y-97759000D01*
X61957429Y-97028855D01*
X61741000Y-97103061D01*
X61578442Y-97597708D01*
X54965600Y-97597708D01*
X54965600Y-96813329D01*
X62172955Y-96813329D01*
X62903100Y-97543474D01*
X63633245Y-96813329D01*
X63559039Y-96596900D01*
X63064392Y-96434342D01*
X62545189Y-96473452D01*
X62247161Y-96596900D01*
X62172955Y-96813329D01*
X54965600Y-96813329D01*
X54965600Y-82080100D01*
X63595890Y-82080100D01*
X63614301Y-82172659D01*
X63614300Y-94077946D01*
X63595890Y-94170500D01*
X63614300Y-94263054D01*
X63614300Y-94263058D01*
X63668828Y-94537190D01*
X63876543Y-94848057D01*
X63955011Y-94900488D01*
X67424301Y-98369779D01*
X67424300Y-98804634D01*
X67373579Y-98855355D01*
X67195700Y-99284791D01*
X67195700Y-99749609D01*
X67373579Y-100179045D01*
X67424301Y-100229767D01*
X67424301Y-100372521D01*
X64780511Y-103016312D01*
X64702043Y-103068743D01*
X64494328Y-103379610D01*
X64439800Y-103653742D01*
X64439800Y-103653746D01*
X64421390Y-103746300D01*
X64439800Y-103838854D01*
X64439801Y-111489641D01*
X64421390Y-111582200D01*
X64494329Y-111948892D01*
X64649612Y-112181289D01*
X64649615Y-112181292D01*
X64702044Y-112259757D01*
X64780508Y-112312185D01*
X65805314Y-113336992D01*
X65857743Y-113415457D01*
X65936208Y-113467886D01*
X65936210Y-113467888D01*
X66099223Y-113576809D01*
X66168609Y-113623172D01*
X66442741Y-113677700D01*
X66442746Y-113677700D01*
X66535300Y-113696110D01*
X66627854Y-113677700D01*
X80057146Y-113677700D01*
X80149700Y-113696110D01*
X80242254Y-113677700D01*
X80242259Y-113677700D01*
X80516391Y-113623172D01*
X80827257Y-113415457D01*
X80879687Y-113336990D01*
X82171193Y-112045485D01*
X82249657Y-111993057D01*
X82322708Y-111883730D01*
X82457371Y-111682193D01*
X82457371Y-111682192D01*
X82457372Y-111682191D01*
X82511900Y-111408059D01*
X82511900Y-111408055D01*
X82530310Y-111315501D01*
X82511900Y-111222947D01*
X82511900Y-109805566D01*
X82562621Y-109754845D01*
X82740500Y-109325409D01*
X82740500Y-108860591D01*
X82562621Y-108431155D01*
X82233945Y-108102479D01*
X81804509Y-107924600D01*
X81339691Y-107924600D01*
X80910255Y-108102479D01*
X80581579Y-108431155D01*
X80403700Y-108860591D01*
X80403700Y-109325409D01*
X80581579Y-109754845D01*
X80632301Y-109805567D01*
X80632300Y-110926222D01*
X79760423Y-111798100D01*
X66924578Y-111798100D01*
X66319400Y-111192923D01*
X66319400Y-108085100D01*
X66667353Y-108085100D01*
X66667353Y-110685100D01*
X66710722Y-110903133D01*
X66834228Y-111087972D01*
X67019067Y-111211478D01*
X67237100Y-111254847D01*
X69237100Y-111254847D01*
X69455133Y-111211478D01*
X69639972Y-111087972D01*
X69763478Y-110903133D01*
X69806847Y-110685100D01*
X69806847Y-110311550D01*
X70168888Y-110553457D01*
X70777100Y-110674438D01*
X71385313Y-110553457D01*
X71866180Y-110232152D01*
X71904755Y-110377477D01*
X72277225Y-110865254D01*
X72808006Y-111173363D01*
X72923895Y-111193492D01*
X73164700Y-111095993D01*
X73164700Y-109537500D01*
X73144700Y-109537500D01*
X73144700Y-109232700D01*
X73164700Y-109232700D01*
X73164700Y-107674207D01*
X73469500Y-107674207D01*
X73469500Y-109232700D01*
X73489500Y-109232700D01*
X73489500Y-109537500D01*
X73469500Y-109537500D01*
X73469500Y-111095993D01*
X73710305Y-111193492D01*
X73826194Y-111173363D01*
X74356975Y-110865254D01*
X74729445Y-110377477D01*
X74768020Y-110232152D01*
X75248888Y-110553457D01*
X75857100Y-110674438D01*
X76465313Y-110553457D01*
X76920050Y-110249612D01*
X76928743Y-110293313D01*
X77273268Y-110808932D01*
X77788888Y-111153457D01*
X78397100Y-111274438D01*
X79005313Y-111153457D01*
X79520932Y-110808932D01*
X79865457Y-110293313D01*
X79955900Y-109838624D01*
X79955900Y-108931575D01*
X79865457Y-108476887D01*
X79520932Y-107961268D01*
X79005312Y-107616743D01*
X78397100Y-107495762D01*
X77788887Y-107616743D01*
X77334150Y-107920588D01*
X77325457Y-107876887D01*
X76980932Y-107361268D01*
X76465312Y-107016743D01*
X75857100Y-106895762D01*
X75248887Y-107016743D01*
X74733268Y-107361268D01*
X74388743Y-107876888D01*
X74377750Y-107932153D01*
X74356975Y-107904946D01*
X73826194Y-107596837D01*
X73710305Y-107576708D01*
X73469500Y-107674207D01*
X73164700Y-107674207D01*
X73003379Y-107608890D01*
X74389470Y-106222800D01*
X84258931Y-106222800D01*
X89054583Y-111018454D01*
X89096385Y-111081015D01*
X89344238Y-111246625D01*
X89562803Y-111290100D01*
X89636599Y-111304779D01*
X89710395Y-111290100D01*
X94429297Y-111290100D01*
X94605919Y-111466722D01*
X95007348Y-111633000D01*
X95441852Y-111633000D01*
X95843281Y-111466722D01*
X96150522Y-111159481D01*
X96316800Y-110758052D01*
X96316800Y-110323548D01*
X96150522Y-109922119D01*
X95843281Y-109614878D01*
X95441852Y-109448600D01*
X95007348Y-109448600D01*
X94605919Y-109614878D01*
X94429297Y-109791500D01*
X89946971Y-109791500D01*
X85151321Y-104995852D01*
X85109515Y-104933285D01*
X84861662Y-104767675D01*
X84643097Y-104724200D01*
X84643096Y-104724200D01*
X84569300Y-104709521D01*
X84495504Y-104724200D01*
X74152895Y-104724200D01*
X74079099Y-104709521D01*
X74005303Y-104724200D01*
X73786738Y-104767675D01*
X73538885Y-104933285D01*
X73497081Y-104995849D01*
X71526400Y-106966531D01*
X71526400Y-104564669D01*
X76931651Y-99159419D01*
X76994215Y-99117615D01*
X77159825Y-98869762D01*
X77203300Y-98651197D01*
X77203300Y-98651196D01*
X77217979Y-98577400D01*
X77203300Y-98503604D01*
X77203300Y-96959703D01*
X77379922Y-96783081D01*
X77421067Y-96683748D01*
X80365600Y-96683748D01*
X80365600Y-97118252D01*
X80531878Y-97519681D01*
X80839119Y-97826922D01*
X81240548Y-97993200D01*
X81490331Y-97993200D01*
X90718281Y-107221151D01*
X90760085Y-107283715D01*
X91007938Y-107449325D01*
X91226503Y-107492800D01*
X91226504Y-107492800D01*
X91300300Y-107507479D01*
X91374096Y-107492800D01*
X99280697Y-107492800D01*
X99457319Y-107669422D01*
X99858748Y-107835700D01*
X100293252Y-107835700D01*
X100694681Y-107669422D01*
X101001922Y-107362181D01*
X101168200Y-106960752D01*
X101168200Y-106526248D01*
X101001922Y-106124819D01*
X100694681Y-105817578D01*
X100293252Y-105651300D01*
X99858748Y-105651300D01*
X99457319Y-105817578D01*
X99280697Y-105994200D01*
X91610670Y-105994200D01*
X82550000Y-96933531D01*
X82550000Y-96683748D01*
X82383722Y-96282319D01*
X82076481Y-95975078D01*
X81675052Y-95808800D01*
X81240548Y-95808800D01*
X80839119Y-95975078D01*
X80531878Y-96282319D01*
X80365600Y-96683748D01*
X77421067Y-96683748D01*
X77546200Y-96381652D01*
X77546200Y-95947148D01*
X77379922Y-95545719D01*
X77072681Y-95238478D01*
X76871800Y-95155270D01*
X76957051Y-95070019D01*
X77019615Y-95028215D01*
X77185225Y-94780362D01*
X77228700Y-94561797D01*
X77228700Y-94561796D01*
X77243379Y-94488000D01*
X77228700Y-94414204D01*
X77228700Y-92641703D01*
X77274703Y-92595700D01*
X78932904Y-92595700D01*
X79006700Y-92610379D01*
X79080496Y-92595700D01*
X79080497Y-92595700D01*
X79299062Y-92552225D01*
X79546915Y-92386615D01*
X79588721Y-92324048D01*
X81757652Y-90155118D01*
X81820215Y-90113315D01*
X81919108Y-89965312D01*
X81985825Y-89865463D01*
X82043979Y-89573100D01*
X82029300Y-89499303D01*
X82029300Y-86363300D01*
X91978453Y-86363300D01*
X91978453Y-88363300D01*
X92021822Y-88581333D01*
X92145328Y-88766172D01*
X92330167Y-88889678D01*
X92548200Y-88933047D01*
X94548200Y-88933047D01*
X94766233Y-88889678D01*
X94951072Y-88766172D01*
X95074578Y-88581333D01*
X95117947Y-88363300D01*
X95117947Y-86363300D01*
X95074578Y-86145267D01*
X94951072Y-85960428D01*
X94766233Y-85836922D01*
X94548200Y-85793553D01*
X92548200Y-85793553D01*
X92330167Y-85836922D01*
X92145328Y-85960428D01*
X92021822Y-86145267D01*
X91978453Y-86363300D01*
X82029300Y-86363300D01*
X82029300Y-83410432D01*
X92636594Y-83410432D01*
X92741609Y-83652755D01*
X93327075Y-83857181D01*
X93946206Y-83821998D01*
X94354791Y-83652755D01*
X94459806Y-83410432D01*
X93548200Y-82498826D01*
X92636594Y-83410432D01*
X82029300Y-83410432D01*
X82029300Y-82062175D01*
X91974319Y-82062175D01*
X92009502Y-82681306D01*
X92178745Y-83089891D01*
X92421068Y-83194906D01*
X93332674Y-82283300D01*
X93763726Y-82283300D01*
X94675332Y-83194906D01*
X94917655Y-83089891D01*
X95122081Y-82504425D01*
X95086898Y-81885294D01*
X94917655Y-81476709D01*
X94675332Y-81371694D01*
X93763726Y-82283300D01*
X93332674Y-82283300D01*
X92421068Y-81371694D01*
X92178745Y-81476709D01*
X91974319Y-82062175D01*
X82029300Y-82062175D01*
X82029300Y-81156168D01*
X92636594Y-81156168D01*
X93548200Y-82067774D01*
X94459806Y-81156168D01*
X94354791Y-80913845D01*
X93769325Y-80709419D01*
X93150194Y-80744602D01*
X92741609Y-80913845D01*
X92636594Y-81156168D01*
X82029300Y-81156168D01*
X82029300Y-77833503D01*
X82205922Y-77656881D01*
X82372200Y-77255452D01*
X82372200Y-76820948D01*
X82205922Y-76419519D01*
X81898681Y-76112278D01*
X81497252Y-75946000D01*
X81062748Y-75946000D01*
X80661319Y-76112278D01*
X80354078Y-76419519D01*
X80187800Y-76820948D01*
X80187800Y-77255452D01*
X80354078Y-77656881D01*
X80530701Y-77833504D01*
X80530700Y-89262730D01*
X78696331Y-91097100D01*
X77274703Y-91097100D01*
X77098081Y-90920478D01*
X76696652Y-90754200D01*
X76262148Y-90754200D01*
X75860719Y-90920478D01*
X75553478Y-91227719D01*
X75387200Y-91629148D01*
X75387200Y-92063652D01*
X75553478Y-92465081D01*
X75730100Y-92641703D01*
X75730101Y-94177629D01*
X74490452Y-95417279D01*
X74427885Y-95459085D01*
X74262275Y-95706939D01*
X74242014Y-95808800D01*
X74204121Y-95999300D01*
X74218800Y-96073096D01*
X74218801Y-97479628D01*
X67759452Y-103938979D01*
X67696885Y-103980785D01*
X67531275Y-104228639D01*
X67526171Y-104254300D01*
X67473121Y-104521000D01*
X67487800Y-104594796D01*
X67487801Y-107515353D01*
X67237100Y-107515353D01*
X67019067Y-107558722D01*
X66834228Y-107682228D01*
X66710722Y-107867067D01*
X66667353Y-108085100D01*
X66319400Y-108085100D01*
X66319400Y-104135577D01*
X68963192Y-101491786D01*
X69041657Y-101439357D01*
X69249372Y-101128491D01*
X69303900Y-100854359D01*
X69303900Y-100854355D01*
X69322310Y-100761801D01*
X69303900Y-100669247D01*
X69303900Y-100229766D01*
X69354621Y-100179045D01*
X69532500Y-99749609D01*
X69532500Y-99284791D01*
X69354621Y-98855355D01*
X69303900Y-98804634D01*
X69303900Y-98073054D01*
X69322310Y-97980500D01*
X69303900Y-97887946D01*
X69303900Y-97887941D01*
X69249372Y-97613809D01*
X69202375Y-97543474D01*
X69113400Y-97410313D01*
X69113400Y-93833169D01*
X74110070Y-88836500D01*
X78020897Y-88836500D01*
X78197519Y-89013122D01*
X78598948Y-89179400D01*
X79033452Y-89179400D01*
X79434881Y-89013122D01*
X79742122Y-88705881D01*
X79908400Y-88304452D01*
X79908400Y-87869948D01*
X79742122Y-87468519D01*
X79434881Y-87161278D01*
X79033452Y-86995000D01*
X78598948Y-86995000D01*
X78197519Y-87161278D01*
X78020897Y-87337900D01*
X73873495Y-87337900D01*
X73799699Y-87323221D01*
X73725903Y-87337900D01*
X73507338Y-87381375D01*
X73259485Y-87546985D01*
X73217681Y-87609549D01*
X67886450Y-92940781D01*
X67823886Y-92982585D01*
X67782083Y-93045148D01*
X67658276Y-93230438D01*
X67600121Y-93522800D01*
X67614801Y-93596600D01*
X67614801Y-95902123D01*
X65493900Y-93781223D01*
X65493900Y-87133348D01*
X67919600Y-87133348D01*
X67919600Y-87567852D01*
X68085878Y-87969281D01*
X68393119Y-88276522D01*
X68794548Y-88442800D01*
X69229052Y-88442800D01*
X69630481Y-88276522D01*
X69937722Y-87969281D01*
X70104000Y-87567852D01*
X70104000Y-87133348D01*
X69937722Y-86731919D01*
X69761100Y-86555297D01*
X69761100Y-81488769D01*
X76053171Y-75196700D01*
X80484697Y-75196700D01*
X80661319Y-75373322D01*
X81062748Y-75539600D01*
X81497252Y-75539600D01*
X81898681Y-75373322D01*
X82205922Y-75066081D01*
X82372200Y-74664652D01*
X82372200Y-74353235D01*
X91989400Y-74353235D01*
X91989400Y-74973365D01*
X92226713Y-75546289D01*
X92665211Y-75984787D01*
X93238135Y-76222100D01*
X93858265Y-76222100D01*
X94431189Y-75984787D01*
X94869687Y-75546289D01*
X95107000Y-74973365D01*
X95107000Y-74353235D01*
X94869687Y-73780311D01*
X94431189Y-73341813D01*
X93858265Y-73104500D01*
X93238135Y-73104500D01*
X92665211Y-73341813D01*
X92226713Y-73780311D01*
X91989400Y-74353235D01*
X82372200Y-74353235D01*
X82372200Y-74230148D01*
X82205922Y-73828719D01*
X81898681Y-73521478D01*
X81497252Y-73355200D01*
X81062748Y-73355200D01*
X80661319Y-73521478D01*
X80484697Y-73698100D01*
X75816595Y-73698100D01*
X75742799Y-73683421D01*
X75669003Y-73698100D01*
X75450438Y-73741575D01*
X75202585Y-73907185D01*
X75160783Y-73969746D01*
X68534152Y-80596379D01*
X68471585Y-80638185D01*
X68305975Y-80886039D01*
X68262500Y-81104603D01*
X68247821Y-81178400D01*
X68262500Y-81252196D01*
X68262501Y-86555296D01*
X68085878Y-86731919D01*
X67919600Y-87133348D01*
X65493900Y-87133348D01*
X65493900Y-82469377D01*
X66836855Y-81126422D01*
X67204781Y-80974022D01*
X67512022Y-80666781D01*
X67678300Y-80265352D01*
X67678300Y-79830848D01*
X67512022Y-79429419D01*
X67204781Y-79122178D01*
X66803352Y-78955900D01*
X66368848Y-78955900D01*
X65967419Y-79122178D01*
X65660178Y-79429419D01*
X65507778Y-79797345D01*
X63955008Y-81350114D01*
X63876544Y-81402543D01*
X63824115Y-81481008D01*
X63824112Y-81481011D01*
X63668829Y-81713408D01*
X63595890Y-82080100D01*
X54965600Y-82080100D01*
X54965600Y-77029528D01*
X55332361Y-77396289D01*
X56511730Y-77884800D01*
X57788270Y-77884800D01*
X58967639Y-77396289D01*
X59870289Y-76493639D01*
X60358800Y-75314270D01*
X60358800Y-74037730D01*
X59870289Y-72858361D01*
X59503528Y-72491600D01*
X101904800Y-72491600D01*
X101904800Y-114706400D01*
X101904800Y-114706400D01*
G37*
X101904800Y-114706400D02*
X59503528Y-114706400D01*
X59870289Y-114339639D01*
X60358800Y-113160270D01*
X60358800Y-111883730D01*
X59870289Y-110704361D01*
X58967639Y-109801711D01*
X57788270Y-109313200D01*
X56511730Y-109313200D01*
X55332361Y-109801711D01*
X54965600Y-110168472D01*
X54965600Y-103009000D01*
X61583353Y-103009000D01*
X61583353Y-104509000D01*
X61626722Y-104727033D01*
X61750228Y-104911872D01*
X61935067Y-105035378D01*
X62153100Y-105078747D01*
X63653100Y-105078747D01*
X63871133Y-105035378D01*
X64055972Y-104911872D01*
X64179478Y-104727033D01*
X64222847Y-104509000D01*
X64222847Y-103009000D01*
X64179478Y-102790967D01*
X64055972Y-102606128D01*
X63871133Y-102482622D01*
X63653100Y-102439253D01*
X62153100Y-102439253D01*
X61935067Y-102482622D01*
X61750228Y-102606128D01*
X61626722Y-102790967D01*
X61583353Y-103009000D01*
X54965600Y-103009000D01*
X54965600Y-100339534D01*
X56474300Y-100339534D01*
X56474300Y-101178466D01*
X56795346Y-101953539D01*
X57388561Y-102546754D01*
X58163634Y-102867800D01*
X59002566Y-102867800D01*
X59777639Y-102546754D01*
X60370854Y-101953539D01*
X60691900Y-101178466D01*
X60691900Y-100498663D01*
X61594300Y-100498663D01*
X61594300Y-101019337D01*
X61793553Y-101500376D01*
X62161724Y-101868547D01*
X62642763Y-102067800D01*
X63163437Y-102067800D01*
X63644476Y-101868547D01*
X64012647Y-101500376D01*
X64211900Y-101019337D01*
X64211900Y-100498663D01*
X64012647Y-100017624D01*
X63644476Y-99649453D01*
X63163437Y-99450200D01*
X62642763Y-99450200D01*
X62161724Y-99649453D01*
X61793553Y-100017624D01*
X61594300Y-100498663D01*
X60691900Y-100498663D01*
X60691900Y-100339534D01*
X60370854Y-99564461D01*
X59777639Y-98971246D01*
X59134071Y-98704671D01*
X62172955Y-98704671D01*
X62247161Y-98921100D01*
X62741808Y-99083658D01*
X63261011Y-99044548D01*
X63559039Y-98921100D01*
X63633245Y-98704671D01*
X62903100Y-97974526D01*
X62172955Y-98704671D01*
X59134071Y-98704671D01*
X59002566Y-98650200D01*
X58163634Y-98650200D01*
X57388561Y-98971246D01*
X56795346Y-99564461D01*
X56474300Y-100339534D01*
X54965600Y-100339534D01*
X54965600Y-97597708D01*
X61578442Y-97597708D01*
X61617552Y-98116911D01*
X61741000Y-98414939D01*
X61957429Y-98489145D01*
X62687574Y-97759000D01*
X63118626Y-97759000D01*
X63848771Y-98489145D01*
X64065200Y-98414939D01*
X64227758Y-97920292D01*
X64188648Y-97401089D01*
X64065200Y-97103061D01*
X63848771Y-97028855D01*
X63118626Y-97759000D01*
X62687574Y-97759000D01*
X61957429Y-97028855D01*
X61741000Y-97103061D01*
X61578442Y-97597708D01*
X54965600Y-97597708D01*
X54965600Y-96813329D01*
X62172955Y-96813329D01*
X62903100Y-97543474D01*
X63633245Y-96813329D01*
X63559039Y-96596900D01*
X63064392Y-96434342D01*
X62545189Y-96473452D01*
X62247161Y-96596900D01*
X62172955Y-96813329D01*
X54965600Y-96813329D01*
X54965600Y-82080100D01*
X63595890Y-82080100D01*
X63614301Y-82172659D01*
X63614300Y-94077946D01*
X63595890Y-94170500D01*
X63614300Y-94263054D01*
X63614300Y-94263058D01*
X63668828Y-94537190D01*
X63876543Y-94848057D01*
X63955011Y-94900488D01*
X67424301Y-98369779D01*
X67424300Y-98804634D01*
X67373579Y-98855355D01*
X67195700Y-99284791D01*
X67195700Y-99749609D01*
X67373579Y-100179045D01*
X67424301Y-100229767D01*
X67424301Y-100372521D01*
X64780511Y-103016312D01*
X64702043Y-103068743D01*
X64494328Y-103379610D01*
X64439800Y-103653742D01*
X64439800Y-103653746D01*
X64421390Y-103746300D01*
X64439800Y-103838854D01*
X64439801Y-111489641D01*
X64421390Y-111582200D01*
X64494329Y-111948892D01*
X64649612Y-112181289D01*
X64649615Y-112181292D01*
X64702044Y-112259757D01*
X64780508Y-112312185D01*
X65805314Y-113336992D01*
X65857743Y-113415457D01*
X65936208Y-113467886D01*
X65936210Y-113467888D01*
X66099223Y-113576809D01*
X66168609Y-113623172D01*
X66442741Y-113677700D01*
X66442746Y-113677700D01*
X66535300Y-113696110D01*
X66627854Y-113677700D01*
X80057146Y-113677700D01*
X80149700Y-113696110D01*
X80242254Y-113677700D01*
X80242259Y-113677700D01*
X80516391Y-113623172D01*
X80827257Y-113415457D01*
X80879687Y-113336990D01*
X82171193Y-112045485D01*
X82249657Y-111993057D01*
X82322708Y-111883730D01*
X82457371Y-111682193D01*
X82457371Y-111682192D01*
X82457372Y-111682191D01*
X82511900Y-111408059D01*
X82511900Y-111408055D01*
X82530310Y-111315501D01*
X82511900Y-111222947D01*
X82511900Y-109805566D01*
X82562621Y-109754845D01*
X82740500Y-109325409D01*
X82740500Y-108860591D01*
X82562621Y-108431155D01*
X82233945Y-108102479D01*
X81804509Y-107924600D01*
X81339691Y-107924600D01*
X80910255Y-108102479D01*
X80581579Y-108431155D01*
X80403700Y-108860591D01*
X80403700Y-109325409D01*
X80581579Y-109754845D01*
X80632301Y-109805567D01*
X80632300Y-110926222D01*
X79760423Y-111798100D01*
X66924578Y-111798100D01*
X66319400Y-111192923D01*
X66319400Y-108085100D01*
X66667353Y-108085100D01*
X66667353Y-110685100D01*
X66710722Y-110903133D01*
X66834228Y-111087972D01*
X67019067Y-111211478D01*
X67237100Y-111254847D01*
X69237100Y-111254847D01*
X69455133Y-111211478D01*
X69639972Y-111087972D01*
X69763478Y-110903133D01*
X69806847Y-110685100D01*
X69806847Y-110311550D01*
X70168888Y-110553457D01*
X70777100Y-110674438D01*
X71385313Y-110553457D01*
X71866180Y-110232152D01*
X71904755Y-110377477D01*
X72277225Y-110865254D01*
X72808006Y-111173363D01*
X72923895Y-111193492D01*
X73164700Y-111095993D01*
X73164700Y-109537500D01*
X73144700Y-109537500D01*
X73144700Y-109232700D01*
X73164700Y-109232700D01*
X73164700Y-107674207D01*
X73469500Y-107674207D01*
X73469500Y-109232700D01*
X73489500Y-109232700D01*
X73489500Y-109537500D01*
X73469500Y-109537500D01*
X73469500Y-111095993D01*
X73710305Y-111193492D01*
X73826194Y-111173363D01*
X74356975Y-110865254D01*
X74729445Y-110377477D01*
X74768020Y-110232152D01*
X75248888Y-110553457D01*
X75857100Y-110674438D01*
X76465313Y-110553457D01*
X76920050Y-110249612D01*
X76928743Y-110293313D01*
X77273268Y-110808932D01*
X77788888Y-111153457D01*
X78397100Y-111274438D01*
X79005313Y-111153457D01*
X79520932Y-110808932D01*
X79865457Y-110293313D01*
X79955900Y-109838624D01*
X79955900Y-108931575D01*
X79865457Y-108476887D01*
X79520932Y-107961268D01*
X79005312Y-107616743D01*
X78397100Y-107495762D01*
X77788887Y-107616743D01*
X77334150Y-107920588D01*
X77325457Y-107876887D01*
X76980932Y-107361268D01*
X76465312Y-107016743D01*
X75857100Y-106895762D01*
X75248887Y-107016743D01*
X74733268Y-107361268D01*
X74388743Y-107876888D01*
X74377750Y-107932153D01*
X74356975Y-107904946D01*
X73826194Y-107596837D01*
X73710305Y-107576708D01*
X73469500Y-107674207D01*
X73164700Y-107674207D01*
X73003379Y-107608890D01*
X74389470Y-106222800D01*
X84258931Y-106222800D01*
X89054583Y-111018454D01*
X89096385Y-111081015D01*
X89344238Y-111246625D01*
X89562803Y-111290100D01*
X89636599Y-111304779D01*
X89710395Y-111290100D01*
X94429297Y-111290100D01*
X94605919Y-111466722D01*
X95007348Y-111633000D01*
X95441852Y-111633000D01*
X95843281Y-111466722D01*
X96150522Y-111159481D01*
X96316800Y-110758052D01*
X96316800Y-110323548D01*
X96150522Y-109922119D01*
X95843281Y-109614878D01*
X95441852Y-109448600D01*
X95007348Y-109448600D01*
X94605919Y-109614878D01*
X94429297Y-109791500D01*
X89946971Y-109791500D01*
X85151321Y-104995852D01*
X85109515Y-104933285D01*
X84861662Y-104767675D01*
X84643097Y-104724200D01*
X84643096Y-104724200D01*
X84569300Y-104709521D01*
X84495504Y-104724200D01*
X74152895Y-104724200D01*
X74079099Y-104709521D01*
X74005303Y-104724200D01*
X73786738Y-104767675D01*
X73538885Y-104933285D01*
X73497081Y-104995849D01*
X71526400Y-106966531D01*
X71526400Y-104564669D01*
X76931651Y-99159419D01*
X76994215Y-99117615D01*
X77159825Y-98869762D01*
X77203300Y-98651197D01*
X77203300Y-98651196D01*
X77217979Y-98577400D01*
X77203300Y-98503604D01*
X77203300Y-96959703D01*
X77379922Y-96783081D01*
X77421067Y-96683748D01*
X80365600Y-96683748D01*
X80365600Y-97118252D01*
X80531878Y-97519681D01*
X80839119Y-97826922D01*
X81240548Y-97993200D01*
X81490331Y-97993200D01*
X90718281Y-107221151D01*
X90760085Y-107283715D01*
X91007938Y-107449325D01*
X91226503Y-107492800D01*
X91226504Y-107492800D01*
X91300300Y-107507479D01*
X91374096Y-107492800D01*
X99280697Y-107492800D01*
X99457319Y-107669422D01*
X99858748Y-107835700D01*
X100293252Y-107835700D01*
X100694681Y-107669422D01*
X101001922Y-107362181D01*
X101168200Y-106960752D01*
X101168200Y-106526248D01*
X101001922Y-106124819D01*
X100694681Y-105817578D01*
X100293252Y-105651300D01*
X99858748Y-105651300D01*
X99457319Y-105817578D01*
X99280697Y-105994200D01*
X91610670Y-105994200D01*
X82550000Y-96933531D01*
X82550000Y-96683748D01*
X82383722Y-96282319D01*
X82076481Y-95975078D01*
X81675052Y-95808800D01*
X81240548Y-95808800D01*
X80839119Y-95975078D01*
X80531878Y-96282319D01*
X80365600Y-96683748D01*
X77421067Y-96683748D01*
X77546200Y-96381652D01*
X77546200Y-95947148D01*
X77379922Y-95545719D01*
X77072681Y-95238478D01*
X76871800Y-95155270D01*
X76957051Y-95070019D01*
X77019615Y-95028215D01*
X77185225Y-94780362D01*
X77228700Y-94561797D01*
X77228700Y-94561796D01*
X77243379Y-94488000D01*
X77228700Y-94414204D01*
X77228700Y-92641703D01*
X77274703Y-92595700D01*
X78932904Y-92595700D01*
X79006700Y-92610379D01*
X79080496Y-92595700D01*
X79080497Y-92595700D01*
X79299062Y-92552225D01*
X79546915Y-92386615D01*
X79588721Y-92324048D01*
X81757652Y-90155118D01*
X81820215Y-90113315D01*
X81919108Y-89965312D01*
X81985825Y-89865463D01*
X82043979Y-89573100D01*
X82029300Y-89499303D01*
X82029300Y-86363300D01*
X91978453Y-86363300D01*
X91978453Y-88363300D01*
X92021822Y-88581333D01*
X92145328Y-88766172D01*
X92330167Y-88889678D01*
X92548200Y-88933047D01*
X94548200Y-88933047D01*
X94766233Y-88889678D01*
X94951072Y-88766172D01*
X95074578Y-88581333D01*
X95117947Y-88363300D01*
X95117947Y-86363300D01*
X95074578Y-86145267D01*
X94951072Y-85960428D01*
X94766233Y-85836922D01*
X94548200Y-85793553D01*
X92548200Y-85793553D01*
X92330167Y-85836922D01*
X92145328Y-85960428D01*
X92021822Y-86145267D01*
X91978453Y-86363300D01*
X82029300Y-86363300D01*
X82029300Y-83410432D01*
X92636594Y-83410432D01*
X92741609Y-83652755D01*
X93327075Y-83857181D01*
X93946206Y-83821998D01*
X94354791Y-83652755D01*
X94459806Y-83410432D01*
X93548200Y-82498826D01*
X92636594Y-83410432D01*
X82029300Y-83410432D01*
X82029300Y-82062175D01*
X91974319Y-82062175D01*
X92009502Y-82681306D01*
X92178745Y-83089891D01*
X92421068Y-83194906D01*
X93332674Y-82283300D01*
X93763726Y-82283300D01*
X94675332Y-83194906D01*
X94917655Y-83089891D01*
X95122081Y-82504425D01*
X95086898Y-81885294D01*
X94917655Y-81476709D01*
X94675332Y-81371694D01*
X93763726Y-82283300D01*
X93332674Y-82283300D01*
X92421068Y-81371694D01*
X92178745Y-81476709D01*
X91974319Y-82062175D01*
X82029300Y-82062175D01*
X82029300Y-81156168D01*
X92636594Y-81156168D01*
X93548200Y-82067774D01*
X94459806Y-81156168D01*
X94354791Y-80913845D01*
X93769325Y-80709419D01*
X93150194Y-80744602D01*
X92741609Y-80913845D01*
X92636594Y-81156168D01*
X82029300Y-81156168D01*
X82029300Y-77833503D01*
X82205922Y-77656881D01*
X82372200Y-77255452D01*
X82372200Y-76820948D01*
X82205922Y-76419519D01*
X81898681Y-76112278D01*
X81497252Y-75946000D01*
X81062748Y-75946000D01*
X80661319Y-76112278D01*
X80354078Y-76419519D01*
X80187800Y-76820948D01*
X80187800Y-77255452D01*
X80354078Y-77656881D01*
X80530701Y-77833504D01*
X80530700Y-89262730D01*
X78696331Y-91097100D01*
X77274703Y-91097100D01*
X77098081Y-90920478D01*
X76696652Y-90754200D01*
X76262148Y-90754200D01*
X75860719Y-90920478D01*
X75553478Y-91227719D01*
X75387200Y-91629148D01*
X75387200Y-92063652D01*
X75553478Y-92465081D01*
X75730100Y-92641703D01*
X75730101Y-94177629D01*
X74490452Y-95417279D01*
X74427885Y-95459085D01*
X74262275Y-95706939D01*
X74242014Y-95808800D01*
X74204121Y-95999300D01*
X74218800Y-96073096D01*
X74218801Y-97479628D01*
X67759452Y-103938979D01*
X67696885Y-103980785D01*
X67531275Y-104228639D01*
X67526171Y-104254300D01*
X67473121Y-104521000D01*
X67487800Y-104594796D01*
X67487801Y-107515353D01*
X67237100Y-107515353D01*
X67019067Y-107558722D01*
X66834228Y-107682228D01*
X66710722Y-107867067D01*
X66667353Y-108085100D01*
X66319400Y-108085100D01*
X66319400Y-104135577D01*
X68963192Y-101491786D01*
X69041657Y-101439357D01*
X69249372Y-101128491D01*
X69303900Y-100854359D01*
X69303900Y-100854355D01*
X69322310Y-100761801D01*
X69303900Y-100669247D01*
X69303900Y-100229766D01*
X69354621Y-100179045D01*
X69532500Y-99749609D01*
X69532500Y-99284791D01*
X69354621Y-98855355D01*
X69303900Y-98804634D01*
X69303900Y-98073054D01*
X69322310Y-97980500D01*
X69303900Y-97887946D01*
X69303900Y-97887941D01*
X69249372Y-97613809D01*
X69202375Y-97543474D01*
X69113400Y-97410313D01*
X69113400Y-93833169D01*
X74110070Y-88836500D01*
X78020897Y-88836500D01*
X78197519Y-89013122D01*
X78598948Y-89179400D01*
X79033452Y-89179400D01*
X79434881Y-89013122D01*
X79742122Y-88705881D01*
X79908400Y-88304452D01*
X79908400Y-87869948D01*
X79742122Y-87468519D01*
X79434881Y-87161278D01*
X79033452Y-86995000D01*
X78598948Y-86995000D01*
X78197519Y-87161278D01*
X78020897Y-87337900D01*
X73873495Y-87337900D01*
X73799699Y-87323221D01*
X73725903Y-87337900D01*
X73507338Y-87381375D01*
X73259485Y-87546985D01*
X73217681Y-87609549D01*
X67886450Y-92940781D01*
X67823886Y-92982585D01*
X67782083Y-93045148D01*
X67658276Y-93230438D01*
X67600121Y-93522800D01*
X67614801Y-93596600D01*
X67614801Y-95902123D01*
X65493900Y-93781223D01*
X65493900Y-87133348D01*
X67919600Y-87133348D01*
X67919600Y-87567852D01*
X68085878Y-87969281D01*
X68393119Y-88276522D01*
X68794548Y-88442800D01*
X69229052Y-88442800D01*
X69630481Y-88276522D01*
X69937722Y-87969281D01*
X70104000Y-87567852D01*
X70104000Y-87133348D01*
X69937722Y-86731919D01*
X69761100Y-86555297D01*
X69761100Y-81488769D01*
X76053171Y-75196700D01*
X80484697Y-75196700D01*
X80661319Y-75373322D01*
X81062748Y-75539600D01*
X81497252Y-75539600D01*
X81898681Y-75373322D01*
X82205922Y-75066081D01*
X82372200Y-74664652D01*
X82372200Y-74353235D01*
X91989400Y-74353235D01*
X91989400Y-74973365D01*
X92226713Y-75546289D01*
X92665211Y-75984787D01*
X93238135Y-76222100D01*
X93858265Y-76222100D01*
X94431189Y-75984787D01*
X94869687Y-75546289D01*
X95107000Y-74973365D01*
X95107000Y-74353235D01*
X94869687Y-73780311D01*
X94431189Y-73341813D01*
X93858265Y-73104500D01*
X93238135Y-73104500D01*
X92665211Y-73341813D01*
X92226713Y-73780311D01*
X91989400Y-74353235D01*
X82372200Y-74353235D01*
X82372200Y-74230148D01*
X82205922Y-73828719D01*
X81898681Y-73521478D01*
X81497252Y-73355200D01*
X81062748Y-73355200D01*
X80661319Y-73521478D01*
X80484697Y-73698100D01*
X75816595Y-73698100D01*
X75742799Y-73683421D01*
X75669003Y-73698100D01*
X75450438Y-73741575D01*
X75202585Y-73907185D01*
X75160783Y-73969746D01*
X68534152Y-80596379D01*
X68471585Y-80638185D01*
X68305975Y-80886039D01*
X68262500Y-81104603D01*
X68247821Y-81178400D01*
X68262500Y-81252196D01*
X68262501Y-86555296D01*
X68085878Y-86731919D01*
X67919600Y-87133348D01*
X65493900Y-87133348D01*
X65493900Y-82469377D01*
X66836855Y-81126422D01*
X67204781Y-80974022D01*
X67512022Y-80666781D01*
X67678300Y-80265352D01*
X67678300Y-79830848D01*
X67512022Y-79429419D01*
X67204781Y-79122178D01*
X66803352Y-78955900D01*
X66368848Y-78955900D01*
X65967419Y-79122178D01*
X65660178Y-79429419D01*
X65507778Y-79797345D01*
X63955008Y-81350114D01*
X63876544Y-81402543D01*
X63824115Y-81481008D01*
X63824112Y-81481011D01*
X63668829Y-81713408D01*
X63595890Y-82080100D01*
X54965600Y-82080100D01*
X54965600Y-77029528D01*
X55332361Y-77396289D01*
X56511730Y-77884800D01*
X57788270Y-77884800D01*
X58967639Y-77396289D01*
X59870289Y-76493639D01*
X60358800Y-75314270D01*
X60358800Y-74037730D01*
X59870289Y-72858361D01*
X59503528Y-72491600D01*
X101904800Y-72491600D01*
X101904800Y-114706400D01*
G04 #@! TO.N,GNDA*
G36*
X129194911Y-76765412D02*
X129116443Y-76817843D01*
X128908728Y-77128710D01*
X128854200Y-77402842D01*
X128854200Y-77402846D01*
X128835790Y-77495400D01*
X128854200Y-77587954D01*
X128854201Y-79297433D01*
X128803479Y-79348155D01*
X128625600Y-79777591D01*
X128625600Y-80242409D01*
X128803479Y-80671845D01*
X129132155Y-81000521D01*
X129561591Y-81178400D01*
X130026409Y-81178400D01*
X130454400Y-81001119D01*
X130454401Y-85914521D01*
X130302000Y-86282448D01*
X130302000Y-86716952D01*
X130468278Y-87118381D01*
X130775519Y-87425622D01*
X131176948Y-87591900D01*
X131611452Y-87591900D01*
X132012881Y-87425622D01*
X132320122Y-87118381D01*
X132486400Y-86716952D01*
X132486400Y-86282448D01*
X132334000Y-85914523D01*
X132334000Y-78240277D01*
X135669678Y-74904600D01*
X141810348Y-74904600D01*
X141898278Y-75116881D01*
X142205519Y-75424122D01*
X142606948Y-75590400D01*
X143041452Y-75590400D01*
X143442881Y-75424122D01*
X143750122Y-75116881D01*
X143916400Y-74715452D01*
X143916400Y-74280948D01*
X143750122Y-73879519D01*
X143581403Y-73710800D01*
X144060523Y-73710800D01*
X145878812Y-75529089D01*
X147108522Y-76758800D01*
X146009710Y-77857612D01*
X145931243Y-77910043D01*
X145878813Y-77988510D01*
X145878812Y-77988511D01*
X145810250Y-78091122D01*
X145723528Y-78220910D01*
X145669000Y-78495042D01*
X145669000Y-78495046D01*
X145650590Y-78587600D01*
X145669000Y-78680154D01*
X145669001Y-82226929D01*
X140875531Y-87020400D01*
X140625748Y-87020400D01*
X140224319Y-87186678D01*
X139917078Y-87493919D01*
X139750800Y-87895348D01*
X139750800Y-88329852D01*
X139917078Y-88731281D01*
X140224319Y-89038522D01*
X140497043Y-89151488D01*
X139031852Y-90616679D01*
X138969285Y-90658485D01*
X138803675Y-90906339D01*
X138760200Y-91124903D01*
X138745521Y-91198700D01*
X138760200Y-91272496D01*
X138760201Y-106989596D01*
X138583578Y-107166219D01*
X138417300Y-107567648D01*
X138417300Y-108002152D01*
X138583578Y-108403581D01*
X138890819Y-108710822D01*
X139292248Y-108877100D01*
X139726752Y-108877100D01*
X140128181Y-108710822D01*
X140435422Y-108403581D01*
X140601700Y-108002152D01*
X140601700Y-107567648D01*
X140435422Y-107166219D01*
X140258800Y-106989597D01*
X140258800Y-103204671D01*
X145675455Y-103204671D01*
X145749661Y-103421100D01*
X146244308Y-103583658D01*
X146763511Y-103544548D01*
X147061539Y-103421100D01*
X147135745Y-103204671D01*
X146405600Y-102474526D01*
X145675455Y-103204671D01*
X140258800Y-103204671D01*
X140258800Y-102097708D01*
X145080942Y-102097708D01*
X145120052Y-102616911D01*
X145243500Y-102914939D01*
X145459929Y-102989145D01*
X146190074Y-102259000D01*
X146621126Y-102259000D01*
X147351271Y-102989145D01*
X147567700Y-102914939D01*
X147730258Y-102420292D01*
X147691148Y-101901089D01*
X147567700Y-101603061D01*
X147351271Y-101528855D01*
X146621126Y-102259000D01*
X146190074Y-102259000D01*
X145459929Y-101528855D01*
X145243500Y-101603061D01*
X145080942Y-102097708D01*
X140258800Y-102097708D01*
X140258800Y-101313329D01*
X145675455Y-101313329D01*
X146405600Y-102043474D01*
X147135745Y-101313329D01*
X147061539Y-101096900D01*
X146566892Y-100934342D01*
X146047689Y-100973452D01*
X145749661Y-101096900D01*
X145675455Y-101313329D01*
X140258800Y-101313329D01*
X140258800Y-98509000D01*
X145085853Y-98509000D01*
X145085853Y-100009000D01*
X145129222Y-100227033D01*
X145252728Y-100411872D01*
X145437567Y-100535378D01*
X145655600Y-100578747D01*
X147155600Y-100578747D01*
X147373633Y-100535378D01*
X147558472Y-100411872D01*
X147606806Y-100339534D01*
X148616800Y-100339534D01*
X148616800Y-101178466D01*
X148937846Y-101953539D01*
X149531061Y-102546754D01*
X150306134Y-102867800D01*
X151145066Y-102867800D01*
X151920139Y-102546754D01*
X152513354Y-101953539D01*
X152834400Y-101178466D01*
X152834400Y-100339534D01*
X152513354Y-99564461D01*
X151920139Y-98971246D01*
X151145066Y-98650200D01*
X150306134Y-98650200D01*
X149531061Y-98971246D01*
X148937846Y-99564461D01*
X148616800Y-100339534D01*
X147606806Y-100339534D01*
X147681978Y-100227033D01*
X147725347Y-100009000D01*
X147725347Y-98509000D01*
X147681978Y-98290967D01*
X147558472Y-98106128D01*
X147373633Y-97982622D01*
X147155600Y-97939253D01*
X145655600Y-97939253D01*
X145437567Y-97982622D01*
X145252728Y-98106128D01*
X145129222Y-98290967D01*
X145085853Y-98509000D01*
X140258800Y-98509000D01*
X140258800Y-91509069D01*
X147086451Y-84681419D01*
X147149015Y-84639615D01*
X147314625Y-84391762D01*
X147358100Y-84173197D01*
X147372779Y-84099401D01*
X147358100Y-84025605D01*
X147358100Y-82916987D01*
X147494072Y-82713491D01*
X147548600Y-82439359D01*
X147548600Y-78976877D01*
X147754831Y-78770646D01*
X147813109Y-78809586D01*
X151003000Y-81999478D01*
X151003001Y-88568821D01*
X150850600Y-88936748D01*
X150850600Y-89371252D01*
X151016878Y-89772681D01*
X151324119Y-90079922D01*
X151725548Y-90246200D01*
X152160052Y-90246200D01*
X152561481Y-90079922D01*
X152868722Y-89772681D01*
X153035000Y-89371252D01*
X153035000Y-88936748D01*
X152882600Y-88568823D01*
X152882600Y-81702753D01*
X152901010Y-81610199D01*
X152882600Y-81517645D01*
X152882600Y-81517641D01*
X152828072Y-81243509D01*
X152828071Y-81243507D01*
X152672787Y-81011109D01*
X152672786Y-81011108D01*
X152620357Y-80932643D01*
X152541893Y-80880215D01*
X149352000Y-77690323D01*
X149352000Y-77369377D01*
X149504400Y-77001452D01*
X149504400Y-76572328D01*
X150328361Y-77396289D01*
X151507730Y-77884800D01*
X152784270Y-77884800D01*
X153963639Y-77396289D01*
X154330400Y-77029528D01*
X154330400Y-110168472D01*
X153963639Y-109801711D01*
X152784270Y-109313200D01*
X151507730Y-109313200D01*
X150328361Y-109801711D01*
X149425711Y-110704361D01*
X148937200Y-111883730D01*
X148937200Y-113160270D01*
X149425711Y-114339639D01*
X149716272Y-114630200D01*
X111252000Y-114630200D01*
X111252000Y-111212548D01*
X118821200Y-111212548D01*
X118821200Y-111647052D01*
X118987478Y-112048481D01*
X119294719Y-112355722D01*
X119696148Y-112522000D01*
X120130652Y-112522000D01*
X120498577Y-112369600D01*
X122267323Y-112369600D01*
X123183914Y-113286192D01*
X123236343Y-113364657D01*
X123314808Y-113417086D01*
X123314810Y-113417088D01*
X123477823Y-113526009D01*
X123547209Y-113572372D01*
X123821341Y-113626900D01*
X123821346Y-113626900D01*
X123913900Y-113645310D01*
X124006454Y-113626900D01*
X125779823Y-113626900D01*
X126147748Y-113779300D01*
X126582252Y-113779300D01*
X126950177Y-113626900D01*
X128494946Y-113626900D01*
X128587500Y-113645310D01*
X128680054Y-113626900D01*
X128680059Y-113626900D01*
X128954191Y-113572372D01*
X129265057Y-113364657D01*
X129317488Y-113286189D01*
X134609492Y-107994186D01*
X134687957Y-107941757D01*
X134740386Y-107863292D01*
X134740388Y-107863290D01*
X134895671Y-107630892D01*
X134895672Y-107630891D01*
X134950200Y-107356759D01*
X134950200Y-107356754D01*
X134968610Y-107264200D01*
X134950200Y-107171646D01*
X134950200Y-102725877D01*
X137035192Y-100640886D01*
X137113657Y-100588457D01*
X137166086Y-100509992D01*
X137166088Y-100509990D01*
X137321371Y-100277593D01*
X137321371Y-100277592D01*
X137321372Y-100277591D01*
X137375900Y-100003459D01*
X137375900Y-100003454D01*
X137394310Y-99910900D01*
X137375900Y-99818346D01*
X137375900Y-97010247D01*
X137436100Y-97010247D01*
X137654133Y-96966878D01*
X137838972Y-96843372D01*
X137962478Y-96658533D01*
X138005847Y-96440500D01*
X138005847Y-93840500D01*
X137962478Y-93622467D01*
X137838972Y-93437628D01*
X137654133Y-93314122D01*
X137436100Y-93270753D01*
X137375900Y-93270753D01*
X137375900Y-84729977D01*
X143880316Y-78225562D01*
X144204881Y-78091122D01*
X144512122Y-77783881D01*
X144678400Y-77382452D01*
X144678400Y-76947948D01*
X144512122Y-76546519D01*
X144204881Y-76239278D01*
X143803452Y-76073000D01*
X143368948Y-76073000D01*
X142967519Y-76239278D01*
X142660278Y-76546519D01*
X142494000Y-76947948D01*
X142494000Y-76953722D01*
X135837011Y-83610712D01*
X135758543Y-83663143D01*
X135550828Y-83974010D01*
X135496300Y-84248142D01*
X135496300Y-84248146D01*
X135477890Y-84340700D01*
X135496300Y-84433254D01*
X135496301Y-93270753D01*
X135436100Y-93270753D01*
X135218067Y-93314122D01*
X135033228Y-93437628D01*
X134909722Y-93622467D01*
X134866353Y-93840500D01*
X134866353Y-94214050D01*
X134504313Y-93972143D01*
X133896100Y-93851162D01*
X133287888Y-93972143D01*
X132807020Y-94293448D01*
X132768445Y-94148123D01*
X132395975Y-93660346D01*
X131865194Y-93352237D01*
X131749305Y-93332108D01*
X131508500Y-93429607D01*
X131508500Y-94988100D01*
X131528500Y-94988100D01*
X131528500Y-95292900D01*
X131508500Y-95292900D01*
X131508500Y-96851393D01*
X131749305Y-96948892D01*
X131865194Y-96928763D01*
X132395975Y-96620654D01*
X132416750Y-96593447D01*
X132427743Y-96648712D01*
X132772268Y-97164332D01*
X133146800Y-97414586D01*
X133146800Y-97720929D01*
X130903849Y-99963881D01*
X130841286Y-100005685D01*
X130799483Y-100068248D01*
X130675676Y-100253538D01*
X130617521Y-100545900D01*
X130632201Y-100619700D01*
X130632200Y-105656847D01*
X130455578Y-105833469D01*
X130289300Y-106234898D01*
X130289300Y-106669402D01*
X130455578Y-107070831D01*
X130762819Y-107378072D01*
X131164248Y-107544350D01*
X131598752Y-107544350D01*
X132000181Y-107378072D01*
X132307422Y-107070831D01*
X132473700Y-106669402D01*
X132473700Y-106234898D01*
X132307422Y-105833469D01*
X132130800Y-105656847D01*
X132130800Y-100856269D01*
X134373755Y-98613316D01*
X134436315Y-98571515D01*
X134601925Y-98323662D01*
X134645400Y-98105097D01*
X134645400Y-98105096D01*
X134660079Y-98031301D01*
X134645400Y-97957505D01*
X134645400Y-97414585D01*
X135019932Y-97164332D01*
X135172300Y-96936297D01*
X135218067Y-96966878D01*
X135436100Y-97010247D01*
X135496300Y-97010247D01*
X135496301Y-99521621D01*
X133411311Y-101606612D01*
X133332843Y-101659043D01*
X133280413Y-101737510D01*
X133280412Y-101737511D01*
X133136067Y-101953539D01*
X133125128Y-101969910D01*
X133070600Y-102244042D01*
X133070600Y-102244046D01*
X133052190Y-102336600D01*
X133070600Y-102429154D01*
X133070601Y-106874921D01*
X128198223Y-111747300D01*
X126950177Y-111747300D01*
X126582252Y-111594900D01*
X126147748Y-111594900D01*
X125779823Y-111747300D01*
X124303178Y-111747300D01*
X123386587Y-110830710D01*
X123334157Y-110752243D01*
X123023291Y-110544528D01*
X122749159Y-110490000D01*
X122749154Y-110490000D01*
X122656600Y-110471590D01*
X122564046Y-110490000D01*
X120498577Y-110490000D01*
X120130652Y-110337600D01*
X119696148Y-110337600D01*
X119294719Y-110503878D01*
X118987478Y-110811119D01*
X118821200Y-111212548D01*
X111252000Y-111212548D01*
X111252000Y-94673235D01*
X112309400Y-94673235D01*
X112309400Y-95293365D01*
X112546713Y-95866289D01*
X112985211Y-96304787D01*
X113558135Y-96542100D01*
X114178265Y-96542100D01*
X114751189Y-96304787D01*
X115189687Y-95866289D01*
X115427000Y-95293365D01*
X115427000Y-94686975D01*
X124717300Y-94686975D01*
X124717300Y-95594024D01*
X124807743Y-96048712D01*
X125152268Y-96564332D01*
X125667887Y-96908857D01*
X126276100Y-97029838D01*
X126884312Y-96908857D01*
X127339050Y-96605012D01*
X127347743Y-96648712D01*
X127692268Y-97164332D01*
X128207887Y-97508857D01*
X128816100Y-97629838D01*
X129424312Y-97508857D01*
X129939932Y-97164332D01*
X130284457Y-96648713D01*
X130295450Y-96593448D01*
X130316225Y-96620654D01*
X130847006Y-96928763D01*
X130962895Y-96948892D01*
X131203700Y-96851393D01*
X131203700Y-95292900D01*
X131183700Y-95292900D01*
X131183700Y-94988100D01*
X131203700Y-94988100D01*
X131203700Y-93429607D01*
X130962895Y-93332108D01*
X130847006Y-93352237D01*
X130316225Y-93660346D01*
X129943755Y-94148123D01*
X129905180Y-94293448D01*
X129424313Y-93972143D01*
X128816100Y-93851162D01*
X128207888Y-93972143D01*
X127753150Y-94275988D01*
X127744457Y-94232287D01*
X127399932Y-93716668D01*
X126884313Y-93372143D01*
X126276100Y-93251162D01*
X125667888Y-93372143D01*
X125152268Y-93716668D01*
X124807743Y-94232287D01*
X124717300Y-94686975D01*
X115427000Y-94686975D01*
X115427000Y-94673235D01*
X115189687Y-94100311D01*
X114751189Y-93661813D01*
X114178265Y-93424500D01*
X113558135Y-93424500D01*
X112985211Y-93661813D01*
X112546713Y-94100311D01*
X112309400Y-94673235D01*
X111252000Y-94673235D01*
X111252000Y-75790432D01*
X112956594Y-75790432D01*
X113061609Y-76032755D01*
X113647075Y-76237181D01*
X114266206Y-76201998D01*
X114674791Y-76032755D01*
X114779806Y-75790432D01*
X113868200Y-74878826D01*
X112956594Y-75790432D01*
X111252000Y-75790432D01*
X111252000Y-74442175D01*
X112294319Y-74442175D01*
X112329502Y-75061306D01*
X112498745Y-75469891D01*
X112741068Y-75574906D01*
X113652674Y-74663300D01*
X114083726Y-74663300D01*
X114995332Y-75574906D01*
X115237655Y-75469891D01*
X115442081Y-74884425D01*
X115406898Y-74265294D01*
X115237655Y-73856709D01*
X114995332Y-73751694D01*
X114083726Y-74663300D01*
X113652674Y-74663300D01*
X112741068Y-73751694D01*
X112498745Y-73856709D01*
X112294319Y-74442175D01*
X111252000Y-74442175D01*
X111252000Y-73536168D01*
X112956594Y-73536168D01*
X113868200Y-74447774D01*
X114779806Y-73536168D01*
X114674791Y-73293845D01*
X114089325Y-73089419D01*
X113470194Y-73124602D01*
X113061609Y-73293845D01*
X112956594Y-73536168D01*
X111252000Y-73536168D01*
X111252000Y-72491600D01*
X133468722Y-72491600D01*
X129194911Y-76765412D01*
X129194911Y-76765412D01*
G37*
X129194911Y-76765412D02*
X129116443Y-76817843D01*
X128908728Y-77128710D01*
X128854200Y-77402842D01*
X128854200Y-77402846D01*
X128835790Y-77495400D01*
X128854200Y-77587954D01*
X128854201Y-79297433D01*
X128803479Y-79348155D01*
X128625600Y-79777591D01*
X128625600Y-80242409D01*
X128803479Y-80671845D01*
X129132155Y-81000521D01*
X129561591Y-81178400D01*
X130026409Y-81178400D01*
X130454400Y-81001119D01*
X130454401Y-85914521D01*
X130302000Y-86282448D01*
X130302000Y-86716952D01*
X130468278Y-87118381D01*
X130775519Y-87425622D01*
X131176948Y-87591900D01*
X131611452Y-87591900D01*
X132012881Y-87425622D01*
X132320122Y-87118381D01*
X132486400Y-86716952D01*
X132486400Y-86282448D01*
X132334000Y-85914523D01*
X132334000Y-78240277D01*
X135669678Y-74904600D01*
X141810348Y-74904600D01*
X141898278Y-75116881D01*
X142205519Y-75424122D01*
X142606948Y-75590400D01*
X143041452Y-75590400D01*
X143442881Y-75424122D01*
X143750122Y-75116881D01*
X143916400Y-74715452D01*
X143916400Y-74280948D01*
X143750122Y-73879519D01*
X143581403Y-73710800D01*
X144060523Y-73710800D01*
X145878812Y-75529089D01*
X147108522Y-76758800D01*
X146009710Y-77857612D01*
X145931243Y-77910043D01*
X145878813Y-77988510D01*
X145878812Y-77988511D01*
X145810250Y-78091122D01*
X145723528Y-78220910D01*
X145669000Y-78495042D01*
X145669000Y-78495046D01*
X145650590Y-78587600D01*
X145669000Y-78680154D01*
X145669001Y-82226929D01*
X140875531Y-87020400D01*
X140625748Y-87020400D01*
X140224319Y-87186678D01*
X139917078Y-87493919D01*
X139750800Y-87895348D01*
X139750800Y-88329852D01*
X139917078Y-88731281D01*
X140224319Y-89038522D01*
X140497043Y-89151488D01*
X139031852Y-90616679D01*
X138969285Y-90658485D01*
X138803675Y-90906339D01*
X138760200Y-91124903D01*
X138745521Y-91198700D01*
X138760200Y-91272496D01*
X138760201Y-106989596D01*
X138583578Y-107166219D01*
X138417300Y-107567648D01*
X138417300Y-108002152D01*
X138583578Y-108403581D01*
X138890819Y-108710822D01*
X139292248Y-108877100D01*
X139726752Y-108877100D01*
X140128181Y-108710822D01*
X140435422Y-108403581D01*
X140601700Y-108002152D01*
X140601700Y-107567648D01*
X140435422Y-107166219D01*
X140258800Y-106989597D01*
X140258800Y-103204671D01*
X145675455Y-103204671D01*
X145749661Y-103421100D01*
X146244308Y-103583658D01*
X146763511Y-103544548D01*
X147061539Y-103421100D01*
X147135745Y-103204671D01*
X146405600Y-102474526D01*
X145675455Y-103204671D01*
X140258800Y-103204671D01*
X140258800Y-102097708D01*
X145080942Y-102097708D01*
X145120052Y-102616911D01*
X145243500Y-102914939D01*
X145459929Y-102989145D01*
X146190074Y-102259000D01*
X146621126Y-102259000D01*
X147351271Y-102989145D01*
X147567700Y-102914939D01*
X147730258Y-102420292D01*
X147691148Y-101901089D01*
X147567700Y-101603061D01*
X147351271Y-101528855D01*
X146621126Y-102259000D01*
X146190074Y-102259000D01*
X145459929Y-101528855D01*
X145243500Y-101603061D01*
X145080942Y-102097708D01*
X140258800Y-102097708D01*
X140258800Y-101313329D01*
X145675455Y-101313329D01*
X146405600Y-102043474D01*
X147135745Y-101313329D01*
X147061539Y-101096900D01*
X146566892Y-100934342D01*
X146047689Y-100973452D01*
X145749661Y-101096900D01*
X145675455Y-101313329D01*
X140258800Y-101313329D01*
X140258800Y-98509000D01*
X145085853Y-98509000D01*
X145085853Y-100009000D01*
X145129222Y-100227033D01*
X145252728Y-100411872D01*
X145437567Y-100535378D01*
X145655600Y-100578747D01*
X147155600Y-100578747D01*
X147373633Y-100535378D01*
X147558472Y-100411872D01*
X147606806Y-100339534D01*
X148616800Y-100339534D01*
X148616800Y-101178466D01*
X148937846Y-101953539D01*
X149531061Y-102546754D01*
X150306134Y-102867800D01*
X151145066Y-102867800D01*
X151920139Y-102546754D01*
X152513354Y-101953539D01*
X152834400Y-101178466D01*
X152834400Y-100339534D01*
X152513354Y-99564461D01*
X151920139Y-98971246D01*
X151145066Y-98650200D01*
X150306134Y-98650200D01*
X149531061Y-98971246D01*
X148937846Y-99564461D01*
X148616800Y-100339534D01*
X147606806Y-100339534D01*
X147681978Y-100227033D01*
X147725347Y-100009000D01*
X147725347Y-98509000D01*
X147681978Y-98290967D01*
X147558472Y-98106128D01*
X147373633Y-97982622D01*
X147155600Y-97939253D01*
X145655600Y-97939253D01*
X145437567Y-97982622D01*
X145252728Y-98106128D01*
X145129222Y-98290967D01*
X145085853Y-98509000D01*
X140258800Y-98509000D01*
X140258800Y-91509069D01*
X147086451Y-84681419D01*
X147149015Y-84639615D01*
X147314625Y-84391762D01*
X147358100Y-84173197D01*
X147372779Y-84099401D01*
X147358100Y-84025605D01*
X147358100Y-82916987D01*
X147494072Y-82713491D01*
X147548600Y-82439359D01*
X147548600Y-78976877D01*
X147754831Y-78770646D01*
X147813109Y-78809586D01*
X151003000Y-81999478D01*
X151003001Y-88568821D01*
X150850600Y-88936748D01*
X150850600Y-89371252D01*
X151016878Y-89772681D01*
X151324119Y-90079922D01*
X151725548Y-90246200D01*
X152160052Y-90246200D01*
X152561481Y-90079922D01*
X152868722Y-89772681D01*
X153035000Y-89371252D01*
X153035000Y-88936748D01*
X152882600Y-88568823D01*
X152882600Y-81702753D01*
X152901010Y-81610199D01*
X152882600Y-81517645D01*
X152882600Y-81517641D01*
X152828072Y-81243509D01*
X152828071Y-81243507D01*
X152672787Y-81011109D01*
X152672786Y-81011108D01*
X152620357Y-80932643D01*
X152541893Y-80880215D01*
X149352000Y-77690323D01*
X149352000Y-77369377D01*
X149504400Y-77001452D01*
X149504400Y-76572328D01*
X150328361Y-77396289D01*
X151507730Y-77884800D01*
X152784270Y-77884800D01*
X153963639Y-77396289D01*
X154330400Y-77029528D01*
X154330400Y-110168472D01*
X153963639Y-109801711D01*
X152784270Y-109313200D01*
X151507730Y-109313200D01*
X150328361Y-109801711D01*
X149425711Y-110704361D01*
X148937200Y-111883730D01*
X148937200Y-113160270D01*
X149425711Y-114339639D01*
X149716272Y-114630200D01*
X111252000Y-114630200D01*
X111252000Y-111212548D01*
X118821200Y-111212548D01*
X118821200Y-111647052D01*
X118987478Y-112048481D01*
X119294719Y-112355722D01*
X119696148Y-112522000D01*
X120130652Y-112522000D01*
X120498577Y-112369600D01*
X122267323Y-112369600D01*
X123183914Y-113286192D01*
X123236343Y-113364657D01*
X123314808Y-113417086D01*
X123314810Y-113417088D01*
X123477823Y-113526009D01*
X123547209Y-113572372D01*
X123821341Y-113626900D01*
X123821346Y-113626900D01*
X123913900Y-113645310D01*
X124006454Y-113626900D01*
X125779823Y-113626900D01*
X126147748Y-113779300D01*
X126582252Y-113779300D01*
X126950177Y-113626900D01*
X128494946Y-113626900D01*
X128587500Y-113645310D01*
X128680054Y-113626900D01*
X128680059Y-113626900D01*
X128954191Y-113572372D01*
X129265057Y-113364657D01*
X129317488Y-113286189D01*
X134609492Y-107994186D01*
X134687957Y-107941757D01*
X134740386Y-107863292D01*
X134740388Y-107863290D01*
X134895671Y-107630892D01*
X134895672Y-107630891D01*
X134950200Y-107356759D01*
X134950200Y-107356754D01*
X134968610Y-107264200D01*
X134950200Y-107171646D01*
X134950200Y-102725877D01*
X137035192Y-100640886D01*
X137113657Y-100588457D01*
X137166086Y-100509992D01*
X137166088Y-100509990D01*
X137321371Y-100277593D01*
X137321371Y-100277592D01*
X137321372Y-100277591D01*
X137375900Y-100003459D01*
X137375900Y-100003454D01*
X137394310Y-99910900D01*
X137375900Y-99818346D01*
X137375900Y-97010247D01*
X137436100Y-97010247D01*
X137654133Y-96966878D01*
X137838972Y-96843372D01*
X137962478Y-96658533D01*
X138005847Y-96440500D01*
X138005847Y-93840500D01*
X137962478Y-93622467D01*
X137838972Y-93437628D01*
X137654133Y-93314122D01*
X137436100Y-93270753D01*
X137375900Y-93270753D01*
X137375900Y-84729977D01*
X143880316Y-78225562D01*
X144204881Y-78091122D01*
X144512122Y-77783881D01*
X144678400Y-77382452D01*
X144678400Y-76947948D01*
X144512122Y-76546519D01*
X144204881Y-76239278D01*
X143803452Y-76073000D01*
X143368948Y-76073000D01*
X142967519Y-76239278D01*
X142660278Y-76546519D01*
X142494000Y-76947948D01*
X142494000Y-76953722D01*
X135837011Y-83610712D01*
X135758543Y-83663143D01*
X135550828Y-83974010D01*
X135496300Y-84248142D01*
X135496300Y-84248146D01*
X135477890Y-84340700D01*
X135496300Y-84433254D01*
X135496301Y-93270753D01*
X135436100Y-93270753D01*
X135218067Y-93314122D01*
X135033228Y-93437628D01*
X134909722Y-93622467D01*
X134866353Y-93840500D01*
X134866353Y-94214050D01*
X134504313Y-93972143D01*
X133896100Y-93851162D01*
X133287888Y-93972143D01*
X132807020Y-94293448D01*
X132768445Y-94148123D01*
X132395975Y-93660346D01*
X131865194Y-93352237D01*
X131749305Y-93332108D01*
X131508500Y-93429607D01*
X131508500Y-94988100D01*
X131528500Y-94988100D01*
X131528500Y-95292900D01*
X131508500Y-95292900D01*
X131508500Y-96851393D01*
X131749305Y-96948892D01*
X131865194Y-96928763D01*
X132395975Y-96620654D01*
X132416750Y-96593447D01*
X132427743Y-96648712D01*
X132772268Y-97164332D01*
X133146800Y-97414586D01*
X133146800Y-97720929D01*
X130903849Y-99963881D01*
X130841286Y-100005685D01*
X130799483Y-100068248D01*
X130675676Y-100253538D01*
X130617521Y-100545900D01*
X130632201Y-100619700D01*
X130632200Y-105656847D01*
X130455578Y-105833469D01*
X130289300Y-106234898D01*
X130289300Y-106669402D01*
X130455578Y-107070831D01*
X130762819Y-107378072D01*
X131164248Y-107544350D01*
X131598752Y-107544350D01*
X132000181Y-107378072D01*
X132307422Y-107070831D01*
X132473700Y-106669402D01*
X132473700Y-106234898D01*
X132307422Y-105833469D01*
X132130800Y-105656847D01*
X132130800Y-100856269D01*
X134373755Y-98613316D01*
X134436315Y-98571515D01*
X134601925Y-98323662D01*
X134645400Y-98105097D01*
X134645400Y-98105096D01*
X134660079Y-98031301D01*
X134645400Y-97957505D01*
X134645400Y-97414585D01*
X135019932Y-97164332D01*
X135172300Y-96936297D01*
X135218067Y-96966878D01*
X135436100Y-97010247D01*
X135496300Y-97010247D01*
X135496301Y-99521621D01*
X133411311Y-101606612D01*
X133332843Y-101659043D01*
X133280413Y-101737510D01*
X133280412Y-101737511D01*
X133136067Y-101953539D01*
X133125128Y-101969910D01*
X133070600Y-102244042D01*
X133070600Y-102244046D01*
X133052190Y-102336600D01*
X133070600Y-102429154D01*
X133070601Y-106874921D01*
X128198223Y-111747300D01*
X126950177Y-111747300D01*
X126582252Y-111594900D01*
X126147748Y-111594900D01*
X125779823Y-111747300D01*
X124303178Y-111747300D01*
X123386587Y-110830710D01*
X123334157Y-110752243D01*
X123023291Y-110544528D01*
X122749159Y-110490000D01*
X122749154Y-110490000D01*
X122656600Y-110471590D01*
X122564046Y-110490000D01*
X120498577Y-110490000D01*
X120130652Y-110337600D01*
X119696148Y-110337600D01*
X119294719Y-110503878D01*
X118987478Y-110811119D01*
X118821200Y-111212548D01*
X111252000Y-111212548D01*
X111252000Y-94673235D01*
X112309400Y-94673235D01*
X112309400Y-95293365D01*
X112546713Y-95866289D01*
X112985211Y-96304787D01*
X113558135Y-96542100D01*
X114178265Y-96542100D01*
X114751189Y-96304787D01*
X115189687Y-95866289D01*
X115427000Y-95293365D01*
X115427000Y-94686975D01*
X124717300Y-94686975D01*
X124717300Y-95594024D01*
X124807743Y-96048712D01*
X125152268Y-96564332D01*
X125667887Y-96908857D01*
X126276100Y-97029838D01*
X126884312Y-96908857D01*
X127339050Y-96605012D01*
X127347743Y-96648712D01*
X127692268Y-97164332D01*
X128207887Y-97508857D01*
X128816100Y-97629838D01*
X129424312Y-97508857D01*
X129939932Y-97164332D01*
X130284457Y-96648713D01*
X130295450Y-96593448D01*
X130316225Y-96620654D01*
X130847006Y-96928763D01*
X130962895Y-96948892D01*
X131203700Y-96851393D01*
X131203700Y-95292900D01*
X131183700Y-95292900D01*
X131183700Y-94988100D01*
X131203700Y-94988100D01*
X131203700Y-93429607D01*
X130962895Y-93332108D01*
X130847006Y-93352237D01*
X130316225Y-93660346D01*
X129943755Y-94148123D01*
X129905180Y-94293448D01*
X129424313Y-93972143D01*
X128816100Y-93851162D01*
X128207888Y-93972143D01*
X127753150Y-94275988D01*
X127744457Y-94232287D01*
X127399932Y-93716668D01*
X126884313Y-93372143D01*
X126276100Y-93251162D01*
X125667888Y-93372143D01*
X125152268Y-93716668D01*
X124807743Y-94232287D01*
X124717300Y-94686975D01*
X115427000Y-94686975D01*
X115427000Y-94673235D01*
X115189687Y-94100311D01*
X114751189Y-93661813D01*
X114178265Y-93424500D01*
X113558135Y-93424500D01*
X112985211Y-93661813D01*
X112546713Y-94100311D01*
X112309400Y-94673235D01*
X111252000Y-94673235D01*
X111252000Y-75790432D01*
X112956594Y-75790432D01*
X113061609Y-76032755D01*
X113647075Y-76237181D01*
X114266206Y-76201998D01*
X114674791Y-76032755D01*
X114779806Y-75790432D01*
X113868200Y-74878826D01*
X112956594Y-75790432D01*
X111252000Y-75790432D01*
X111252000Y-74442175D01*
X112294319Y-74442175D01*
X112329502Y-75061306D01*
X112498745Y-75469891D01*
X112741068Y-75574906D01*
X113652674Y-74663300D01*
X114083726Y-74663300D01*
X114995332Y-75574906D01*
X115237655Y-75469891D01*
X115442081Y-74884425D01*
X115406898Y-74265294D01*
X115237655Y-73856709D01*
X114995332Y-73751694D01*
X114083726Y-74663300D01*
X113652674Y-74663300D01*
X112741068Y-73751694D01*
X112498745Y-73856709D01*
X112294319Y-74442175D01*
X111252000Y-74442175D01*
X111252000Y-73536168D01*
X112956594Y-73536168D01*
X113868200Y-74447774D01*
X114779806Y-73536168D01*
X114674791Y-73293845D01*
X114089325Y-73089419D01*
X113470194Y-73124602D01*
X113061609Y-73293845D01*
X112956594Y-73536168D01*
X111252000Y-73536168D01*
X111252000Y-72491600D01*
X133468722Y-72491600D01*
X129194911Y-76765412D01*
G04 #@! TD*
M02*
